<svg width="368" height="235" viewBox="0 0 368 235" xmlns="http://www.w3.org/2000/svg"><g id="illustration/changelog-banner" stroke="none" stroke-width="1" fill="none" fill-rule="evenodd"><g id="cat1" transform="matrix(-1 0 0 1 368 0)" fill-rule="nonzero"><path d="M52.08 48s-9.5-21.5-8-30.5 6-11.25 21-7.75 32.27 15.74 32.27 15.74S72.58 50.72 52.08 48z" id="Shape" fill="#FFE066"/><path d="M97.35 25.49s-2.56-1.82-6.56-4.25c-7.6 1.28-20.41 4.27-30.86 10.76C48.7 39 51 14.28 51.72 8.33 47 9.07 45 12 44.08 17.47c-1.5 9 8 30.5 8 30.5 20.5 2.75 45.27-22.48 45.27-22.48z" id="Shape" fill="#FFD43B"/><path d="M100.39 28.45S97.1-17.14 126.5 7.11c13.45 11.09 19.07 21.37 20.59 28.34 1.52 6.97-47 9.07-46.7-7z" id="Shape" fill="#FFE066"/><path d="M147.09 35.45a33.56 33.56 0 0 0-3.78-9.34c-11.51-.37-28.84-3-34-14.88A9.45 9.45 0 0 1 111.49 0c-13.1.66-11.1 28.43-11.1 28.43-.3 16.09 48.21 13.99 46.7 7.02zm32.99 69.1s-10.48 9.58-16.63 14.46c5.36 13.27 4.24 24.45 8.05 35.66 6.24-3.64 30.56-10.81 32.75-29 2.66-22.12-24.17-21.12-24.17-21.12z" id="Shape" fill="#FFD43B"/><path d="M156.25 97.61l.1.31c.07-.26-.1-.31-.1-.31z" id="Shape" fill="#005DB4"/><path d="M180 180.3c-5.62-40.75-17.44-63.48-17.44-63.48l-6.2-18.9c-.22.89-3.08 4.27-24 16.73-27.17 16.17-43.93 7.58-58.95 1.3-13.45-5.62-36.16-24.57-36.16-24.57s-18.5 12.22-29.59 39.94c-8.53 21.34-7.34 65.55-4.79 71.92 2.21 16.67 43.24 30 93.54 30 51.71 0 86.43-11.89 86.43-29.22 0-.02.65 1.65-2.84-23.72z" id="Shape" fill="#005DB4"/><path d="M145.11 115.87c-4.67-.08-18.05-.15-25.43 1.26a90.32 90.32 0 0 0-1.35 11.94c-.5 14.15-14.75 27.4-26.75 29.15s-16.25-4.5-16.25-4.5-40.5 1.5-33.5 20.5l6 6.25s.2.21.61.57a19.55 19.55 0 0 1-4.32.5 16.58 16.58 0 0 1-6.37-1.24c-5.19-2.15-8.16-6.32-15-16.75-6.71-10.23-4.33-29.5-4.33-29.5a43.13 43.13 0 0 1 5-16.64c.27-.5-.16-.58-.41 0a63.54 63.54 0 0 0-6.12 18.5c-.42 2.4-1.14 22.05 5.41 33.67 6.74 12 8.26 14 14.65 16.68a20.57 20.57 0 0 0 7.9 1.54 25.09 25.09 0 0 0 8.35-1.51c6.27 4 18.46 7.69 39.43 7.19 31.5-.75 44.25-32.5 49-44.5 3.99-10.24 3.67-28.07 3.48-33.11z" id="Shape" fill="#004586"/><path d="M37.23 91.39s22.7 18.94 36.16 24.61c15 6.28 31.78 14.86 58.95-1.3 20.94-12.46 23.81-15.84 24-16.73l-.1-.31s.17 0 .1.31l1.57 4.8C173 94.56 182 88 181.74 82.42c-.5-9.5-6.26-23.37-29.24-43.43-15.75-13.75-84.75-31.75-108.57 22.1-9 20.37-6.85 30.13-6.85 30.13l.15.17z" id="Shape" fill="#FFE066"/><path d="M130.18 101.5c-7.33 6.87-54 5-68.89-15.27a46 46 0 0 1-6.45-42.17 63 63 0 0 0-10.91 17c-9 20.37-6.85 30.13-6.85 30.13l.15.17s22.7 18.97 36.16 24.64c15 6.28 31.78 14.86 58.95-1.3 1.93-1.15 3.71-2.22 5.35-3.23 2.31-6.27-4.79-12.53-7.51-9.97z" id="Shape" fill="#FFD43B"/><path d="M162.55 116.82l-6.2-18.9c-.18.75-2.27 3.29-15.58 11.6l4.28 18.72s.13-9.44 21.79-1.41a106.62 106.62 0 0 0-4.29-10.01z" id="Shape" fill="#004586"/><path d="M101.08 53.69c4.62-2.62 8.17-2.74 12.27-1.47 4.52 1.4 9 5.4 9 10.45 0 .31.56 1.07.35 1.21a7.23 7.23 0 0 1-3.54.52 30.17 30.17 0 0 1-7.54-1.31 18.86 18.86 0 0 1-10.54-9.4zm59.98-.34c-3.15-3.33-8.43-2.87-12.53-1.59-4.52 1.4-9 5.4-9 10.45 0 .31-.21.79-.24 1.16-.08.85 5.44.84 6.44.69 2.53-.3 2.1-.67 4.53-1.44 4.51-1.68 9.34-4.62 10.8-9.27z" id="Shape" fill="#F9DA3E"/><path d="M101 53.7a2.62 2.62 0 0 1 .3-.29 7.8 7.8 0 0 1 .9-.68 11.73 11.73 0 0 1 3.36-1.55 13.36 13.36 0 0 1 2.29-.45c.846-.097 1.7-.12 2.55-.07a15.19 15.19 0 0 1 2.65.43c.89.22 1.758.525 2.59.91a13.25 13.25 0 0 1 2.36 1.36c.73.5 1.4 1.08 2 1.73a10 10 0 0 1 1.49 2c.2.35.4.66.56 1 .16.34.28.68.39 1 .213.607.367 1.233.46 1.87a10.84 10.84 0 0 1 0 1.58 7.57 7.57 0 0 1-.1 1 3.37 3.37 0 0 1-.08.39h-.44c-.26 0-.7 0-1.14-.07-.44-.07-1-.08-1.57-.16-.57-.08-1.2-.12-1.82-.22l-1.88-.32c-.64-.11-1.23-.29-1.87-.42-.64-.13-1.2-.36-1.81-.56-.61-.2-1.16-.46-1.74-.71-.58-.25-1.13-.55-1.68-.87a18.26 18.26 0 0 1-1.61-1 26.18 26.18 0 0 1-3-2.4c-.45-.44-.87-.84-1.26-1.25-.39-.41-.73-.81-1-1.12-.27-.31-.53-.63-.7-.8l-.2-.33z" id="Shape" fill="#6F6F6E"/><path d="M122.5 64c-5.14-7.79-16.64-9.47-21.11-9.82.16.19.35.44.6.69.25.25.64.74 1 1.12.36.38.81.81 1.26 1.25a26.18 26.18 0 0 0 3 2.4 18.26 18.26 0 0 0 1.61 1c.55.32 1.12.59 1.68.87.56.28 1.16.49 1.74.71.58.22 1.19.4 1.81.56.62.16 1.23.31 1.87.42l1.88.32c.62.09 1.25.15 1.82.22.57.07 1.11.11 1.57.16.46.05.87 0 1.14.07l.13.03z" id="Shape" fill="#575756"/><path d="M161.06 53.29a2.62 2.62 0 0 0-.3-.29 7.73 7.73 0 0 0-.9-.68 11.73 11.73 0 0 0-3.36-1.55 13.34 13.34 0 0 0-2.29-.45 14.75 14.75 0 0 0-2.55-.07 15.19 15.19 0 0 0-2.65.43c-.89.22-1.758.525-2.59.91a13.22 13.22 0 0 0-2.42 1.36c-.729.5-1.4 1.08-2 1.73a10 10 0 0 0-1.49 2c-.2.35-.4.66-.56 1-.16.34-.28.68-.39 1a10.06 10.06 0 0 0-.46 1.87 10.84 10.84 0 0 0 0 1.58c.011.335.045.67.1 1 .02.131.046.262.08.39h.44c.26 0 .7 0 1.14-.07.44-.07 1-.08 1.56-.16s1.2-.12 1.82-.22l1.88-.32c.64-.11 1.23-.29 1.87-.42.64-.13 1.2-.36 1.81-.56.61-.2 1.16-.46 1.74-.71.58-.25 1.13-.55 1.68-.87a18 18 0 0 0 1.61-1 26.19 26.19 0 0 0 3-2.4c.45-.44.87-.84 1.26-1.25.39-.41.72-.81 1-1.12.28-.31.53-.63.7-.8l.27-.33z" id="Shape" fill="#6F6F6E"/><path d="M139.59 63.54c5.14-7.79 16.64-9.47 21.11-9.82-.16.19-.35.44-.6.69-.25.25-.63.74-1 1.12-.37.38-.81.81-1.26 1.25a26.19 26.19 0 0 1-3 2.4 18 18 0 0 1-1.61 1c-.55.32-1.12.59-1.68.87-.56.28-1.16.49-1.74.71-.58.22-1.19.4-1.81.56-.62.16-1.23.31-1.87.42l-1.88.32c-.62.09-1.25.15-1.82.22-.57.07-1.11.11-1.56.16-.45.05-.87 0-1.14.07l-.14.03z" id="Shape" fill="#575756"/><path d="M174.21 55.44l-16.82-.14a11.07 11.07 0 0 0-7.87 2.65c-6.07 4.68-6.72 10.25-4.78 16.85.85 2.89 16.7 5 18.88 5.81v.11l163 65.07V49.43l-152.41 6.01z" id="Shape" fill="#0F7D61"/><path d="M328.05 146.06c1.15-1.6-8.87-6.6-7.9-9.12a30 30 0 0 1-13.67-10.75c-12-16.32-11.87-42.81.26-59.17 4.9-6.61 11-10.55 17.36-11.83 0-2.49 10.47-4.39 10.47-6.67-25.46 2.32-27.74 7.11-34.39 15.79-14.5 18.91-12.29 50.23 1.59 69.43 4.99 6.92 19.34 11.97 26.28 12.32z" id="Shape" fill="#4FCB8E"/><g id="Group" transform="translate(296 48)"><path d="M62.35 14.82c14 19.09 13.89 50.08-.31 69.21-14.2 19.13-37.08 19.18-51.1.09C-3.08 65.03-2.95 34 11.25 14.9c14.2-19.1 37.08-19.17 51.1-.08zm-4 64.19c12.14-16.36 12.25-42.85.27-59.16-11.98-16.31-31.55-16.29-43.68.07-12.13 16.36-12.26 42.85-.26 59.17s31.54 16.29 43.68-.08h-.01z" id="Shape" fill="#7DEFB8"/><path d="M58.35 79c12.14-16.36 12.26-42.85.26-59.17s-31.54-16.29-43.68.08C2.79 36.28 2.68 62.76 14.66 79.07 26.64 95.38 46.22 95.38 58.35 79z" id="Shape" fill="#F5F5F5"/></g><path d="M312.64 129.53c12.08 13.82 30.22 13 41.71-2.51 9.22-12.43 11.5-30.7 6.81-45.92-12.07-13.82-30.22-13-41.72 2.51-9.22 12.39-11.49 30.7-6.8 45.92z" id="Shape" fill="#FFF"/><path d="M337 68.85a3 3 0 0 0-4.95 0c-.41.52-10 12.82-10 28.44 0 15.62 9.59 27.93 10 28.44a3 3 0 0 0 4.95 0c.41-.52 10-12.82 10-28.44 0-15.62-9.55-27.92-10-28.44z" id="Shape" fill="#575756"/><path d="M204.58 54.65c-3.33 2.39-11-3.14-7.35-6.37a3.87 3.87 0 0 1 2.92-1.14 13.42 13.42 0 0 0 3.46-.81c1.06-.27 2.07-.32 3.13-.59 1.06-.27 5-1.86 6.13-1.67 3 .51.41 4.89-1.38 7-1.32 1.58-4.66 5.18-6.93 3.56a.23.23 0 0 0-.05.28" id="Shape" fill="#FFD43B"/><path d="M230.05 53.25l9.23-.38c0-3-.94-6.3-3.42-8.15-2.48-1.85-7.28-5.05-10.4-3.6-2.78 1.29-5.76-.47-8.28 1.61-.86.71-2.35.31-3.36.57a17.37 17.37 0 0 0-3.69 1.5c-5.64 2.95-8.77 9-6.38 15.11 1.17 3 6.08 2.8 5-1.34-.56-2.16 2.2-4.34 2.7-3.75.5.59-.21.89-.26 3.3-.1 5.69 5.37 4.28 5.41.87 0-3.75 1.5-4.87 4.33-5.21-2.87 2.54-4 7.49-.08 7.65 3.23.14 2.12-1.91 3.62-4.19.64-.94 3.98-4.24 5.58-3.99z" id="Shape" fill="#FFE066"/><path d="M157.25 104.1l-.73.19c-.48.11-1.18.31-2.08.48-.9.17-2 .43-3.23.62s-2.65.46-4.19.65c-1.54.19-3.2.44-5 .58-1.8.14-3.61.38-5.53.46-1.92.08-3.9.28-5.92.29l-6.11.12-6.11-.12c-2 0-4-.2-5.92-.29-1.92-.09-3.77-.29-5.53-.46-1.76-.17-3.42-.37-5-.59-1.58-.22-2.94-.43-4.19-.65-1.25-.22-2.33-.44-3.23-.62-.9-.18-1.6-.37-2.08-.48l-.74-.2v-1a72 72 0 0 0 10.23.54l22.52-.09 22.52.09 10.23.11.09.37z" id="Shape" fill="#F9DA3E"/><path d="M83.83 109.44a5.93 5.93 0 0 0 2.74-1.57c.31-.31.64-.66 1-1 .36-.34.66-.8 1-1.23.34-.43.65-.91 1-1.4.35-.49.61-1 .86-1.52l.41-.78.34-.8a11.86 11.86 0 0 0 .57-1.59c.121-.51.205-1.028.25-1.55l.15-.72.06-.68c0-.44.09-.84.1-1.2v-.93a1.85 1.85 0 0 0-.36-1 .1.1 0 0 1 .1-.1.09.09 0 0 1 .09.05s.15.28.36.8c.091.418.212.829.36 1.23.109.424.185.855.23 1.29l.1.76v.81a7.75 7.75 0 0 1-.19 1.79 9.34 9.34 0 0 1-.47 1.82l-.34.91-.09.77a18.41 18.41 0 0 1-1 1.64c-.36.504-.754.982-1.18 1.43a10.85 10.85 0 0 1-1.27 1.17 7.15 7.15 0 0 1-1.11.81c-.8.51-3.08.67-3.61.85-.26.1.38 0 .23.06h-.23a.1.1 0 0 1-.08-.17l-.02.05z" id="Shape" fill="#F9DA3E"/><path d="M100.18 104.79s3.66 7.62 4.81 8.19c1.15.57 5-5.89 5.46-8.19.46-2.3-10.63-.73-10.27 0z" id="Shape" fill="#FFF"/><path d="M107.9 103.61c.17 4.14-3.32 6.81-4.36 7.5A6.23 6.23 0 0 0 105 113c1.15.57 5-5.89 5.46-8.19.14-.81-1-1.12-2.56-1.2z" id="Shape" fill="#F5F5F5"/><path d="M156.25 103.1l-.74.19c-.48.11-1.18.31-2.08.48-.9.17-2 .43-3.23.62s-2.65.46-4.19.65c-1.54.19-3.2.44-5 .59-1.8.15-3.61.38-5.53.46-1.92.08-3.9.28-5.92.29l-6.11.12-6.11-.12c-2 0-4-.2-5.92-.29-1.92-.09-3.77-.29-5.53-.46-1.76-.17-3.42-.37-5-.59-1.58-.22-2.94-.43-4.19-.65-1.25-.22-2.33-.44-3.23-.62-.9-.18-1.6-.37-2.08-.48l-.74-.2v-.4l10.23-.11 22.52-.09 22.52.09 10.23.11.1.41z" id="Shape" fill="#575756"/><path d="M116.8 78.4c-1.22 4.34-6.23 5.46-14.13 3.24-7.9-2.22-14-7.69-12.76-12 1.24-4.31 7.74-6.29 15.64-4.07 3.38 1 5.71 3.83 7.68 5.89 2.91 2.99 4.27 4.46 3.57 6.94z" id="Shape" fill="#FFF"/><path d="M113.39 69.94c-2-2.06-4.61-5.14-8-6.1-7.9-2.22-14.45.13-15.67 4.47a4.55 4.55 0 0 0 0 2.47 4.25 4.25 0 0 1 .15-1.18c1.22-4.34 7.74-6.29 15.64-4.07 3.38 1 5.71 3.83 7.68 5.89 2.65 2.76 4 4.22 3.7 6.34.74-2.48-.6-4.76-3.5-7.82z" id="Shape" fill="#FFD43B"/><path d="M103.67 65.09c-.43-.09-.85-.17-1.27-.23h-.2c-.46-.06-.91-.12-1.36-.15h-.07c-.48 0-1-.06-1.42-.06a13.32 13.32 0 0 0-1.68 5.9 34.66 34.66 0 0 0 1.71 9.95c1.074.46 2.176.85 3.3 1.17.83.23 1.62.42 2.39.58 2.78-1.33 5.19-4.75 5.53-11a14.29 14.29 0 0 0-.11-2.64c-.28-.26-.57-.52-.86-.77l-.39-.32-.37-.29c-.25-.19-.52-.37-.79-.53l-.27-.17a10.52 10.52 0 0 0-.93-.49l-.19-.08a8.93 8.93 0 0 0-1.1-.4c-.53-.15-1.06-.28-1.58-.39l-.34-.08z" id="Shape" fill="#575756"/><path d="M125.78 68.51c-2.32-.29-7.81-.06-10.39 2.16-5.82 5-6.2 9.93-4.34 17 .81 3.09 1.36 4.57 4.56 6.06 0 .07 117.15 63.29 117.15 63.29L251 61.09l-125.22 7.42z" id="Shape" fill="#35AF7D"/><path d="M247 161.15c1.18-1.64-9.1-6.77-8.1-9.35a30.78 30.78 0 0 1-14-11c-12.3-16.74-12.18-43.92.27-60.7 5-6.78 11.3-10.82 17.8-12.13 0-2.55 10.74-4.51 10.74-6.84-14.28 0-25.35 6.15-34.38 17.19-12.87 15.74-13.5 50.54.73 70.23 5.07 7.06 19.79 12.24 26.94 12.6z" id="Shape" fill="#4FCB8E"/><g id="Group" transform="translate(214 61)"><path d="M64.06 14.75c14.39 19.58 14.25 51.37-.32 71-14.57 19.63-38 19.67-52.43.09-14.43-19.58-14.25-51.38.32-71C26.2-4.78 49.67-4.83 64.06 14.75zM60 80.61c12.45-16.78 12.57-44 .27-60.7C47.97 3.21 27.86 3.2 15.42 20 2.98 36.8 2.85 64 15.15 80.7c12.3 16.7 32.36 16.71 44.81-.08l.04-.01z" id="Shape" fill="#7DEFB8"/><path d="M60 80.61c12.45-16.79 12.57-44 .27-60.7C47.97 3.21 27.86 3.2 15.41 20 2.96 36.8 2.84 64 15.14 80.7c12.3 16.7 32.37 16.69 44.86-.09z" id="Shape" fill="#F5F5F5"/></g><path d="M231.16 144.19c12.39 14.17 31 13.31 42.79-2.58 9.46-12.75 11.79-31.49 7-47.1-12.38-14.18-31-13.32-42.79 2.58-9.47 12.74-11.81 31.49-7 47.1z" id="Shape" fill="#FFF"/><path d="M256.19 81.94a3.1 3.1 0 0 0-5.07 0c-.42.53-10.25 13.15-10.25 29.18s9.84 28.65 10.25 29.18a3.1 3.1 0 0 0 5.07 0c.42-.53 10.26-13.15 10.26-29.18s-9.84-28.65-10.26-29.18zM83.83 109.32a16.77 16.77 0 0 0 2.17-1.93c.31-.31.64-.66 1-1 .36-.34.66-.8 1-1.23.34-.43.65-.91 1-1.4.35-.49.61-1 .86-1.52l.41-.78.34-.8c.214-.54.387-1.095.52-1.66.164-.5.291-1.011.38-1.53l.15-.72.06-.68c0-.44.09-.84.1-1.2v-1.74a.1.1 0 0 1 .1-.1.09.09 0 0 1 .09.05s.15.28.36.8c.1.26.23.58.34 1 .109.424.185.855.23 1.29L93 97v.81a7.75 7.75 0 0 1-.18 1.75 9.34 9.34 0 0 1-.47 1.82l-.34.91-.41.88a18.4 18.4 0 0 1-1 1.64c-.36.504-.754.982-1.18 1.43a10.84 10.84 0 0 1-1.27 1.17 8.84 8.84 0 0 1-1.25.89 9.48 9.48 0 0 1-2.08 1 5.18 5.18 0 0 1-.64.18h-.23a.1.1 0 0 1-.11-.07.1.1 0 0 1-.01-.09z" id="Shape" fill="#575756"/><path d="M38.31 84.66c2-.15 4.06 0 5.93-.28a27 27 0 0 0 5-1.25 18.27 18.27 0 0 0 4.08-2.83.26.26 0 0 0-.12-.3 12.44 12.44 0 0 0-1.45-.38c-1-.062-2-.062-3 0a27 27 0 0 0-5.18.18c-1.87.29-3.81 1-5.78 1.36l-.3.07c-.23 1.33-.39 2.52-.49 3.58l1.31-.15zm2.57-11.38a22.25 22.25 0 0 0 4.74 0A21.57 21.57 0 0 0 49 72.7c.449-.115.89-.259 1.32-.43a.22.22 0 0 0 .11-.08.26.26 0 0 0-.05-.36 10.57 10.57 0 0 0-1.19-.73A21.09 21.09 0 0 0 46 69.71a22.43 22.43 0 0 0-4.61-1.09h-.51a81.013 81.013 0 0 0-1.46 4.42c.52.08.99.18 1.46.24z" id="Shape" fill="#F9DA3E"/><path d="M53.26 80.25A12.55 12.55 0 0 1 52 81a25.2 25.2 0 0 1-3.48 1.5 27 27 0 0 1-5 1.25c-1.87.23-3.92.13-5.93.28-2.01.15-4 .27-5.93.35-1.93.08-3.67.15-5.18.2-3 .11-5.07.13-5.07.13a.23.23 0 0 1-.06-.45s2-.55 4.91-1.27c1.47-.37 3.19-.81 5-1.23 1.81-.42 3.82-.86 5.79-1.29 1.97-.43 3.92-1.07 5.78-1.36a27 27 0 0 1 5.17-.18 25.22 25.22 0 0 1 3.75.48c.49.097.975.224 1.45.38a.26.26 0 0 1 .06.45v.01zM21.67 65.72s1.85.11 4.61.37c1.38.12 3 .26 4.72.45 1.72.19 3.55.41 5.38.63 1.83.22 3.7.24 5.39.57a22.41 22.41 0 0 1 4.5 1.48 21.33 21.33 0 0 1 3.06 1.66c.391.252.765.529 1.12.83a.26.26 0 0 1 0 .37.23.23 0 0 1-.11.07 10.93 10.93 0 0 1-1.35.32 21.6 21.6 0 0 1-3.46.3 22.17 22.17 0 0 1-4.72-.43c-1.68-.38-3.4-1.13-5.17-1.63s-3.54-1-5.19-1.56c-1.65-.56-3.19-1-4.5-1.47-2.63-.86-4.38-1.5-4.38-1.5a.23.23 0 0 1 .09-.44l.01-.02z" id="Shape" fill="#6F6F6E"/><path d="M31.6 84.4c1.89-.08 3.91-.22 5.93-.35 2.02-.13 4.06 0 5.93-.28a27 27 0 0 0 5-1.25A25.2 25.2 0 0 0 52 81c.445-.23.876-.488 1.29-.77a.26.26 0 0 0 .09-.12S46.8 81.75 44.61 82c-5.87.8-23.48 2.47-23.48 2.47a.22.22 0 0 0 .22.21s2 0 5.07-.13c1.52 0 3.29-.05 5.18-.15zm-1.14-15.28c1.65.54 3.42 1 5.19 1.56 1.77.56 3.49 1.25 5.17 1.63a22.17 22.17 0 0 0 4.72.43 21.6 21.6 0 0 0 3.46-.3 10.93 10.93 0 0 0 1.35-.32.23.23 0 0 0 .11-.07.27.27 0 0 0 .05-.15s-6.38-.71-8.42-1.14c-5.23-1.09-20.65-4.92-20.65-4.92a.23.23 0 0 0 .14.29s1.74.64 4.38 1.5c1.31.47 2.85.98 4.5 1.49z" id="Shape" fill="#575756"/><path d="M40.53 94.07l2.63 2.08 2.1-.76c1.51-.58 3.12-.93 4.5-1.55a17.11 17.11 0 0 0 3.49-2.26A9.85 9.85 0 0 0 55 89.69a4.64 4.64 0 0 0 .7-1.81.27.27 0 0 0-.19-.41s.06.48-.72.49a16.39 16.39 0 0 0-3.06.36 17.06 17.06 0 0 0-4 1.29c-1.35.68-2.63 1.72-4 2.53-1.1.65-2.17 1.29-3.2 1.93z" id="Shape" fill="#F9DA3E"/><path d="M32.25 98.57s1.34-.94 3.38-2.25c1-.67 2.2-1.45 3.5-2.25 1.3-.8 2.67-1.64 4.06-2.47 1.39-.83 2.68-1.85 4-2.53a17.06 17.06 0 0 1 4-1.29 16.38 16.38 0 0 1 3.06-.36 9.34 9.34 0 0 1 1.25 0 .27.27 0 0 1 .19.41 8.91 8.91 0 0 1-.75 1A16.37 16.37 0 0 1 52.72 91a17.1 17.1 0 0 1-3.49 2.26c-1.37.62-3 1-4.5 1.55s-3 1.13-4.47 1.61c-1.47.48-2.78.93-3.94 1.31-2.32.8-3.88 1.27-3.88 1.27a.23.23 0 0 1-.28-.16.23.23 0 0 1 .09-.27z" id="Shape" fill="#6F6F6E"/><path d="M49.23 93.3a17.1 17.1 0 0 0 3.49-2.3 16.37 16.37 0 0 0 2.2-2.16 8.91 8.91 0 0 0 .75-1 .27.27 0 0 0 0-.1v-.09c0-.03-5.37 3.19-7.34 4.12-3.91 1.84-16.18 6.94-16.18 6.94a.2.2 0 0 0 0 .08.23.23 0 0 0 .28.16s1.57-.45 3.88-1.21c1.16-.37 2.51-.8 3.94-1.31 1.43-.51 3-1.05 4.47-1.61 1.47-.56 3.14-.89 4.51-1.52z" id="Shape" fill="#575756"/><path d="M163.46 80.38c-1.41-3.36-10.87 2.44-11.12 2.5-2.87.72.94-3.62 6.87-4.19 3.85-.37 5.19-5.87-1.75-5.25a17.79 17.79 0 0 0-9.46 3.44c-4.2-1.63 9.85-3.63 7.41-7.88-2.16-3.76-18.1 2.06-20.79 12.62-3 .25-5.19-10.44-10-8.26-3.3 1.5-2.62 4.32-1.06 6.35a13.71 13.71 0 0 1 2.71 8c-.15 2.43-2.58 5.67-3.19 8.13A192.61 192.61 0 0 0 119 116.6c-1 7.56-.9 14.25-5.16 20.92-6.54 10.26-20 19.19-32.54 15.08-2.26-.74-4.07-3.27-6-3.89-1.24-.4-3.56.24-4.81.37-7.3.76-15 2.08-21.57 5.5-5.08 2.64-11.56 10-6.18 15.61 10.63 11.07 23 16.47 38.63 17.91 16.24 1.5 30.93-1.88 42.44-13.95 8-8.39 13.25-18.89 17.49-29.58 2.72-6.84 3.42-14.37 3.74-21.66.14-3.167.18-6.337.12-9.51 0-.82-.53-3.18-.13-3.92 6.31-3.06 9.09-9 10.57-15.49.46-2 0-5.12 1.34-6.75 2.45-2.86 8.14-2.99 6.52-6.86z" id="Shape" fill="#FFE066"/><path d="M110.06 179.74c-6.16 3.08-9.29 3.21-15.48 3.08C83.44 181.6 79.5 178.4 77.5 169c-2.18-10.24 2-14.49 4.75-16.11a15.85 15.85 0 0 1-3.06-1.14c-1.24 2.53-4 7-10.19 14.57-5.46 6.7-10.85 10.89-15.85 13.14l.29.18.18.11 1.33.76.37.2 1.21.63.38.19c.527.26 1.077.523 1.65.79l.4.18 1.48.64.53.22c.64.26 1.3.52 2 .77l.29.1c.61.22 1.25.43 1.9.64l.65.21c.69.21 1.39.42 2.12.62l.27.08c.81.22 1.65.42 2.5.62l.74.16c.713.16 1.447.31 2.2.45l.61.12a95.77 95.77 0 0 0 2.87.47l.73.1c.807.107 1.63.207 2.47.3l.82.09c1.06.1 2.14.19 3.25.25h.59c.96.053 1.937.09 2.93.11h4.69c31.5-.75 44.25-32.5 49-44.5.16-.39.3-.8.45-1.21l.14-.42c.09-.28.19-.56.27-.85.08-.29.1-.35.15-.52.05-.17.15-.53.22-.8l.14-.57c.07-.26.13-.53.19-.79l.14-.6c.06-.27.12-.54.17-.81l.12-.61.16-.84.11-.62.14-.87.09-.6c0-.31.09-.62.13-.93l.07-.55c.047-.34.09-.673.13-1 0-.15 0-.31.05-.46.047-.393.09-.787.13-1.18v-.31c.3-3.09.46-6.15.54-8.91-6.26 34.99-16.98 50.19-35.08 59.24z" id="Shape" fill="#FFD43B"/><path d="M18.41 134.05s-2.37 19.27 4.33 29.5c6.84 10.43 9.81 14.6 15 16.75 7.91 3.27 19.41.53 31.25-14s11.17-17.58 11.17-17.58-20.58-19.25-20.08-26.5S43.93 103 33 107.5c-5.83 2.37-13.17 12.05-14.59 26.55z" id="Shape" fill="#005DB4"/><path d="M67.59 133.89c-6.19-6.95-6.07-7.26-6.66-8.84-.43-1.12-.62-1.47-.61-1 .107.383.234.76.38 1.13 3.13 8 15.73 16.94 19.45 23.51.39.69.15.7-1 3a16.21 16.21 0 0 0 3.85 1.36c.31-8.55-10.55-13.7-15.41-19.16z" id="Shape" fill="#004586"/><path d="M162.54 84.28v.23a.18.18 0 0 0 0-.23z" id="Shape" fill="#0F7D61"/><path d="M155.62 94c.46-2 0-5.12 1.34-6.75 2.36-2.78 7.73-3 6.62-6.51-.89 3-2.19 2.07-5.68 4-1 .54-4.58 1.17-4.75 8.54-.17 7.67-8 16-8 16v.06c6.25-2.98 9-8.87 10.47-15.34zm-3.06-22c-5.25 2.47-5.42 4-5.31 4.12.26-1.51 10.16-3.49 8.21-7.09-.46.69-.15 1.72-2.9 2.97zm7.13 5.54c-3.46.25-8.52 3.35-8.25 4.86.5-1.06 3.61-3.31 7.77-3.71 2.48-.23 3.9-2.59 2.77-4.08 0 0-.8 2.82-2.29 2.93zm62.46-18.2c-1.42 1.5-3.27-.17-3.78-.69a2.38 2.38 0 0 0 2.5 2.78c3.23.14 2.12-1.91 3.62-4.19.53-.81 3.09-3.34 4.81-3.89-4.75.32-5.5 4.25-7.15 5.99zm-5.53-.34c0-3.59 1.38-4.77 4-5.16a3.24 3.24 0 0 0-2.4.34c-1.37.71-1.67 1.71-2.67 4.29-.91 2.35-3.67 1.36-4.17 1.16.8 3.85 5.2 2.37 5.24-.63zm-5.53-4.27a1.41 1.41 0 0 0-.74 0c-2 .71-2.25 2.83-2.54 3.92a2.31 2.31 0 0 1-2.17 2.08 2 2 0 0 1-2-1.08c0 .08 0 .15.08.23 1.17 3 6.08 2.8 5-1.34-.43-1.8 1.47-3.64 2.37-3.81z" id="Shape" fill="#FFD43B"/><path d="M182.84 204s.66 1.68-2.84-23.68c-.21-1.55-.44-3.07-.67-4.58-1.07 13.92-4.28 27.76-29.93 38-27.11 10.85-69 20.75-123.75-3.5-30-13.28-13.9-83.86-12.15-91.13a103.22 103.22 0 0 0-5.83 12.2c-8.53 21.34-7.34 65.55-4.79 71.92 2.21 16.67 43.24 30 93.54 30 51.71-.02 86.42-11.91 86.42-29.23z" id="Shape" fill="#004586"/><path d="M113.89 72.11l-.65-.68c-2-2.06-4.3-4.94-7.68-5.89-7.9-2.22-14.42-.27-15.64 4.07A5.62 5.62 0 0 0 91 74.28c2.06-1.52 5.45-3.44 9.09-3.09 3.9.37 8.35.58 12.28 2.74a16.31 16.31 0 0 1 1.52-1.82z" id="Shape" fill="#1D1D1B" opacity=".05"/></g></g></svg>