<svg xmlns="http://www.w3.org/2000/svg" xmlns:xlink="http://www.w3.org/1999/xlink" width="276" height="432" viewBox="0 0 276 432"><defs><path id="cat5_love-a" d="M57.985 21.698c4.304-7.13 14.019-14.713 24.431-13.18 11.206 1.65 17.47 10.323 19.964 20.854 2.947 12.443-.24 25.562-2.778 37.784-2.863 13.789-6.276 27.442-10.369 40.914-.242.797-.914 1.09-1.703 1.028-3.101-.019-6.39-.25-9.407-1.07-11.462.215-23.314-3.24-33.56-8.051-17.344-8.145-41.606-27.425-31-49.324 4.39-9.063 15.606-12.656 23.84-12.656 8.233 0 14.218 3.094 20.582 9.877-3.722-10.212-4.303-19.046 0-26.176z"/><path id="cat5_love-c" d="M48.618 3.501c-3.807-.282-7.796 1.215-11.154 2.88-2.601 1.29-4.96 3.03-6.502 5.445C28.766 5.88 23.5.982 17.116.127 10.754-.725 3.852 2.761 1.298 8.783c-3.158 7.444.043 17.063 3.247 23.96 1.902 4.095 4.287 7.956 6.87 11.65 2.173 3.11 4.655 7.338 7.79 9.516.268.186.638.066.84-.172.197.031.413 0 .634-.13 8.56-4.963 17.505-9.59 25.697-15.15 6.503-4.413 11.33-10.943 12.45-18.87.986-6.983-2.19-15.492-10.208-16.086z"/><path id="cat5_love-e" d="M30.54 10.967c1.01 3.994-.809 8.018-2.254 11.616-1.557 3.877-3.242 7.7-5.002 11.484a.527.527 0 0 0-.045.32h-.005c-1.534-.854-3.257-1.373-4.848-2.117a42.63 42.63 0 0 1-4.698-2.57c-3.106-1.963-6.211-4.4-8.496-7.32-2.213-2.827-3.556-7.6.086-9.866 3.47-2.158 7.365-.052 10.086 2.378.487.435 1.136-.147.892-.646a.327.327 0 0 0 .016-.068c.402-3.391 2.25-6.908 5.644-8.012 3.79-1.231 7.63.877 8.623 4.801z"/></defs><g fill="none" fill-rule="evenodd"><g transform="translate(39 42)"><mask id="cat5_love-b" fill="#fff"><use xlink:href="#cat5_love-a"/></mask><use fill="#FF8787" xlink:href="#cat5_love-a"/><path fill="#000" fill-opacity=".1" d="M6.608 66.072C41.103 94.568 71.9 99.551 99 81.019c27.1-18.531 9.758.276-52.025 56.423L6.608 66.072z" mask="url(#cat5_love-b)"/></g><g fill-rule="nonzero"><path fill="#1D1D1B" d="M189 401.34l.29 14.56s5.76 7.23 19.26 13.17c15.09 6.64 35.41-2.33 26.62-9.38-8.79-7.05-26.62-13-26.62-13L189 401.34z" opacity=".03"/><path fill="#FFE066" d="M228.07 318.33l-31.58-4.08-60 1.63s-12.64 3.4-13.42 5.54a10.93 10.93 0 0 1-4.72 5.7 1.55 1.55 0 0 0-.45.21 5.56 5.56 0 0 1-.45 3.63c1.25 2.15 3.72 4.17 4.77 6.65 1.83 4.33.52 15.63 2.34 26.68v.41c.63 3.56 5.15 29.51 4 34.48-1.4 4.1-2.81 9.29-2.81 9.29l27 1.67a10.34 10.34 0 0 0-1.43-4.32c-.75-1-.79-3.22-1.17-5.5.32-2.86 2.07-18.45 2.92-24.23.4-2.71 1.23-6.52 2.09-10.05.31-1.11.67-2.35.76-2.9 1-3.17 2.39-7 4.25-11.65 4.67 1.5 16.09 2.08 24.42.33.54 2-1.12 40.78-.8 45.71a41.09 41.09 0 0 0 2.81 14.06 9.05 9.05 0 0 0 4.9 5.76c4.79 1.93 8.27 1.55 9.52 1.18 1.25-.37 3.79-1.74 2.55-6.84-.51-2.07-2.74-4.61-5.3-6.32a5.2 5.2 0 0 1 3.56-.9h.4a8.13 8.13 0 0 1 4.65-1.15c-.83-2.57 3.31-15.9 6.81-26.43 1.27-3.64 2.73-7.91 4.18-12.31v-.12c3.23-9.8 6.41-20.19 7.29-25.5a1 1 0 0 0 .07-.79c-.79-2.34-.55-5.85 1.2-7.77.12-.14.25-.26.38-.39v-.09a14.35 14.35 0 0 1 0-6c.51-2.53 1.26-5.59 1.26-5.59z"/><path fill="#1D1D1B" d="M139.26 404.44s-16.6 6.21-15.35 10.55c1.77 6.13 4.57 9.86 11.24 14.27 8.55 5.66 33.63-.56 26.62-9.38C154 410.15 151.9 409 151.9 409l-12.64-4.56z" opacity=".03"/><path fill="#FED64F" d="M249.7 303.46l-.59 1 .59-1zm1.39 9.04c.34-.5-3.35-6-3-6.43-.34.45 3.35 5.93 3 6.43zm-.64-10.33c-.19.34-.4.71-.63 1.08.18-.37.44-.73.63-1.08zm-2.18 3.57l.64-1-.64 1z"/><path fill="#FFE066" d="M113.18 315.06c-2.65-.08-4.2 1-7-.34a4.24 4.24 0 0 1-2.11-4.62c1.26-.52 3.07.56 3.95 1.36 2 1.79 3.93 4.32 6.87 2.6 2.18-1.28 2-4.32.88-6.24-2-3.43-5.82-5.76-9.19-7.7-1.72-1-3.61-1.64-5.38-2.53-1.33-4.66-1.54-10.43-1.3-15.74A78.94 78.94 0 0 1 98.63 264l-1.46-1.15a138.59 138.59 0 0 1-12.26-8.17c-2.61 5-7.16 18.71-2.7 48.48a10 10 0 0 0 .13 1.25c.25 10.71 5.23 23.77 13.18 31.44 1.86 1.79 6.36 2.35 7.86-.22a3.45 3.45 0 0 0 .24-3.17c3.24.88 6.55.69 9.17-1.85 2.46-2.38.76-3.66-1.83-4.46 3.81-1 7.16-2.86 7.16-7.05.01-2.84-2.55-3.98-4.94-4.04zm140.95-47.6c.55 6.87.87 14 .85 20.44-.05.34-.11.68-.17 1a22.5 22.5 0 0 0-.38 1.91c-.02.2-.02.4 0 .6-.14.4-.26.77-.37 1.13l-.12.38-.19.64-.15.52-.08.3c-.31 1.13-.59 2.16-1 3.26v.11c-.1.29-.21.58-.33.87l-.06.14c-.13.33-.28.67-.44 1a52.05 52.05 0 0 1-4.57 7.69 25.68 25.68 0 0 0-6.85 3.36c-3.79 3-6.84 6.73-8.07 11.24-.16.11-2.65 7.86-.43 9.9h-.16a2.7 2.7 0 0 0-1.9.91 1.94 1.94 0 0 0-.23.22c-.72.75-1.32 5.06 1.6 5.53.25 0 .49.13.73.19a2.55 2.55 0 0 0-.48 2.19c.87 4.1 6.17 4.21 11.49 3.07a2.33 2.33 0 0 0 1.63 3.17c4.52.74 7.66-2.89 10.17-6.21l.09-.12a20.58 20.58 0 0 0 4.64-5.82A9.15 9.15 0 0 0 261 332c.06-.202.093-.41.1-.62l.37-.85a28 28 0 0 0 2.29-8c.07-.65.16-1.29.25-1.94a38 38 0 0 0 2.37-9.07c.47-1.22.94-2.5 1.42-3.83 5.37-14.89 5.76-43.71 5.37-52.39-3.08 3.02-10.07 9.09-19.04 12.16zm-9 61.77l-.09.06c-.48.26-1 .51-1.46.79a37.79 37.79 0 0 1-6 1.18c1.53-1.54 1.75-3.78 2.7-5.87 1.25-2.77 4.62-5.79 6.82-1.67.1.19.18.36.25.54a19.37 19.37 0 0 0-2.22 4.97z"/><path fill="#3935B9" d="M133.31 203.06zm3.35 1.76zm3.01 1.39zm-8.99-4.73c.533.333 1.07.667 1.61 1a36.065 36.065 0 0 1-1.61-1zm-3.08-2.07c.667.493 1.367.973 2.1 1.44a73.185 73.185 0 0 1-2.1-1.44zm97.06-3.85l-.85.77.85-.77z"/><path fill="#005DB4" d="M269.38 224.45c-8-22-29.05-39.21-34.41-43.31a45.3 45.3 0 0 1-9.57 13.7l.32-.31c-14.79 14.72-38.2 17.08-59.63 17.08a66 66 0 0 1-38.78-12.41 61.25 61.25 0 0 1-7.5-6.43C102 201.85 76.92 246 80.8 250.87c3.06 3.82 13.2 10.13 17.84 12.81v-.47c.09-1.66.23-3.33.45-5a97.59 97.59 0 0 1 8.28-27.44c2.94-6.42 6.69-10.68 9.8-15.55 0 0 .16-.33.36-.3a.26.26 0 0 1 .25.22 42.36 42.36 0 0 0-2.41 3.81c-13.76 26.78-11.76 44.65-11.79 45.23v6.26c0 .4.06 1.06.1 1.59.04.53.09 1.14.14 1.71a50.765 50.765 0 0 0 .27 2.46c.05.37.12.94.19 1.4.07.46.1.69.15 1 .11.71.23 1.43.36 2.13v.15a98.88 98.88 0 0 0 3.95 14.61l.29.16c3.95 2.27 8.38 5.06 11 9.49a10.68 10.68 0 0 1 1.21 7.93c0 .13-.07.25-.11.38a8.53 8.53 0 0 1 1.9 5.48 11.57 11.57 0 0 1-.4 3.05c7.56 2.6 34.54 8 56.05 8 2.39 0 4.64-.07 6.69-.21 12.1-.81 27.81-4.83 42.43-10.83a27.47 27.47 0 0 1 9.26-12.13 26.49 26.49 0 0 1 6.69-3.55c3.39-5.1 3.92-7 4.69-9.79.25-.89.52-1.88.9-3 0-.16 0-.32.06-.48.12-.72.26-1.43.42-2.13l.07-.42a257.35 257.35 0 0 0-1.71-28.9c-1.1-9.57-1.92-19.62-3-24-1.72-6.67-3.6-14.31-8-22.23 0 0-.36-.62-.17-.81.37-.37 1 1.38 1.35 2 4.27 7.82 7.38 16.32 9.61 22.1.12.31.24.66.36 1 .12.38.25.78.37 1.2l.05.18c.25.88.5 1.86.74 2.92v.24c.37 1.64.73 3.48 1.08 5.47 1 6 3 13.51 3.56 21.26v-.41c12.21-4.18 20.75-13.92 20.75-13.92s3.67-3.75-5.5-29.09z"/><path fill="#1C1171" d="M243.34 223.66v.01z"/><path fill="#004586" d="M90.52 250.7c-3.75 1.11-7.19-1.71-9.51-4.83-.7 2.46-.82 4.23-.21 5 3.06 3.82 13.2 10.13 17.84 12.81v-.47c.09-1.66.23-3.33.45-5a92.32 92.32 0 0 1 5.71-21.37c-4.14 5.95-9.8 12.54-14.28 13.86zm66.16 59.66c-34.2-1-46.73-29.86-53.12-43.1v3.21c0 .4.06 1.06.1 1.59.04.53.09 1.14.14 1.71a50.765 50.765 0 0 0 .27 2.46c.05.37.12.94.19 1.4.07.46.1.69.15 1 .11.71.23 1.43.36 2.13v.15a98.88 98.88 0 0 0 3.95 14.61l.29.16c3.95 2.27 8.38 5.06 11 9.49a10.68 10.68 0 0 1 1.21 7.93c0 .13-.07.25-.11.38a8.53 8.53 0 0 1 1.9 5.48 11.57 11.57 0 0 1-.4 3.05c7.56 2.6 34.54 8 56.05 8 2.39 0 4.64-.07 6.69-.21 12.1-.81 27.81-4.83 42.43-10.83a27.47 27.47 0 0 1 9.26-12.13 26.49 26.49 0 0 1 6.69-3.55c3.39-5.1 3.92-7 4.69-9.79.25-.89.52-1.88.9-3 0-.16 0-.32.06-.48.12-.72.26-1.43.42-2.13l.07-.42c0-7.53-.42-15.57-1.11-23-1.85 5-5.69 10.57-12.51 18.85-7.54 9.31-28.07 28.54-79.57 27.04zm92.01-72.44h.01z"/><path fill="#004586" d="M267.93 249.28c-5.56 3.75-13.91-3.63-19.24-11.36l.05.17c.25.88.5 1.86.74 2.92V241v.14c.37 1.64.73 3.48 1.08 5.47 1 6 3 13.51 3.56 21.26v-.41c12.21-4.18 20.75-13.92 20.75-13.92s1.83-1.88-.33-11.92a18.22 18.22 0 0 1-6.61 7.66z" opacity=".7"/><path fill="#FFD43B" d="M188.15 348.61c-.61-1.7-4.71 2.47-17.33 1.3-6.71-.62-10.67-2.16-12.59-2-1.35.1 2 3.6 2 3.6 4.67 1.5 16.08 2.08 24.41.33a7.34 7.34 0 0 0 3.51-3.23zm85.13-87.43c0-2.41 0-4.42-.11-5.86-3.08 3-10.06 9.08-19 12.14.55 6.87.87 14 .85 20.44-.05.34-.11.68-.17 1a22.5 22.5 0 0 0-.38 1.91c-.02.2-.02.4 0 .6-.14.4-.26.77-.37 1.13l-.12.38-.19.64-.15.52-.08.3c-.31 1.13-.59 2.16-1 3.26v.11c-.1.29-.21.58-.33.87l-.06.14c-.13.33-.28.67-.44 1a51.87 51.87 0 0 1-4.52 7.62s11.19-8.94 11.81-22.37c.49-10.58-1.65-15.2 1.69-16.25a35.09 35.09 0 0 0 12.57-7.58zM99.95 281.85A78.94 78.94 0 0 1 98.63 264l-1.46-1.15a138.59 138.59 0 0 1-12.26-8.17 29.27 29.27 0 0 0-1.75 4.25l9.6 6.8s2.56 1 3.19 4.88c.29 1.8 3.35 25.81 5.3 27-1.33-4.68-1.54-10.45-1.3-15.76z"/><path fill="#FFD43B" d="M101.24 297.59c.118.076.246.137.38.18l-.38-.18zM209 408a9.42 9.42 0 0 0-7.15-3.55 5.2 5.2 0 0 0-3.56.9c2.56 1.71 4.79 4.24 5.3 6.32 1 4-.35 5.67-1.58 6.41a9 9 0 0 0 6.68-.12c3.75-1.74 2.51-7.46.31-9.96z"/><path fill="#F9C930" d="M209.52 403.72c-3.9-.87-5.82 0-7.25.8A9.32 9.32 0 0 1 209 408c1.63 1.87 2.74 5.55 1.62 8a4.68 4.68 0 0 0 3.85-2.54c1.45-2.71-2.2-9.13-4.95-9.74z"/><path fill="#FFD43B" d="M189.27 412.55c-2.65-2.89-5.44-12.81-5.44-16.17a41.57 41.57 0 0 0 2.82 15.22 9.05 9.05 0 0 0 4.9 5.76c4.79 1.93 8.27 1.55 9.52 1.18l.37-.13c-5.27.27-7.63-.92-12.17-5.86z"/><path fill="#F9C930" d="M208.71 418a3.86 3.86 0 0 0 1.93-1.94 8.1 8.1 0 0 1-6.95-.13 3.8 3.8 0 0 1-1.66 2.2 9 9 0 0 0 6.68-.13z"/><path fill="#FFE066" d="M94.4 110.55c4.75-2 13 3 13 3l16 7.78c-11.19 9.42-18.55 21.26-18.25 33.89 0 .78.027 1.55.08 2.31-8.84-11.26-13.54-25.71-14.08-28.23-.75-3.5-1.5-16.75 3.25-18.75z"/><path fill="#FFE066" d="M105.15 155.22c-.7-29.54 40.45-54.75 74.63-54.75 34.18 0 61.88 28.7 61.88 58.25s-27.7 55-61.87 55-73.39-6-74.64-58.5z"/><path fill="#FFD43B" d="M179.06 194.79c22.37 0 50.51-13.54 62.13-29.59-3.69 26.69-29.77 48.51-61.41 48.51-34.17 0-73.37-6-74.62-58.5-.17-7.36 2.25-14.46 6.52-21 1.63 51.63 33.43 60.58 67.38 60.58z"/><path fill="#FCE351" d="M123 121.7c-.62.53-1.22 1.07-1.81 1.61.54-.55 1.15-1.08 1.81-1.61zm-5.76 5.48c.53-.57 1.07-1.13 1.63-1.69-.56.51-1.1 1.11-1.63 1.69zm-3.24 3.77c.453-.58.92-1.157 1.4-1.73a99.84 99.84 0 0 1-1.4 1.73zm1.67-1.95c.49-.57 1-1.14 1.5-1.7-.51.51-1.01 1.08-1.5 1.7zm-10.52 26.22v-2.1c-.01.69-.02 1.39 0 2.1zm0 0c0 1.06.07 2.09.13 3.11a78.36 78.36 0 0 1-.13-3.11zm7.32-22.14zm-7.14 26.11zm13.84-34.01c.54-.54 1.093-1.07 1.66-1.59-.553.527-1.107 1.057-1.66 1.59zm-12.95 21.06c-.17.65-.32 1.3-.45 2 .13-.7.23-1.35.45-2zm.08-.32c.18-.667.377-1.313.59-1.94-.213.64-.41 1.287-.59 1.94zm-.89 4.44c.09-.68.19-1.36.32-2-.12.64-.23 1.32-.32 2zm-.22 2.38c.033-.667.09-1.333.17-2a40.44 40.44 0 0 0-.17 2zm4.75-15.63zm-1.17 2.24zM107 143.6c.22-.65.46-1.3.73-1.94-.25.64-.49 1.28-.73 1.94zm4.18-8.6zm-3.35 6.44z"/><path fill="#FFE066" d="M222.51 118.76a69.2 69.2 0 0 0-23.74-15.15c3.66-1.76 7.1-3.4 9.63-4.56 9.25-4.25 18.75-5.75 25.25-4.75s5.75 10 6.25 17.28c.31 4.45-3.22 14.56-6 21.74a67.69 67.69 0 0 0-11.39-14.56z"/><path fill="#6F6F6E" d="M116.48 170.33a9.07 9.07 0 0 0-1-.64 18.16 18.16 0 0 0-2.76-1.2 18.89 18.89 0 0 0-4-.93c-1.48-.14-3.1 0-4.69 0-1.59 0-3.18-.1-4.68-.1h-4.1c-2.4 0-4 .07-4 .07a.2.2 0 0 0 0 .4s1.55.41 3.89 1c1.17.28 2.53.6 4 .91 1.47.31 3 .63 4.59.94 1.59.31 3.11.81 4.58 1a19 19 0 0 0 4.1 0 18.23 18.23 0 0 0 3-.56 9 9 0 0 0 1.14-.39.23.23 0 0 0 .12-.31.23.23 0 0 0-.19-.19zm1.45 6.75a7.17 7.17 0 0 0-1-.41 12.85 12.85 0 0 0-2.48-.6 13.1 13.1 0 0 0-3.42-.07c-1.23.17-2.5.67-3.8.94-1.3.27-2.59.57-3.8.88-1.21.31-2.34.6-3.31.86-1.94.51-3.22.9-3.22.9a.2.2 0 0 0 0 .4s1.34.08 3.34.12c1 0 2.17.06 3.42.06h3.91c1.33 0 2.68.14 3.91 0a13.08 13.08 0 0 0 3.31-.87 12.87 12.87 0 0 0 2.27-1.17 7.26 7.26 0 0 0 .84-.62.24.24 0 0 0 0-.35l.03-.07zm2.44 6.76a6.1 6.1 0 0 0-.93-.15 10.1 10.1 0 0 0-2.25 0 9.81 9.81 0 0 0-2.86.77c-1 .46-1.86 1.24-2.85 1.82-.99.58-2 1.17-2.88 1.76-.88.59-1.75 1.14-2.47 1.62-1.45 1-2.39 1.64-2.39 1.64a.202.202 0 1 0 .16.37s1.14-.25 2.81-.7c.84-.22 1.82-.47 2.85-.78 1.03-.31 2.13-.65 3.23-1s2.27-.52 3.25-.94a9.81 9.81 0 0 0 2.47-1.64A10.1 10.1 0 0 0 120 185a6 6 0 0 0 .5-.79.26.26 0 0 0-.12-.35l-.01-.02z"/><path fill="#575756" d="M103.65 170.7c-1.56-.31-3.13-.61-4.59-.94-1.46-.33-2.83-.64-4-.91-2.34-.54-3.89-1-3.89-1a.2.2 0 0 1-.09-.33s13.61 2.18 18.16 2.7c1.82.21 7.3.25 7.3.25a.22.22 0 0 1-.12.21 9 9 0 0 1-1.14.39 18.23 18.23 0 0 1-3 .56 19 19 0 0 1-4.1 0c-1.42-.12-2.96-.63-4.53-.93zm13.49 7.4a12.87 12.87 0 0 1-2.27 1.17 13.08 13.08 0 0 1-3.31.88c-1.23.12-2.59-.06-3.91 0-1.32.06-2.66.06-3.91 0s-2.42 0-3.42-.06c-2 0-3.34-.12-3.34-.12a.2.2 0 0 1-.18-.14s11.32-.63 15.12-1.08c1.52-.18 6.13-1.46 6.13-1.46a.23.23 0 0 1-.06.21 7.26 7.26 0 0 1-.85.6zm-13.44 13.53s9-3.58 11.84-4.88c1.35-.61 5-2.77 5-2.77a.25.25 0 0 1 0 .25 6 6 0 0 1-.5.79 10.1 10.1 0 0 1-1.52 1.66 9.81 9.81 0 0 1-2.47 1.64c-1 .41-2.16.57-3.25.94-1.09.37-2.18.7-3.23 1-1.05.3-2 .56-2.85.78-1.67.45-2.81.7-2.81.7a.2.2 0 0 1-.21-.11z"/><path fill="#FFD43B" d="M94.4 110.55a5.66 5.66 0 0 1 .92-.28h.16a7.29 7.29 0 0 1 1-.13h1.01c.425.021.85.065 1.27.13-3.82 10.82.33 24 8.5 21.66 3.6-1 5.73-3.57 8.56-6.75.1 0 4.18-3.86 5.72-4.71l1.84.89c-11.19 9.42-18.55 21.26-18.25 33.89 0 .78.027 1.55.08 2.31-8.82-11.29-13.52-25.74-14.06-28.26-.75-3.5-1.5-16.75 3.25-18.75zM201 169.36s3.24 7.14-1 8.68c-.89.32-4.83-2.92-7.08-5.08s8.08-4.79 8.08-3.6zm-35.46 6.25s-1.15 7.1-4.7 8.54c-1.38.56-6.27-6.89-6.25-9.72.02-2.83 11.41.33 10.95 1.18z"/><path fill="#FFD43B" d="M209.75 162.82a6.54 6.54 0 0 1-1.06.57c-.46.18-.66 1.34-1.51 1.67-1.69.65-4.09 1.58-7 2.51-1.44.49-3 .95-4.67 1.42s-3.42.89-5.25 1.28-3.72.71-5.66 1c-1.94.29-3.87.48-6 .68l-6 .61c-2 .18-3.94.36-5.82.48-1.88.12-3.71.22-5.44.28-1.73.06-3.38.08-4.9.05h-2.19c-.7 0-1.36 0-2-.06-1.25-.06-2.32-.55-3.22-.59a4.28 4.28 0 0 1-2.9-1.58s.43 1.17.88 1.38c.45.21 3.65 1.91 4.88 2.44a19.27 19.27 0 0 0 4.22 1.32 58.66 58.66 0 0 0 10.75 1.23c2 .07 4 0 6.08-.07s4.14-.28 6.22-.47c2.08-.19 4.19-.46 6.24-.87a55.5 55.5 0 0 0 6-1.5 50.62 50.62 0 0 0 10-4.34c1.38-.78 2.53-1.76 3.58-2.49a22.1 22.1 0 0 0 3.65-3.5c.73-.56.54 0 .92-.27s.2-1.18.2-1.18z"/><path fill="#FFF" d="M203 168.36s-.58 8.75-1.25 9.41c-.67.66-5.83-3.42-8.08-5.58s9.33-5.02 9.33-3.83zm-35.46 6.25s-4.25 8.83-5.58 9.5c-1.33.67-5.83-6.83-6.33-9.5s12.37-.85 11.91 0z"/><path fill="#F5F5F5" d="M195.8 169.64c1.13 3.53 4.87 4.56 6.6 4.85a10.28 10.28 0 0 1-.69 3.29c-.67.67-5.83-3.42-8.08-5.58-.88-.85.37-1.79 2.17-2.56zm-37.21 3.6c-.2 4.8 3.85 7.89 5.05 8.7a7.22 7.22 0 0 1-1.64 2.17c-1.33.67-5.83-6.83-6.33-9.5-.21-.89 1.1-1.28 2.92-1.37z"/><path fill="#575756" d="M209.86 163l-.71.26-2 .77c-1.69.65-4.09 1.58-7 2.51-1.44.49-3 .95-4.67 1.42s-3.42.89-5.25 1.28-3.72.71-5.66 1c-1.94.29-3.87.48-6 .68l-6 .61c-2 .18-3.94.36-5.82.48-1.88.12-3.71.22-5.44.28-1.73.06-3.38.08-4.9.05h-2.19c-.7 0-1.36 0-2-.06l-3.22-.15c-1.81-.12-2.86-.16-2.86-.16l.69.31c.45.18 1.11.51 2 .82.89.31 1.91.72 3.14 1.07 1.23.35 2.63.77 4.18 1.08a58.66 58.66 0 0 0 10.75 1.23c2 .07 4 0 6.08-.07s4.14-.28 6.22-.47c2.08-.19 4.19-.46 6.24-.87a55.5 55.5 0 0 0 6-1.5 50.62 50.62 0 0 0 10-4.34c1.38-.78 2.59-1.59 3.65-2.31s1.94-1.41 2.66-2c.72-.59 1.25-1.06 1.62-1.38l.49-.54z"/><path fill="#575756" d="M218 171.63a3.76 3.76 0 0 1-.8-.25 5.81 5.81 0 0 1-.83-.5 11.93 11.93 0 0 1-1-.83 19.56 19.56 0 0 1-2.12-2.44 23.47 23.47 0 0 1-2-3.09 14.22 14.22 0 0 1-.8-1.69 11.88 11.88 0 0 1-.55-1.72 16.08 16.08 0 0 1-.36-3.19c-.021-.76.03-1.52.15-2.27a5.73 5.73 0 0 1 .13-.62l.05-.22a.14.14 0 0 0-.1-.17.14.14 0 0 0-.12 0h-.07l-.21.18a3.93 3.93 0 0 0-.52.58 5.48 5.48 0 0 0-.63 1 7 7 0 0 0-.55 1.42 8.8 8.8 0 0 0-.37 1.77l-.08.9v1.1c.073.741.228 1.472.46 2.18.224.713.515 1.403.87 2.06.17.32.41.68.62 1 .21.32.35.46.63.85.412.502.853.98 1.32 1.43a11.6 11.6 0 0 0 3 2.16c.466.248.96.439 1.47.57.41.113.834.17 1.26.17a2 2 0 0 0 .82-.12l.25-.1a.15.15 0 1 0 .06-.29l.02.13zm-71.45-7.36l-.17 2.36-.16 1.12A7.87 7.87 0 0 1 146 169l-.35 1.3-.53 1.28c-.17.43-.43.82-.63 1.23a9.63 9.63 0 0 1-.72 1.14c-.47.74-1 1.36-1.45 1.92l-1.49 1.84a.13.13 0 0 0 0 .18.12.12 0 0 0 .09 0h.11a5.77 5.77 0 0 0 .81-.16 7.37 7.37 0 0 0 .85-.26 6 6 0 0 0 1-.43 8.2 8.2 0 0 0 2.31-1.59 6.48 6.48 0 0 0 1-1.2c.327-.462.615-.95.86-1.46.21-.54.41-1.08.56-1.63a11.73 11.73 0 0 0 .2-1.62 6.19 6.19 0 0 0-.09-1.52 10 10 0 0 0-.3-1.33 6.76 6.76 0 0 0-.45-1 7.38 7.38 0 0 0-.44-.76 6 6 0 0 0-.48-.67l-.08-.09a.13.13 0 0 0-.22.08l-.01.02z"/><path fill="#FFD43B" d="M174.3 150.19c1-1.85-.36-.91 1.71-.66 3.13.37 2.4-.48 5.15-2 5.28-2.84 7.85 5.37 6.21 9-2.11 4.62-5.1 7.32-10.54 5.93-3.57-.91-7.92-7.13-5.77-10.92 1.49-2.63 2.15.57 3.24-1.35z"/><path fill="#6F6F6E" d="M171.34 150.94a5.15 5.15 0 0 1 5.16-2.52c3.13.37 2.4-.48 5.15-2 5.28-2.84 7.85 5.37 6.21 9-2.11 4.62-5.1 7.32-10.54 5.93-3.57-.91-8.13-6.62-6-10.41h.02z"/><path fill="#575756" d="M171.83 150.23c4.4 8.92 7.25 9 16 5.34-2.1 4.53-5.09 7.15-10.46 5.78-3.57-.91-8.13-6.62-6-10.41l-.12.22.12-.22.42-.75-.42.75a5.09 5.09 0 0 1 .46-.71z"/><path fill="#FFD43B" d="M198.88 103.55l4.06-1.95s5.39 1.88 5.33 1.9a73.52 73.52 0 0 1 17 12.38c1.68 1.63 1.73 2.35 3.38 1.88 4.5-1.29 4-10 3.78-13.38-.22-3.38-.2-7.14-.75-10.29.55 0 1.07.1 1.59.17h.37c6.5 1 5.75 10 6.25 17.28.29 4.25-2.9 13.63-5.61 20.72a64.44 64.44 0 0 0-35.4-28.71zm12.33 22.02c17.25 3.5 18.5 5.74 18.5 11.66 0 0-1.56 8.08-11.74 8.58s-24.26-2.67-26.64-10c-2.38-7.33 2.67-13.74 19.88-10.24zM141.55 133c16.8-5.26 18.6-3.25 21.9 2.19 0 0 2.26 6.38-6.41 11.73-8.67 5.35-22.54 9.33-28.16 4.08-5.62-5.25-4.13-12.79 12.67-18z"/><path fill="#FFF" d="M211.13 127.11c17.25 3.5 18.58 5.17 18.58 11.08 0 0-1.56 8.08-11.74 8.58s-24.26-2.67-26.64-10c-2.38-7.33 2.55-13.16 19.8-9.66z"/><path fill="#F5F5F5" d="M211.13 132.12c-12.45-2.53-18.47-.19-20 4.06-1.92-7 3.19-12.47 20-9.07 17.25 3.5 18.58 5.17 18.58 11.08a8.26 8.26 0 0 1-.45 1.37c-1.13-3.19-5.06-4.79-18.13-7.44z"/><path fill="#FFF" d="M141.82 134.41c16.8-5.26 18.77-4.45 21.63.73 0 0 2.53 7.83-6.14 13.19-8.67 5.36-22.54 9.38-28.16 4.1-5.62-5.28-4.15-12.76 12.67-18.02z"/><path fill="#F5F5F5" d="M144.24 138.79c-12.12 3.8-16.24 8.75-15.53 13.21-5.08-5.25-3.22-12.46 13.11-17.58 16.8-5.26 18.77-4.45 21.63.73.13.461.221.933.27 1.41-2.54-2.25-6.72-1.75-19.48 2.23z"/><path fill="#FFD43B" d="M213.38 115.61c-6.64-6.58-20.9-4-20.62 6.13 8.24.81 17.77-1.09 20.62-6.13zm-55.5 9.39c.15-4.54-4.65-6.68-8.57-7.48-4.86-1-10.1.2-12.64 4.5 6.88 5.98 14.33 4.53 21.21 2.98z"/><path fill="#6F6F6E" d="M157.91 124.93a1.76 1.76 0 0 0 0-.36 5.19 5.19 0 0 0-.14-1 7.31 7.31 0 0 0-.48-1.4 8.79 8.79 0 0 0-1-1.6 10 10 0 0 0-1.45-1.57 10.83 10.83 0 0 0-2-1.33 12.44 12.44 0 0 0-4.75-1.38 12 12 0 0 0-2.45 0 10.9 10.9 0 0 0-2.3.44 13.11 13.11 0 0 0-2 .79 16.34 16.34 0 0 0-1.7 1.05 8.63 8.63 0 0 0-1.32 1.14 13 13 0 0 0-.93 1.08 8.31 8.31 0 0 0-.55.78c-.12.19-.18.31-.18.31s.11.08.31.19.49.31.84.46c.35.15.77.4 1.23.59l1.49.6a17.1 17.1 0 0 0 1.65.53c.57.17 1.14.35 1.72.46.58.11 1.16.26 1.74.33.58.07 1.15.16 1.72.2.57.04 1.12.1 1.68.08.56-.02 1.1 0 1.65 0 1.08 0 2.16-.13 3.2-.21.5 0 1-.09 1.48-.11.48-.02.91-.08 1.29-.09.38-.01.71 0 .91 0l.34.02z"/><path fill="#575756" d="M149 125.38c-.57 0-1.1-.07-1.68-.08-.58-.01-1.13-.15-1.72-.2-.59-.05-1.15-.23-1.74-.33-.59-.1-1.15-.29-1.72-.46a17.1 17.1 0 0 1-1.65-.53l-1.49-.6c-.46-.19-.88-.41-1.23-.59s-.64-.36-.84-.46l-.2-.12c6.24-1.62 17.5 1.69 21.15 2.87v.06h-1.27c-.35 0-.82.06-1.29.09-.47.03-1 .08-1.48.11-1 .08-2.12.19-3.2.21-.52.05-1.06.04-1.64.03z"/><path fill="#6F6F6E" d="M213.42 115.6a2.68 2.68 0 0 0-.2-.3 6.79 6.79 0 0 0-.64-.73 10 10 0 0 0-2.58-1.91 11.94 11.94 0 0 0-4-1.28 13.81 13.81 0 0 0-2.38-.08 14.45 14.45 0 0 0-2.45.4 12.11 12.11 0 0 0-2.37.87c-.38.187-.747.38-1.1.58-.35.23-.69.47-1 .72-.31.25-.63.5-.92.76-.29.26-.54.57-.78.86-.24.29-.47.57-.68.86a8.49 8.49 0 0 0-.53.9 11.52 11.52 0 0 0-.72 1.68 11.06 11.06 0 0 0-.27 1.45 7.2 7.2 0 0 0-.06 1 3.34 3.34 0 0 0 0 .35h1.37c.42 0 .84 0 1.31-.11.47-.11 1-.05 1.54-.11s1.07-.1 1.61-.15c.27 0 .54-.06.8-.11s.56 0 .83-.09c.27-.09.54-.09.81-.14.27-.05.55-.08.82-.13.53-.14 1.09-.23 1.63-.38.54-.15 1.11-.28 1.64-.49.53-.21 1.1-.38 1.65-.59a31.25 31.25 0 0 0 3.15-1.47c.49-.27 1-.52 1.38-.79.38-.27.81-.53 1.13-.72.32-.19.59-.41.78-.53l.23-.32z"/><path fill="#575756" d="M195.33 121.52c-.46.06-.92.08-1.31.11s-.69 0-.91 0c3.32-2.37 9.41-5.28 20.24-6.17l.06.09-.29.21c-.18.11-.45.34-.78.53s-.71.48-1.13.72c-.42.24-.89.52-1.38.79a31.25 31.25 0 0 1-3.15 1.47c-.55.21-1.09.44-1.65.59-.56.15-1.11.32-1.64.49-.53.17-1.11.24-1.63.38-.27.05-.55.1-.82.13-.27.03-.53.11-.81.14-.28.03-.55.07-.83.09-.28.02-.53.08-.8.11-.55 0-1.11.07-1.61.15-.5.08-1.06.14-1.56.17z"/><path fill="#FFD43B" d="M236.29 161.1c-.31.14-4.29 1.45-3.56 1.8a8.94 8.94 0 0 0 5.19 1.57 12.52 12.52 0 0 0 3.43-.6c.14-1.27.22-2.55.25-3.83a14.8 14.8 0 0 0-5.31 1.06z"/><path fill="#F9DA3E" d="M237.57 169.36c-.33.1-4.52.94-3.83 1.38a7.45 7.45 0 0 0 5 2.17h.71a51.919 51.919 0 0 0 1.08-4.06c-1.005.04-2 .211-2.96.51zm-2.21 7.52c-.58.11-2.9-.25-2.7.58a5.15 5.15 0 0 0 2.92 2.95c.243.105.494.192.75.26.61-1.22 1.18-2.45 1.7-3.71a6.5 6.5 0 0 0-2.67-.08z"/><path fill="#6F6F6E" d="M232.71 162.94a7.22 7.22 0 0 0 1 .34c.83.226 1.681.37 2.54.43a13.3 13.3 0 0 0 3.46-.15c1.23-.26 2.48-.83 3.77-1.19s2.58-.74 3.78-1.13c1.2-.39 2.32-.75 3.28-1.08 1.92-.63 3.19-1.11 3.19-1.11a.2.2 0 0 0-.07-.39s-1.36 0-3.38.1c-1 0-2.19.08-3.45.17-1.26.09-2.6.19-3.94.3-1.34.11-2.71 0-3.95.24a13.35 13.35 0 0 0-3.28 1.09 13.06 13.06 0 0 0-2.22 1.32 7.3 7.3 0 0 0-.81.68.24.24 0 0 0 0 .34l.08.04zm1.01 7.79a7.38 7.38 0 0 0 1 .46 13.29 13.29 0 0 0 2.49.73 13.5 13.5 0 0 0 3.47.25c1.26-.11 2.58-.54 3.92-.74 1.34-.2 2.67-.43 3.92-.68 1.25-.25 2.41-.48 3.41-.69 2-.4 3.33-.73 3.33-.73a.2.2 0 1 0 0-.4s-1.36-.15-3.39-.29c-1-.08-2.2-.17-3.47-.24-1.27-.07-2.62-.11-4-.16s-2.72-.28-4-.22a13.54 13.54 0 0 0-3.41.7 13.23 13.23 0 0 0-2.38 1 7.48 7.48 0 0 0-.89.58.24.24 0 0 0 0 .34v.09zm-1.08 6.74c.176.222.37.43.58.62a8.13 8.13 0 0 0 1.62 1.16 7.43 7.43 0 0 0 2.41.87c.91.12 1.94-.06 2.93 0 .99.06 2 .06 2.92 0 .92-.06 1.81 0 2.56-.06 1.5 0 2.51-.12 2.51-.12a.21.21 0 0 0 .06-.39s-.93-.39-2.34-.9c-.71-.26-1.53-.57-2.41-.86-.88-.29-1.83-.58-2.78-.88-.95-.3-1.87-.76-2.77-.94a7.43 7.43 0 0 0-2.56.07 8.17 8.17 0 0 0-1.9.59 5.25 5.25 0 0 0-.75.4.28.28 0 0 0-.07.38l-.01.06z"/><path fill="#575756" d="M232.71 162.94h-.07a.24.24 0 0 1-.07-.16s4.91-.34 6.76-.68c3.46-.64 14.52-3.23 14.52-3.23a.2.2 0 0 1-.12.22s-1.27.48-3.19 1.11c-1 .33-2.08.71-3.28 1.08-1.2.37-2.5.75-3.78 1.13-1.28.38-2.55.93-3.77 1.19a13.3 13.3 0 0 1-3.46.15 13.16 13.16 0 0 1-2.54-.43 7.22 7.22 0 0 1-1-.38zm.94 7.73a.24.24 0 0 1 0-.09s5.1.3 6.83.18c3.7-.26 14.89-1.72 14.89-1.72a.21.21 0 0 1-.15.25s-1.33.33-3.33.73c-1 .21-2.16.46-3.41.69-1.25.23-2.59.46-3.92.68-1.33.22-2.66.63-3.92.74a13.5 13.5 0 0 1-3.47-.25 13.29 13.29 0 0 1-2.49-.73 7.38 7.38 0 0 1-1-.46l-.03-.02zm-1.02 6.52a47.51 47.51 0 0 0 4.83 1.45c2.6.43 10.89 1.16 10.89 1.16a.2.2 0 0 1-.18.18s-1 .08-2.51.12c-.75 0-1.63.06-2.56.06h-2.92c-.99 0-2 .14-2.93 0a7.43 7.43 0 0 1-2.41-.87 8.13 8.13 0 0 1-1.62-1.16 5.21 5.21 0 0 1-.58-.62.26.26 0 0 1-.01-.32z"/><path fill="#FFE066" d="M117.25 339.3c-.88-2.14-2.57-3.66-4.14-5.28-7.32 8.5-20.23 15.09-29.79 6.12-12.16-11.4-15.94-30.85-23.82-45.14-8.35-15.1-22.12-25.47-39.79-18.76-6.64 2.46-19.62 8-18.67 16.44a8.77 8.77 0 0 0 14.27 5.63c4.86-3.31 8.69-7.61 14.84-8.81 16.08-3.16 25.32 27.77 30.47 38.35 4.65 9.56 10 19.83 19.51 25.33 7.41 4.7 16.92 5.23 25.14 2.69a46.72 46.72 0 0 0 11.47-5.5c3.14-2 1.86-7.74.51-11v-.07z"/><path fill="#FFD43B" d="M114.69 344.16c-11.25 6.6-25.37 9.15-36.7 1.83-10.12-6.54-15.38-18.57-20.31-29.07-4.73-10.07-11.81-34.44-26.84-31.58-16.31 3.1-22.71 16-29 2.69-3.19 6.75 3.4 14.24 10.47 12 4.95-1.56 8.69-6.74 13.44-9 17.7-8.59 27.23 20.65 32.69 32.26 5 10.68 10.37 22.84 20.77 29.35a30.78 30.78 0 0 0 21.91 4.25 39.54 39.54 0 0 0 11.8-4.27 60.65 60.65 0 0 0 5.71-3.52 44.84 44.84 0 0 0-.61-7 44.456 44.456 0 0 1-3.33 2.11c-1.69.96 1.2-.73 0-.05z"/><path fill="#F9C930" d="M147.11 405.71s6-.19 7.94 5.12c1.94 5.31-1.78 6.36-3.31 6.61-2.8.47-4.06-.27-4.06-.27s-.68-9.58-.57-11.46zm-14.36.13s-6.08.24-8.14 4.13c-1.9 3.58-.61 5.45 0 6.2 1.27 1.55 4.42 1.79 6.62.33s2.04-9.44 1.52-10.66z"/><path fill="#FFD43B" d="M147.51 406.6c1.39 2.12 2 6.16 1.31 9.82s-6.65 3.51-7.46 2.95c-.81-.56-3.33-.34-3.07-5.95.26-5.61.29-9.78.29-9.78a7.49 7.49 0 0 1 8.93 2.96z"/><path fill="#FFD43B" d="M132.47 406.6c-1.29 2.12-1.88 6.16-1.22 9.82.66 3.66 6.2 3.51 7 2.95.8-.56 3.1-.34 2.87-5.95-.23-5.61-.27-9.78-.27-9.78a6.7 6.7 0 0 0-8.38 2.96z"/></g><g transform="translate(211 23)"><mask id="cat5_love-d" fill="#fff"><use xlink:href="#cat5_love-c"/></mask><use fill="#FF8787" xlink:href="#cat5_love-c"/><path fill="#000" fill-opacity=".1" d="M-1.961 21.7c10.43 23.751 29.788 25.687 58.072 5.81 28.284-19.878 16.968-7.227-33.948 37.952C1.513 44.313-9.175 31.662-9.901 27.51c-.727-4.153 1.92-6.09 7.94-5.81z" mask="url(#cat5_love-d)"/></g><g transform="translate(144 -4)"><mask id="cat5_love-f" fill="#fff"><use xlink:href="#cat5_love-e"/></mask><use fill="#FF8787" xlink:href="#cat5_love-e"/><path fill="#000" fill-opacity=".1" d="M-.587 16.293c10.464 11.53 21.177 13.546 32.14 6.049 10.964-7.497 6.486-.784-13.434 20.14L-.587 16.293z" mask="url(#cat5_love-f)"/></g><path fill="#FF8787" d="M218.818 136.088c-1.069 2.211-3.417 3.737-5.52 4.95-2.208 1.272-4.582 2.196-7.037 2.865-.15.04-.227.136-.251.244-1.576-1.39-2.775-3.004-3.694-4.88-.944-1.928-1.994-4.203-1.775-6.418.213-2.15 1.972-4.179 4.36-3.654 2.47.542 3.543 3.02 4.308 5.09a.407.407 0 0 0 .675.141c1.728-1.786 3.877-3.965 6.617-3.63 2.65.324 3.342 3.169 2.317 5.292zm-82.329 7.211c-1.311-1.96-1.021-4.872 1.558-5.562 2.667-.713 5.098 1.146 7.058 2.674.25.194.589.044.649-.234.47-2.156 1.187-4.76 3.557-5.64 2.292-.852 4.316.913 4.826 3.011.526 2.164-.197 4.562-.864 6.603-.65 1.986-1.612 3.751-2.98 5.347-.038-.104-.129-.188-.282-.207-2.524-.32-5.003-.905-7.367-1.859-2.251-.907-4.79-2.091-6.155-4.133z"/></g></svg>