<svg xmlns="http://www.w3.org/2000/svg" xmlns:xlink="http://www.w3.org/1999/xlink" width="353" height="443" viewBox="0 0 353 443"><defs><path id="cat8-a" d="M.728.231h70.369v97.156H.728z"/></defs><g fill="none" fill-rule="evenodd"><path fill="#CCC" d="M223.516 278.28l-2.313-.306c3.239-36.083 31.145-85.342 34.38-121.427l2.314.308c-3.235 36.084-31.145 85.342-34.381 121.426m-3.482-37.506c6.172-55.636-4.238-93.98 1.847-149.62l2.374-.026c-6.166 55.635 4.233 93.979-1.849 149.618-.947.01-1.425.017-2.373.028m7.506 48.65l-2.31-.798c7.783-54.797 67.343-112.59 74.898-167.445.924.318 1.387.477 2.31.797-7.777 54.796-67.347 112.588-74.898 167.445"/><path fill="#69DB7C" d="M220.28 98.341s-.61 1.607.4 1.534c1.014-.074.88-.547 1.823-.36.94.184 1.845.141 2.244-.689.402-.83.385-1.603-.264-1.87-.648-.267-4.644.012-4.203 1.385"/><path fill="#004586" d="M298.178 128.27s-1.158 1.162-.217 1.473c.944.31 1.002-.145 1.781.363.782.51 1.616.806 2.288.236.671-.569.949-1.242.464-1.715-.484-.47-4.201-1.705-4.316-.357"/><path fill="#005DB4" d="M351.028 88.506c-2.018 12.521-7.527 24.578-15.998 33.042-16.645 16.63-38.777 13.068-49.186-7.917-5.11-10.307-6.455-22.908-4.507-35 2.015-12.527 7.556-24.5 16.093-32.8 16.782-16.305 38.912-12.744 49.188 7.916 5.049 10.147 6.353 22.671 4.41 34.76"/><path fill="#FF7474" d="M254.3 159.24s-.823 1.592.261 1.605c1.084.014.994-.481 1.974-.208.983.273 1.95.308 2.463-.507.514-.815.58-1.61-.082-1.941-.66-.33-4.94-.392-4.617 1.052"/><path fill="#000" d="M254.3 159.24s-.823 1.592.261 1.605c1.084.014.994-.481 1.974-.208.983.273 1.95.308 2.463-.507.514-.815.58-1.61-.082-1.941-.66-.33-4.94-.392-4.617 1.052m-34.02-60.9s-.608 1.607.4 1.534c1.015-.074.882-.547 1.824-.36.94.184 1.845.141 2.244-.689.402-.83.385-1.603-.264-1.87-.648-.267-4.644.012-4.203 1.385" opacity=".05"/><g transform="translate(185 .769)"><mask id="cat8-b" fill="#fff"><use xlink:href="#cat8-a"/></mask><path fill="#69DB7C" d="M71.096 47.737c.066 12.686-3.391 25.48-10.355 35.22-13.694 19.135-36.112 19.255-49.821.262C4.186 73.892.793 61.68.729 49.432.662 36.745 4.162 24.024 11.223 14.437 25.1-4.402 47.516-4.52 61.041 14.175c6.645 9.18 9.991 21.32 10.055 33.562" mask="url(#cat8-b)"/></g><path fill="#000" d="M350.475 91.472c-11.502 22.56-34.29 24.064-34.994 6.684-1.088-26.763-20.692-33.003-29.123-36.25-2.391 5.252-4.088 10.926-5.022 16.725-1.947 12.092-.601 24.694 4.508 35 10.408 20.986 32.54 24.547 49.186 7.917 7.8-7.793 13.08-18.633 15.445-30.076m-94.72-35.766c-25.628 2.395-31.528 31.633-32.858 32.89-1.125 1.061-1.965 3.084-15.25-.814-6.633-1.944-12.998-8.502-17.002-13.165 1.441 3.341 3.2 6.495 5.275 9.371 13.71 18.993 36.127 18.874 49.82-.261 5.647-7.895 8.987-17.797 10.014-28.022" opacity=".05"/><path fill="#FF7474" d="M296.516 114.152c-1.551 12.587-6.611 24.838-14.76 33.61-16.02 17.234-38.271 14.494-49.447-6.088-5.49-10.112-7.297-22.656-5.801-34.812 1.55-12.591 6.643-24.763 14.87-33.373 16.163-16.914 38.413-14.175 49.443 6.089 5.422 9.954 7.19 22.422 5.695 34.574"/><path fill="#000" d="M285.793 135.816c-17.455 26.178-49 10.8-55.15 2.439a46.338 46.338 0 0 0 1.666 3.419c11.175 20.582 33.427 23.322 49.447 6.088 7.894-8.5 12.881-20.264 14.594-32.436-1.09 5.859-4.455 11.34-10.557 20.49" opacity=".05"/><path fill="#69DB7C" d="M195.584 18.283s-12-24.125 13.5-10c20.873 11.562-3.248 17.54-13.5 10m52.8 1.375s12-24.125-13.5-10c-20.874 11.562 3.247 17.54 13.5 10"/><path fill="#FF7474" d="M238.834 80.058c-3.33-9.4-10.674-28.102 14.826-13.977 20.873 11.563-10.578 25.974-14.826 13.977"/><path fill="#005DB4" d="M301.254 43.254s-7.143-25.98 15.168-7.22c18.264 15.357-6.557 16.59-15.168 7.22"/><path fill="#005DB4" d="M343.649 53.063s16.412-21.371-11.326-12.407c-22.707 7.337-.184 17.839 11.326 12.407"/><path fill="#FF7474" d="M293.383 84.21c3.33-9.4 10.674-28.102-14.826-13.977-20.873 11.563 10.578 25.974 14.826 13.977"/><path fill="#000" d="M94.32 377.84c-2.54 5.08-8.784 14.192-9.278 15.512l.008-.03c-.247.83-1.452.942-3.012.842.6-2.385.687-4.813.48-6.779a6.167 6.167 0 0 0 1.395-5.256 6.427 6.427 0 0 0-.3-1.009 6.139 6.139 0 0 0-7.131 1.425 6.167 6.167 0 0 0-6.7-3.238 6.16 6.16 0 0 0-4.912 5.36 6.164 6.164 0 0 0-8.871 6.694 6.143 6.143 0 0 0 2.724 3.98c1.397 5.29 7.606 13.321 17.018 11.324 7.535-1.6 17.365-21.336 19.39-30.22-.29.44-.562.9-.81 1.395" opacity=".05"/><path fill="#FFE066" d="M106.776 367.533c.385-.046.605-.062.605-.062s25.256-42.156 3.065-39.14c-1.598-1.6-4.981-2.375-11.082-1.684-4.97 1.505-21.914 11.242-28.897 29.746-2.418 6.41-5.173 15.07-7.017 21.282a6.096 6.096 0 0 1 3.174-1.735 6.165 6.165 0 0 1 6.699 3.239 6.136 6.136 0 0 1 3.328-1.881 6.168 6.168 0 0 1 7.262 4.832 6.167 6.167 0 0 1-1.395 5.256 19.923 19.923 0 0 1-.48 6.779c1.56.099 2.765-.014 3.01-.842-.002.012-.002.017-.006.029.494-1.32 6.738-10.432 9.279-15.511 2.547-5.098 7.078-7.151 16.844-6.94-1.037-.702-4.12-2.162-4.39-3.368"/><path fill="#FFD43B" d="M110.854 361.173c-.914-2.683-2.992-2.769-9.242-.32-.492.191-1.014.197-1.551.063-5.5 2.855-8.018 6.591-8.018 6.591a22.9 22.9 0 0 0-.3.673c-4.69 6.543-4.405 14.611-9.034 20.514-4.427 5.645-10.408 12.648-16.207 9.106.448 2.57-.068 5.23.926 5.487 1.363.35 5.727.543 10.762-1.915 1.519-.74 6.217-5.886 6.859-8.05-.004.012-.004.017-.007.03.494-1.32 6.738-10.433 9.279-15.512 2.478-4.959 6.847-7.03 16.076-6.943.03-.135.06-.274.092-.41-1.322-.774-3.49-1.952-3.713-2.955.385-.046.605-.06.605-.06s1.514-2.53 3.473-6.299"/><path fill="#000" d="M300.934 414.906l-11.813-7.746c-.251.39-.486.772-.718 1.15-6.498-4.288-12.711-8.8-19.97-12.49-10.228 18.418-34.595 17.685-44.595 38.623 2.25-2.44 4.813-.131 8.487-1.846-2.032 2.552-2.407 5.918-3.053 9.172 18.58-15.682 46.078-11.278 66.326-23.5l2.416 1.584a2.261 2.261 0 0 1-.475-.526c.459.668 1.237 1.04 2.12.917 1.414-.2 2.562-1.602 2.566-3.13.002-1.027-.521-1.84-1.291-2.208" opacity=".05"/><path fill="#000" d="M261.588 391.535c.994-2.636-1.658-5.644-4.539-12.277-6.186-.108-4.309.1-10.1 2.189.594.859 2.451 4.997 1.13 5.888-.688.462-2.688-3.841-3.192-4.293-.656-.588-1.436-.908-2.229-.83 3.297-2.85 5.252-6.51 5.252-6.51l2.948-20.78-3.897-9.212s-12.727 6.25-21.643 10.164c-4.382-8.97-12.419-17.152-12.419-17.152s-101.64-21.092-101.64-12.033l-15.76 6.245s-.423 64.636 44.874 72.518c.231.04.455.076.686.115a6.156 6.156 0 0 0 1.424 2.1c.332 5.463 5.042 10.733 14.666 10.736 6.976.002 15.38-8.817 17.308-13.008 29.824 4.83 44.592-8.97 50.221-20.36.732 3.349 1.568 6.89 2.515 8.394.954 1.51 2.264 3.024 4.065 3.49 2.842.734 1.672-.355 4.094 1.897 2.21 2.06 7.107 2.413 10.072 2.474 2.873.058 4.658-.565 6.894-2.223 1.182-.876 4.5-2.392 5.497-3.142l14.478 9.493a78.015 78.015 0 0 0 3.977-4.256l-14.682-9.627z" opacity=".05"/><path fill="#1D1D1B" d="M95.498 373.367c.006.056.002.128.006.188.131-.273.142-.36-.006-.188"/><path fill="#FFD43B" d="M275.487 286.234s-.012-.032-.031-.093a3.055 3.055 0 0 1-.047-.165c-.067-.194-.172-.5-.334-.91a27.565 27.565 0 0 0-1.692-3.49c-.824-1.444-1.955-3.138-3.437-4.68-.367-.391-.77-.75-1.17-1.108l-.318-.26a3.45 3.45 0 0 0-.272-.21 8.602 8.602 0 0 0-.642-.445 10.163 10.163 0 0 0-2.97-1.251c-2.138-.504-4.601-.214-7.148 1.23-.632.358-1.27.774-1.9 1.25-.748.594-1.504 1.194-2.271 1.8-.844.655-1.698 1.29-2.541 1.905-.82.598-1.71 1.23-2.17 1.625-.237.188-.278.29-.131.033.158-.257.207-.76.178-.724-.038.07.179 1.082.457 1.986.625 2.045 1.255 4.114 1.894 6.2 1.24 4.238 2.525 8.482 3.75 12.848 1.209 4.358 2.326 8.802 3.102 13.339.779 4.53 1.199 9.18.894 13.836-.293 4.638-1.496 9.307-3.654 13.279-2.125 3.998-5.086 7.159-8.022 9.539-2.96 2.389-5.921 4.058-8.54 5.414-2.62 1.362-4.932 2.418-6.831 3.29l-4.416 2.013c-1.02.458-1.558.74-1.558.74l-.055.03a6.167 6.167 0 1 1-3.037-11.624s.533-.015 1.52-.113c.988-.095 2.419-.305 4.195-.703a34.21 34.21 0 0 0 6.146-2.014c2.264-.978 4.643-2.361 6.914-4.117 2.254-1.773 4.36-3.972 5.873-6.715 1.537-2.726 2.489-6.01 2.785-9.677.323-3.665-.011-7.661-.691-11.75-.68-4.093-1.705-8.29-2.853-12.501-1.141-4.204-2.432-8.468-3.713-12.611l-2.006-6.205c-.17-.557-.344-1.123-.506-1.79-.156-.673-.326-1.403-.375-2.456a7.608 7.608 0 0 1 .148-1.822c.133-.664.395-1.38.715-1.945.658-1.18 1.362-1.836 1.895-2.342 1.097-.992 1.894-1.558 2.7-2.203a96.82 96.82 0 0 0 2.265-1.82l1.084-.92.574-.487.678-.555a26.458 26.458 0 0 1 2.91-1.993c2.035-1.198 4.29-2.113 6.629-2.572 2.336-.472 4.72-.448 6.92-.081a19.856 19.856 0 0 1 5.966 2.049c.44.228.868.467 1.278.72.2.119.416.254.64.408l.563.38a29.55 29.55 0 0 1 2.03 1.593c2.505 2.137 4.237 4.243 5.618 5.994a54.583 54.583 0 0 1 2.955 4.245c.326.51.57.923.739 1.214l.265.482.037.065a6.028 6.028 0 1 1-10.986 4.845M26.75 231.13c.617-2.027 1.97-5.573 3.977-6.906 5.906-3.926 10.125-5.496 13.086-5.719-5.33-1.424-16.727 4.947-19.643 8.248-3.098 3.506-6.08 11.817-2.076 15.574a3.262 3.262 0 0 0 5.154-.824c-1.275-3.329-1.088-8.437-.498-10.373"/><path fill="#FFE066" d="M39.905 241.57c.676-.183 1.758-.48-.004 0-.678.187-.42.116-.002 0-1.736.475-3.558-.486-5.258.147 1.102-4.563.256-10.32 6.989-10.678 6.755-.358 2.7 9.316-1.725 10.532m61.85 25.428c-8.383-5.305 22.293-25.836-7.651-19.823-17.943 6.903-32.92-18.811-36.842-22.72-1.728-1.721-6.216-6.244-13.76-6.016.104.02.212.039.31.067h-.003a10.285 10.285 0 0 0-.631.066c-2.92.387-6.953 2-12.451 5.652-2.008 1.333-3.36 4.879-3.976 6.907-1.022 3.355-.85 16.25 6.086 12.873-.287 4.773 10.068 4.486 14.509 3.737 1.487.143 5.364.915 6.944 5.06 7.644 20.069 30.152 23.466 43.642 22.757-1.785-2.422 6.88-6.627 3.823-8.56M39.9 241.57h.004-.004z"/><path fill="#FFD43B" d="M85.772 262.57c-2.016 9.876-17.27 4.343-21.18 1.7-3.93-2.654-8.812-11.838-9.927-14.226-1.116-2.39-4.116-5.872-7.221-4.3-3.981 2.018-8.641 1.415-10.615 1.009-2.133-.438-3.178-.932-3.692-1.306 1.707 3.257 10.276 2.958 14.209 2.295 1.487.143 5.363.915 6.944 5.06 6.388 16.77 23.154 21.896 36.365 22.715-1.106-7.311-3.397-20.216-4.883-12.946m-1.86 119.558a6.168 6.168 0 0 0-7.262-4.832 6.146 6.146 0 0 0-3.328 1.881A6.163 6.163 0 0 0 61.71 381.3a6.155 6.155 0 0 0-4.039-.567 6.168 6.168 0 0 0-2.108 11.24c1.4 5.291 7.868 13.561 17.28 11.564 8.644-1.837 10.248-10.748 9.675-16.152a6.16 6.16 0 0 0 1.395-5.256"/><path fill="#FF7474" d="M58.844 391.9c-1.701-.362-5.375-3.604-2.852-6.386 2-2.21 4.407.035 5.157 1.08.9 1.252 3.474 6.537-2.305 5.306m16.162-8.089c.361-1.702 2.705-5.866 6.426-2.588 1.908 1.682-.076 4.143-1.12 4.893-1.253.9-6.536 3.474-5.306-2.305m-8.969 1.643c-1.28-1.176-2.799-5.834.791-6.948 2.844-.886 3.777 2.272 3.893 3.553.134 1.534-.332 7.395-4.684 3.395m11.823 7.863c-1.22-2.072-3.217-2.146-4.672-1.642-.525-1.71-1.814-3.764-4.467-2.938-2.113.658-2.77 2.32-2.715 4.029-1.29.067-3.503.522-3.216 2.906.4 3.336 2.297 3.868 4.433 4.405 1.483.37 2.2-.713 4.096-.957 1.895-.246 3.26.55 4.885-.377 1.336-.768 3.488-2.308 1.656-5.426"/><path fill="#000" d="M60.82 386.188c.286.921.456 2.109.124 3.386-.418 1.608-2.561 1.424-4.322.966.742.722 1.61 1.23 2.222 1.36 5.78 1.231 3.206-4.054 2.305-5.306a5.383 5.383 0 0 0-.328-.406m19.49-.072c1.045-.75 3.029-3.211 1.12-4.893-.15-.132-.292-.232-.434-.34-1.702 5.055-4.987 4.303-6.137 3.856-.473 4.549 4.27 2.224 5.45 1.377m-15.484-2.921c.275.98.756 1.843 1.211 2.259 4.351 4 4.818-1.862 4.684-3.395a5.734 5.734 0 0 0-.149-.838c-.084.52-.23 1.139-.459 1.892-.99 3.233-4.266.907-5.287.082m13.036 10.128c-.258 1.89-3.316 3.56-4.906 2.502-1.918-1.274-3.903-.731-5.455.879-1.137 1.18-3.51-.171-4.703-.982.412 3.29 2.298 3.82 4.425 4.355 1.483.37 2.2-.713 4.096-.957 1.895-.246 3.26.55 4.885-.377 1.334-.768 3.484-2.307 1.658-5.42" opacity=".05"/><path fill="#F9C930" d="M82.608 388.7c-.244 1.582-1.26 5.119-2.932 7.869-1.427 2.348-3.98 4.264-6.953 3.85-3.267-.455-2.95.242-6.258.824-6.658 1.17-10.902-9.27-10.902-9.27 1.399 5.29 7.867 13.562 17.279 11.565 7.977-1.695 9.957-9.408 9.766-14.838"/><path fill="#FFD43B" d="M108.098 323.322l-15.76 6.245s-.42 60.632 44.875 68.514c61.014 10.619 71.207-10.191 85.692-29.176 8.66-11.35-13.164-33.55-13.164-33.55s-101.643-21.093-101.643-12.033"/><path fill="#FFE066" d="M267.594 316.185c-1.174-6.354-5.615-16.87-9.699-22.222-7.799 5.659-8.041 16.445-14.098 12.993-.307 1.525-7.174 6.396-7.277 8.241 0 0 4.431 9.159 6.685 19.394 2.243 10.185 2.756 20.332.534 29.163-.317 1.256-.122 1.067-3.661 2.909-1.437.748-3.396 1.343-4.386 3.892-.262.672 8.109 5.647 8.666 5.343.011-.007.382.034.994-.067 1.881 1.734 2.609 7.373 1.193 6.445-.506-.331-2.318-2.005-2.101-.18.193 1.641.964 3.085 1.421 4.645.329 1.074-.478 3.201.836 3.789.196.256-.421.463-.484.523a1.25 1.25 0 0 0-.365.856c-.465.138-.936.25-1.414.334-1.293.25-3.106.875-3.522 2.09-.906 2.718 6.43 1.958 7.514 1.494 1.768-.745 14.773-9.067 13.074-22.163-.691-5.33 3.942-12.773 5.522-19.746 2.209-9.736 3.822-20.104.568-37.733"/><path fill="#FFD43B" d="M245.86 376.442c1.49 2.158 1.963 6.672.686 5.834-.506-.331-2.32-2.005-2.102-.18.193 1.64.965 3.085 1.422 4.645.328 1.074-.48 3.2.836 3.789.195.256-.422.463-.485.523a1.251 1.251 0 0 0-.365.856c-.465.138-.935.25-1.414.334-1.293.25-3.105.875-3.521 2.09-.907 2.718 6.429 1.959 7.513 1.494 1.742-.734 14.4-8.838 13.127-21.616l-9.076-.158-6.621 2.389z"/><path fill="#FF7474" d="M130.139 188.714s7.262-66.409 8.678-69.526c1.416-3.114 2.972-6.37 9.908 0 6.937 6.371 46.29 50.49 46.29 50.49s-44.93 35.033-64.876 19.036"/><path fill="#000" d="M186.096 159.715c-3.604-.049-8.76.12-11.508.122-8.533-13.833-29.445-21.942-38.299-24.026-2.234 17.583-5.132 43.672-5.935 50.95l4.74 2.095 21.147 1.906c19.095-5.74 38.775-21.084 38.775-21.084s-3.65-4.093-8.92-9.963" opacity=".05"/><path fill="#FFE066" d="M120.602 235.271s-6.818-40.019 17.225-56.062c22.037-14.703 43.023-15.537 51.304-13.148 6.596 1.902 30.8 4.371 48.92 22.209 18.12 17.836-2.69 64.123-13.191 69.047-3.4 1.592-41.977 22.971-104.258-22.046"/><path fill="#FDD23A" d="M240.196 233.602c-2.86 5.693-6.535 15.747-26.674 19.795-26.047 5.238-46.006.142-74.461-14.863-22.998-12.127-14.814-39.983-11.896-47.948-11.022 18.5-6.563 44.685-6.563 44.685 62.28 45.017 100.86 23.638 104.258 22.046 4.512-2.115 10.924-11.866 15.336-23.715"/><path fill="#FFE066" d="M228.217 190.464l-1.207-5.31s-2.564-2.67-1.037-3.236c10.76-3.963 20.467-8.502 34.162-6.955 17.555 1.982-4.432 31.447-16.395 44.684-6.529 7.224-15.523-29.183-15.523-29.183"/><path fill="#005DB4" d="M224.649 257.416c-4.516 2.207-42.721 22.034-103.77-21.947-1.666 11.208-7.08 45.255-12.498 53.029-6.511 9.343-19.433 41.939-16.421 41.901 20.099-.245 34.824-7.642 71.914 6.796 37.088 14.44 55.209 36.242 55.209 36.242s25.48-7.93 11.324-78.71c-3.781-18.906-5.36-30.455-5.758-37.31"/><path fill="#FFE066" d="M137.826 179.21c11.334-7.562 22.385-11.448 31.576-13.122-1.988-2.1-11.94-12.088-25.959-17.014-5.912-2.076-10.873-2.077-15.29 1.135-3.968 2.887 3.193 25.572 5.441 32.348a33.512 33.512 0 0 1 4.232-3.348"/><path fill="#FDD23A" d="M137.826 179.21c11.334-7.562 22.385-11.448 31.574-13.122a55.773 55.773 0 0 0-2.679-2.629c-3.743.561-8.612 1.428-11.459 2.496-5.096 1.911-10.723 6.69-17.944-.744-5.306-5.463-5.945-13.908-.678-17.559-3.074-.11-5.876.66-8.488 2.557-3.967 2.887 3.194 25.572 5.442 32.348a33.512 33.512 0 0 1 4.232-3.348"/><path fill="#FFF" d="M150.66 187.442s.26 6.512 11.02 10.617c10.76 4.105 15.736 3.538 19.275 0 3.54-3.54-7.916-16.092-15.713-18.685-7.797-2.596-17.248-5.805-14.582 8.068"/><path fill="#565655" d="M165.242 179.374c-2.205-.733-4.54-1.518-6.697-1.95-.498 6.612-.186 16.828 6.554 16.53 5.27-.234 6.682-5.417 8.2-9.597-2.649-2.273-5.543-4.148-8.057-4.983"/><path fill="#000" d="M165.242 179.374c-7.59-2.525-16.744-5.63-14.764 7.007 5.516-.266 18.96-.19 24.957 6.222 2.643 2.827 4.041 4.74 4.741 6.161.267-.222.527-.454.78-.704 3.538-3.54-7.917-16.093-15.714-18.686" opacity=".05"/><path fill="#FDD23A" d="M165.242 179.374c7.133 2.373 17.32 13.075 16.295 17.591 2.184-4.198-8.55-16.965-16.508-19.435-7.63-2.368-16.726-5.613-14.77 6.964-.785-10.415 7.797-7.512 14.983-5.12"/><path fill="#575756" d="M165.125 173.048s.055-.125.187-.33c.137-.197.336-.515.641-.843.598-.673 1.584-1.52 3.022-2.157 1.425-.642 3.334-1.024 5.427-.782 1.041.125 2.104.42 3.127.85 1.002.453 1.987 1.017 2.826 1.713a13.397 13.397 0 0 1 3.754 4.804c.215.422.366.85.514 1.272.145.423.291.827.373 1.241.09.411.191.801.256 1.188.043.393.098.764.125 1.125.07.721.04 1.393.006 1.984a9.913 9.913 0 0 1-.205 1.545c-.082.428-.194.774-.25 1.002-.065.233-.116.358-.116.358s-.117-.075-.31-.223c-.184-.146-.482-.354-.8-.63-.309-.272-.686-.6-1.118-.977l-1.318-1.229-1.42-1.385c-.242-.24-.473-.488-.73-.714-.257-.229-.475-.493-.733-.715-.488-.475-.98-.928-1.457-1.369-.485-.428-.95-.858-1.428-1.223-.463-.4-.939-.719-1.404-1.064-.477-.309-.949-.622-1.45-.903-.5-.27-1.019-.559-1.562-.78a20.056 20.056 0 0 0-1.646-.636 32.588 32.588 0 0 0-2.975-.83c-.399-.086-.74-.18-.969-.217l-.367-.075"/><path fill="#6F6F6E" d="M173.707 172.319c4.305 1.182 9.047 6.525 11.125 13.645.021-.057.055-.156.096-.303.056-.23.168-.574.25-1.002a9.93 9.93 0 0 0 .205-1.545c.033-.592.064-1.264-.006-1.984-.027-.362-.082-.733-.125-1.125-.065-.387-.166-.778-.256-1.19-.082-.413-.228-.816-.373-1.24-.148-.421-.299-.85-.514-1.272a13.394 13.394 0 0 0-3.754-4.803c-.839-.697-1.824-1.26-2.826-1.714a11.72 11.72 0 0 0-3.127-.85c-2.093-.241-4.002.14-5.427.782-1.438.636-2.424 1.485-3.022 2.158-.305.328-.504.645-.64.84-.092.142-.143.242-.169.292.895-.43 4.321-1.853 8.563-.69m41.118 19.33l.373.08c.23.063.594.12 1.004.229a76.83 76.83 0 0 1 3.232.857c1.181.346 2.559.749 4.036 1.183l2.09.609c.698.189 1.387.39 2.073.55.681.188 1.357.323 2.028.477.333.073.667.125 1 .205.333.059.666.12.992.176.66.105 1.317.209 1.969.287.323.037.643.06.968.109.319.026.63.04.944.075.619.045 1.22.082 1.77.109l1.483.066c.42.003.785.044 1.025.05l.387.036s-.049.127-.163.343c-.118.21-.278.548-.528.927-.243.395-.591.799-1.01 1.279-.427.46-.958.935-1.587 1.4-.316.225-.662.438-1.024.67-.37.203-.768.386-1.18.589a13.93 13.93 0 0 1-2.743.845c-.494.094-1 .143-1.518.202-.512.02-1.041.044-1.565.024-1.048-.053-2.113-.19-3.129-.46a15.66 15.66 0 0 1-5.436-2.576 15.315 15.315 0 0 1-3.547-3.664 12.823 12.823 0 0 1-1.623-3.264c-.268-.867-.321-1.412-.321-1.412"/><path fill="#575756" d="M226.434 198.868c-5.678-1.141-10.527-6.104-11.545-7.205a2.469 2.469 0 0 0-.064-.014s.052.545.322 1.412a12.74 12.74 0 0 0 1.623 3.264 15.296 15.296 0 0 0 3.547 3.664 15.63 15.63 0 0 0 5.435 2.576c1.016.27 2.08.407 3.129.46.524.02 1.053-.004 1.565-.024.517-.06 1.023-.108 1.517-.201a13.91 13.91 0 0 0 2.744-.846c.413-.203.81-.386 1.18-.588.36-.232.707-.445 1.024-.67a11.61 11.61 0 0 0 1.587-1.4c.418-.481.768-.885 1.01-1.28.25-.378.41-.716.528-.926.082-.154.12-.242.14-.292-3.078 2.126-8.652 3.093-13.742 2.07"/><path fill="#FDD23A" d="M167.238 170.723c.058-.04.124-.079.18-.119-.059.038-.119.076-.18.12m17.264 15.071c-.184-.146-.482-.355-.8-.63-.309-.272-.686-.6-1.118-.977l-1.318-1.229-1.42-1.385c-.242-.24-.473-.488-.73-.715-.257-.228-.475-.492-.733-.714-.488-.475-.98-.928-1.457-1.37-.485-.427-.95-.857-1.428-1.222-.463-.4-.939-.719-1.404-1.064-.477-.309-.949-.622-1.45-.903-.5-.27-1.019-.559-1.562-.78a20.056 20.056 0 0 0-1.646-.636 32.267 32.267 0 0 0-2.975-.83c-.398-.086-.74-.18-.969-.217l-.285-.058-.002.005c4.494 1.4 7.914 3.46 11.397 6.53 2.595 2.406 5.394 4.601 8.031 6.883.055-.163.096-.327.142-.489a4.742 4.742 0 0 1-.273-.199m55.006 12.221c-.242.395-.592.8-1.01 1.28-.427.46-.959.934-1.588 1.4-.316.224-.662.437-1.023.67-.369.202-.768.384-1.18.588a13.93 13.93 0 0 1-2.744.845c-.494.094-1 .143-1.518.201-.51.021-1.04.045-1.564.025-1.049-.053-2.113-.19-3.129-.46a15.647 15.647 0 0 1-5.435-2.576 15.296 15.296 0 0 1-3.547-3.664 12.772 12.772 0 0 1-1.623-3.264 9.332 9.332 0 0 1-.28-1.129c-.013-.013-.029-.025-.043-.037.772 5.656 6.102 11.063 11.414 12.123 4.907.978 11.985-1.256 13.727-6.797-.11.207-.25.478-.457.795"/><path fill="#FFD43B" d="M206.66 244.324l.018.033c-.05-.124-.118-.29-.018-.033"/><path fill="#FFD43B" d="M206.678 244.357c.041.1.068.173-.018-.033-4.285-10.91-16.812-15.941-27.127-19.718a90.355 90.355 0 0 0-6.318-2.061c-.543-.42-1.642-.658-2.945-.772-2.828-.68-5.697-1.188-8.631-1.462-.871-.08-2.631-.381-4.348-.365a11.9 11.9 0 0 0-.359-5.652c-.211-.708-1.986-5.286-4.43-5.833-.082-.018 1.543 5.05 1.578 5.422.221 2.252.035 4.623-.884 6.713-1.612 3.573-5.762 5.512-9.381 6.71-.701.243 2.429 1.298 1.961 1.195 1.338.396 3.134.21 4.379-.386 1.837-.782 3.775-1.921 5.056-3.48a9.935 9.935 0 0 0 1.115-1.795c1.946.367 3.889.748 5.829 1.139.027 2.14.328 6.173 2.169 7.602.92.713 5.92-1.426 8.215-5.473 3.239.699 6.455 1.482 9.606 2.534 5.623 1.878 11.131 4.378 15.912 7.92 2.256 1.67 4.127 2.689 5.814 4.936.364.454 2.557 3.876 2.903 3.734.259-.106-.024-.726-.096-.875"/><path fill="#575756" d="M206.967 244.932s-.102-.245-.29-.706a16.323 16.323 0 0 0-.91-1.968 11.304 11.304 0 0 0-.765-1.349c-.299-.479-.617-1.004-1.02-1.52a20.395 20.395 0 0 0-1.286-1.64 23.005 23.005 0 0 0-1.559-1.71c-1.12-1.163-2.44-2.314-3.899-3.45-1.459-1.14-3.099-2.2-4.824-3.237-1.744-1.004-3.574-2.002-5.496-2.879A77.47 77.47 0 0 0 181.02 224c-1.998-.78-4.037-1.44-6.045-2.094a65.413 65.413 0 0 0-5.98-1.618c-1.969-.402-3.887-.716-5.719-.896a61.154 61.154 0 0 0-5.172-.376 44.85 44.85 0 0 0-1.485-.033c.016-.095.034-.19.047-.285.108-.919.13-1.808.04-2.646a11.225 11.225 0 0 0-.464-2.34 11.08 11.08 0 0 0-.789-1.949c-.287-.58-.648-1.074-.955-1.5-.295-.43-.646-.764-.912-1.035-.264-.274-.53-.454-.69-.582-.173-.12-.27-.178-.27-.178l-.102-.059a.163.163 0 0 0-.155-.007.168.168 0 0 0-.084.222s.153.334.352.945c.203.606.424 1.501.603 2.585.18 1.082.288 2.37.206 3.734-.08 1.363-.36 2.81-.94 4.127-.295.652-.627 1.29-1.05 1.85-.413.574-.897 1.037-1.427 1.525-.51.475-.992.95-1.468 1.36a8.55 8.55 0 0 1-1.4 1.041c-.225.15-.462.261-.686.367-.22.107-.428.221-.637.298-.412.168-.766.328-1.08.426l-.967.338a.167.167 0 0 0-.097.096.16.16 0 0 0 .09.213l.12.05s.448.178 1.182.34c.36.106.84.15 1.387.162a6.297 6.297 0 0 0 1.908-.19c.352-.097.736-.192 1.084-.358.371-.158.73-.31 1.047-.496.346-.194.658-.35.955-.547.307-.2.61-.364.887-.563l.43-.295.501-.4c.168-.15.4-.385.592-.58l.514-.574a10.363 10.363 0 0 0 1.465-2.444c.615.115 1.254.231 1.92.355.767.145 1.566.295 2.388.473.828.15 1.68.322 2.553.504l5.484 1.137 5.87 1.188c1.994.434 4.003.95 5.988 1.542a74.88 74.88 0 0 1 5.846 2.006c1.91.721 3.728 1.563 5.468 2.416a54.404 54.404 0 0 1 4.842 2.774c1.486.968 2.846 1.963 4.01 2.982.59.502 1.142 1 1.631 1.508.515.487.957.99 1.37 1.47.428.464.774.94 1.102 1.377.344.428.633.84.87 1.23.513.75.847 1.384 1.07 1.817l.353.665.008.015a.188.188 0 0 0 .338-.16"/><path fill="#FFF" d="M168.201 224.102l-5.484-1.137c-.592-.123-1.16-.23-1.73-.342.634 2.491 2.118 8 2.968 8.68.978.783 5.53-3.877 7.238-6.596l-2.992-.605"/><path fill="#F5F5F5" d="M168.48 224.159c-1.522 2.943-4.614 4.389-5.651 4.804.412 1.173.812 2.09 1.127 2.34.978.784 5.529-3.876 7.238-6.595-.916-.186-1.82-.367-2.713-.55"/><path fill="#6F6F6E" d="M194.76 210.514c-2.691-2.195-3.26.071-5.461-1.78-1.322-1.116-3.701-2.349-5.387-1.247-3.074 2.011-3.527 4.69-2.804 8.367 2.533 12.916 20.629.352 13.652-5.34"/><path fill="#575756" d="M194.76 210.514c-.045-.037-.082-.062-.125-.095.711.874.582 2.412-2.211 5.331-4.93 5.153-9.633 1.49-11.383-.265.022.122.041.244.067.37 2.533 12.915 20.629.351 13.652-5.34"/><path fill="#FFD43B" d="M195.842 211.768c3.18 5.509-9.734 14.367-13.818 6.74 3.81 9.453 19.18-.789 13.818-6.74"/><path fill="#FFF" d="M203.57 207.043c-.53 2.655 4.425 11.855 13.062 15.82 8.634 3.963 14.568 2.688 16.455.32 3.599-4.515 4-11.569-11.313-17.015-13.957-4.964-17.65-1.88-18.203.875"/><path fill="#575756" d="M221.774 206.168c-4.09-1.455-7.291-2.215-9.8-2.498-.35 6.576.279 15.621 6.446 15.34 5.04-.232 6.768-6.62 8.227-10.809a45.484 45.484 0 0 0-4.873-2.033"/><path fill="#000" d="M221.774 206.168c-13.957-4.964-17.65-1.88-18.203.875-.115.573.04 1.46.418 2.522 4.785-2.627 9.164-.409 14.234.982 5.592 1.533 11.686 7.306 14.508 13.016.129-.124.252-.25.356-.38 3.599-4.515 4-11.569-11.313-17.015" opacity=".05"/><path fill="#FDD23A" d="M203.57 207.043c.554-2.756 4.247-5.839 18.204-.875 12.317 4.381 14.463 9.801 12.96 14.103 2.116-4.652.396-11.374-12.866-16.09-13.957-4.964-17.887-.565-18.438 2.191-.076.381-.021.881.133 1.452-.03-.295-.035-.564.008-.78m32.228 27.851a14.254 14.254 0 0 0-2.783-.34 8.329 8.329 0 0 0-1.145.043.265.265 0 0 0-.228.297.265.265 0 0 0 .031.086s.205.394.631.957c.42.568 1.062 1.311 1.898 2.061.844.746 1.858 1.55 3.076 2.159.047.024.102.042.153.064a93.822 93.822 0 0 0 1.801-4.14c-1.174-.595-2.375-.945-3.434-1.187m-3.02 8.67a14.223 14.223 0 0 0-2.68-.867c-.696-.151-1.137-.175-1.137-.175a.267.267 0 0 0-.27.344s.133.427.449 1.058c.313.642.809 1.49 1.498 2.392.598.768 1.325 1.602 2.209 2.352a66.179 66.179 0 0 0 2.278-3.87 16.825 16.825 0 0 0-2.346-1.233m-3.182 7.566c-.656-.755-1.465-1.284-2.207-1.7a8.818 8.818 0 0 0-2.006-.8c-.541-.147-.91-.176-.91-.176a.302.302 0 0 0-.324.273l.002.017s-.016.365.068.92c.074.557.246 1.297.565 2.088.324.78.759 1.647 1.43 2.387.402.425.903.79 1.41 1.16.88-.833 1.792-1.855 2.718-3.05-.23-.399-.47-.787-.746-1.119"/><path fill="#6F6F6E" d="M231.707 234.885s.268.354.781.836c.51.492 1.266 1.115 2.217 1.715.957.594 2.09 1.22 3.393 1.615 1.304.384 2.8.47 4.222.787 1.43.293 2.852.608 4.205.846 1.346.258 2.61.463 3.698.64 2.166.373 3.63.563 3.63.563.118.018.23-.07.247-.19a.233.233 0 0 0-.116-.226s-1.308-.683-3.297-1.62c-.99-.478-2.142-1.043-3.392-1.603-1.244-.582-2.588-1.144-3.928-1.723-1.344-.56-2.617-1.35-3.906-1.787-1.295-.419-2.582-.564-3.7-.627a14.012 14.012 0 0 0-2.8.13c-.699.1-1.123.233-1.123.233a.263.263 0 0 0-.13.411m-3.005 7.975s.23.383.686.924a14.578 14.578 0 0 0 2.02 1.969c.886.705 1.946 1.46 3.202 2.013 1.262.535 2.748.799 4.133 1.287 1.395.465 2.781.946 4.105 1.344 1.313.422 2.56.776 3.622 1.084 2.123.629 3.56.992 3.56.992a.22.22 0 0 0 .27-.157.226.226 0 0 0-.09-.24s-1.229-.835-3.108-2.006a127.601 127.601 0 0 0-3.205-2c-1.177-.728-2.457-1.448-3.726-2.185-1.28-.716-2.46-1.652-3.7-2.244-1.248-.575-2.515-.868-3.632-1.067a14.214 14.214 0 0 0-2.809-.21c-.713.019-1.15.098-1.15.098a.267.267 0 0 0-.213.31.249.249 0 0 0 .035.088m-4.472 5.92s.055.36.244.889c.18.532.492 1.226.959 1.937.469.705 1.06 1.472 1.865 2.069.817.582 1.89.929 2.819 1.474.939.525 1.869 1.068 2.777 1.527.89.479 1.748.896 2.48 1.254a55.725 55.725 0 0 0 2.465 1.168.225.225 0 0 0 .295-.115.228.228 0 0 0-.033-.23s-.693-.85-1.791-2.055c-.543-.608-1.174-1.324-1.875-2.057-.69-.748-1.461-1.493-2.221-2.258-.775-.75-1.402-1.686-2.181-2.316-.79-.613-1.686-.976-2.494-1.24a8.894 8.894 0 0 0-2.123-.4 5.666 5.666 0 0 0-.928.005.303.303 0 0 0-.264.33l.006.018z"/><path fill="#575756" d="M231.707 234.885a.24.24 0 0 1-.025-.268s4.875 2.176 6.83 2.795c3.644 1.16 15.564 4.318 15.564 4.318-.029.102-.12.171-.224.157 0 0-1.463-.19-3.629-.563-1.088-.177-2.352-.382-3.698-.64-1.353-.238-2.775-.553-4.205-.846-1.422-.318-2.918-.403-4.222-.787-1.303-.396-2.436-1.02-3.393-1.615a14.061 14.061 0 0 1-2.217-1.715 7.431 7.431 0 0 1-.78-.836m-3.04 7.888c-.004-.04.016-.066.023-.102 0 0 4.737 2.896 6.456 3.662 3.683 1.638 15.152 5.956 15.152 5.956l.004.016a.225.225 0 0 1-.272.17s-1.437-.365-3.56-.994c-1.063-.31-2.309-.662-3.62-1.084-1.326-.398-2.712-.88-4.107-1.344-1.385-.488-2.87-.752-4.133-1.287-1.256-.553-2.316-1.308-3.203-2.014a14.523 14.523 0 0 1-2.019-1.968 7.839 7.839 0 0 1-.686-.924.27.27 0 0 1-.035-.087m-4.303 5.727s2.725 2.96 3.89 3.853c2.269 1.736 9.845 6.661 9.845 6.661-.058.087-.165.127-.26.084 0 0-1.007-.439-2.465-1.168-.732-.358-1.59-.776-2.48-1.254-.909-.46-1.839-1.002-2.778-1.527-.927-.544-2.001-.893-2.817-1.475-.806-.597-1.398-1.363-1.867-2.069a8.729 8.729 0 0 1-.958-1.936c-.19-.528-.244-.89-.244-.89l-.006-.017c-.011-.114.053-.2.14-.262"/><path fill="#FDD23A" d="M238.051 188.27c7.301 7.187 8.281 18.992 6.162 30.852 12.055-13.475 33.248-42.203 15.922-44.159l-.057-.006c4.86 11.702-6.955 21.065-7.242 21.257-.32.212-4.555 3.786-7.01-4.352-1.552-5.153-8.574-10.899-12.013-12.878-1.619.589-3.241 1.204-4.871 1.821a65.547 65.547 0 0 1 9.109 7.465"/><path fill="#004586" d="M231.965 318.052c-.814 5.157-.986 19.065-26.516 22.417-22.097 2.898-45.416-24.902-79.7-20.385-29.02 3.821-25.56-12.004-23.837-19.533-6.017 12.951-12.125 29.875-9.953 29.85 20.1-.246 34.824-7.645 71.914 6.795 37.088 14.44 55.21 36.24 55.21 36.24s19.394-6.045 14.935-54.605a7.916 7.916 0 0 1-2.053-.779"/><path fill="#F9C930" d="M23.68 236.135c-1.42 1.223-2.66.863-3.484.306-.15 2.284.345 4.43 1.898 5.887a3.262 3.262 0 0 0 5.154-.824c-1.277-3.329-1.088-8.437-.498-10.373.618-2.027 1.969-5.573 3.977-6.906 2.422-1.609 4.553-2.815 6.437-3.703-14.617 5.422-10.943 13.425-13.484 15.613"/><path fill="#005DB4" d="M111.545 281.24c4.234-13.017 7.996-36.765 9.334-45.771.13.092.256.178.383.272a3.048 3.048 0 0 0-.45-.508s-4.716-1.758-13.859 6.422c-6.346 5.68-18.049 5.522-18.049 5.522s-12.28 23.074 1.594 31.85c7.383 4.67 15.672 1.04 21.047 2.214"/><path fill="#004586" d="M120.81 235.233s-1.735-.643-5.136.672c.783 10.397-4.656 31.818-10.1 36.754-4.562 4.135-18.757 2.053-21.618-5.322.324 4.547 2.072 8.863 6.543 11.69 7.382 4.67 15.67 1.04 21.046 2.214 4.235-13.018 7.996-36.766 9.334-45.773.129.093.256.179.383.273a2.966 2.966 0 0 0-.451-.508"/><path fill="#005DB4" d="M265.373 300.39c-3.963-2.124-17.412-29.163-23.498-37.374a25.166 25.166 0 0 0-3.74-4.035v.002a.225.225 0 0 1-.295.115s-1.008-.438-2.465-1.168c-.732-.358-1.59-.775-2.48-1.254-.909-.46-1.838-1.003-2.778-1.527-.504-.297-1.05-.536-1.576-.785-1.305 1.4-2.555 2.423-3.682 2.953-.726.34-3.064 1.584-6.888 2.888 0 0-.844 4.383-1.075 7.621a46.034 46.034 0 0 0-.103 2.35c-.268 13.87 4.572 39.996 14.322 47.342 10.334 7.787 38.223-15.004 34.258-17.129"/><path fill="#B1B1B1" d="M249.25 377.185c-1.027.363-.289 2.246-1.44 3.083-1.769 1.285-3.785.778-5.208-1.064-1.59-2.055-1.366-4.453-.219-6.52l-16.61-10.889a2.195 2.195 0 0 0-1.367-.236c-1.418.198-2.566 1.597-2.57 3.125 0 .983.473 1.783 1.19 2.173l74.988 49.164c-.56-.429-.916-1.14-.916-1.992.004-1.529 1.15-2.925 2.57-3.124.504-.072.973.019 1.37.236l-51.788-33.956z"/><path fill="#FFD43B" d="M260.531 371.159c-.697-1.982-3.197-3.13-5.132-3.652-2.465-.663-5.435-.202-7.8.664-4.174 1.535-8.151 6.957-4.998 11.033 1.424 1.843 3.44 2.35 5.208 1.064 2.281-1.66 2.108-4.783 4.925-3.222 2.035 1.126 4.26 1.972 6.525.564 2.387-1.487 2.282-2.363 2.36-2.814.088-.492-.074-1.952-1.088-3.637"/><path fill="#F9C930" d="M259.258 377.61c.395-.246.715-.473.986-.686-4.369 1.484-6.918-4.364-10.984-1.313-3.117 2.337-5.027 2.76-7.744-.382-.172 1.35.12 2.725 1.086 3.975 1.424 1.843 3.44 2.349 5.207 1.064 2.281-1.66 2.107-4.783 4.926-3.222 2.035 1.126 4.26 1.972 6.523.564"/><path fill="#FFE066" d="M245.8 381.181c-.685-1.999-2.868-5.196-5.37-3.568-.43-1.995-2.686-4.526-4.949-4.257-1.797.213-2.385 2.65-2.953 4.024.123-2.497.7-5.559-1.307-7.512-1.817-1.772-4.916-1.26-6.258.832-3.178 4.955-1.75 11.496.373 16.437.943 2.19 3.277 4.72 5.887 4.918 1 .076 1.45-.645 1.883.322.261.581.695 1.006 1.156 1.434.98.914 2.13 1.726 3.502 1.871.76.08 2.152-.604 2.748-.309 4.158 2.066 5.914-.41 6.494-1.053.484-.536.607-1.335.576-2.029-.015-.334-.738-8.048-1.783-11.11"/><path fill="#FFD43B" d="M245.643 391.89c-.713 1.99-2.93 2.938-4.664.39-1.45-4.743-1.018-5.91-1.018-5.91s-.185 2.902-1.92 5.483c-1.361 2.028-4.773-.333-5.511-1.423-.43-3.357-.407-10.092-.532-9.13-1.093 8.39-5.197 7.791-6.566 6.042.996 2.14 3.264 4.52 5.79 4.713 1 .076 1.45-.644 1.884.322.262.581.695 1.006 1.156 1.434.98.914 2.129 1.726 3.502 1.871.76.08 2.152-.604 2.748-.309 4.158 2.066 5.914-.41 6.494-1.053.485-.536.608-1.335.576-2.029-.011-.275-.507-5.566-1.265-9.13.162 1.923-.057 6.995-.674 8.73"/><path fill="#FFE066" d="M219.037 371.751s-8.428-35.265-32.242-37.619c-9.662-.956-21.783-1.224-29.336 8.75-9.78 12.913-11.22 48.901-11.22 48.901s4.673 25.174 9.341 22.826c2.816-1.416 3.881-1.059 5.38-2.103 12.374-8.625 15.335-36.817 15.182-35.799-.644 4.37 1.592 11.185 5.946 16.422 10.476 12.598 40.345-8.637 36.95-21.378"/><path fill="#F9C930" d="M182.088 393.13c-4.199-5.054-6.42-11.567-5.994-15.944-.307 2.516-1.986 14.048-6.438 23.722 9.244-.264 16.594-1.71 22.627-3.986-4.029.295-7.675-.764-10.195-3.793"/><path fill="#004586" d="M178.696 333.698c-15.023-7.004-31.922-16.384-52.947-13.613-29.02 3.82-25.561-12.004-23.836-19.533-6.018 12.95-12.125 29.875-9.953 29.848 20.095-.245 34.818-7.64 71.888 6.786 4.555-2.648 9.77-3.447 14.848-3.488"/><path fill="#F9C930" d="M147.395 378.096c-39.564 11.063-53.186-40.567-54.871-47.709l-.176.004c.147 7.23 2.668 60.346 44.865 67.69a224.24 224.24 0 0 0 10.768 1.613c-1.078-4.332-1.742-7.91-1.742-7.91s.234-5.856 1.156-13.688"/><path fill="#FFD43B" d="M179.444 365.33c.387-1.285.619-2.267.639-2.823.039-1.028-.22.245-.64 2.823m-10.39 30.895a6.165 6.165 0 0 0-6.166-6.167 6.138 6.138 0 0 0-3.633 1.19 6.164 6.164 0 0 0-11.805-.207 6.167 6.167 0 0 0-10.015 4.817c0 1.745.726 3.316 1.889 4.437.332 5.463 5.044 14.846 14.666 14.741 8.837-.1 12.162-8.52 12.664-13.933a6.149 6.149 0 0 0 2.4-4.878"/><path fill="#FF7474" d="M142.553 400.87c-1.596-.688-4.559-4.591-1.537-6.824 2.394-1.77 4.314.904 4.842 2.076.634 1.406 2.121 7.094-3.305 4.748m17.44-4.75c.688-1.596 3.806-5.217 6.81-1.271 1.54 2.023-.89 4.046-2.063 4.577-1.404.633-7.094 2.118-4.748-3.306m-9.117-.154c-1.023-1.405-1.594-6.272 2.143-6.658 2.962-.308 3.255 2.972 3.117 4.251-.168 1.53-1.78 7.184-5.26 2.407m10.043 10.036c-.785-2.27-2.73-2.738-4.256-2.529-.18-1.782-1.039-4.047-3.8-3.76-2.204.228-3.173 1.728-3.456 3.414-1.279-.188-3.54-.176-3.728 2.217-.264 3.351 1.492 4.244 3.482 5.191 1.38.654 2.3-.263 4.203-.133 1.907.133 3.088 1.184 4.864.592 1.461-.488 3.873-1.575 2.691-4.992"/><path fill="#000" d="M145.617 395.659c.096.959.03 2.158-.547 3.344-.726 1.495-2.789.89-4.428.097.586.854 1.336 1.522 1.911 1.77 5.425 2.346 3.94-3.342 3.304-4.748a4.752 4.752 0 0 0-.24-.463m19.124 3.766c1.171-.53 3.601-2.554 2.063-4.577-.123-.158-.244-.286-.363-.42-2.661 4.623-5.736 3.24-6.776 2.574-1.36 4.366 3.754 3.02 5.076 2.423m-14.608-5.913c.078 1.017.38 1.955.742 2.454 3.48 4.777 5.092-.877 5.26-2.407.025-.23.035-.524.02-.85a14.49 14.49 0 0 1-.823 1.764c-1.605 2.975-4.36.05-5.199-.96m10.787 12.496c-.623 1.802-3.955 2.835-5.303 1.487-1.629-1.629-3.679-1.486-5.52-.212-1.347.931-3.407-.859-4.42-1.889-.24 3.307 1.503 4.2 3.483 5.14 1.38.655 2.3-.263 4.203-.132 1.907.132 3.088 1.183 4.864.591 1.46-.486 3.871-1.574 2.693-4.985" opacity=".05"/><path fill="#F9C930" d="M166.483 402.41c-.551 1.504-2.242 4.77-4.424 7.138-1.861 2.02-4.742 3.398-7.574 2.406-3.113-1.09-2.938-.343-6.297-.424-6.758-.164-8.865-11.234-8.865-11.234.332 5.463 5.045 14.845 14.666 14.74 8.154-.092 11.61-7.266 12.494-12.625"/><path fill="#005DB4" d="M230.322 429.594c-2.03 2.552-2.405 5.918-3.053 9.172 19.977-16.86 50.264-10.492 70.764-26.54-11.393-5.796-20.207-13.614-31.601-19.409-10.228 18.418-34.596 17.684-44.596 38.623 2.25-2.44 4.813-.13 8.486-1.846"/><path fill="#C6C6C5" d="M299.668 410.878c1.418-.2 2.56.877 2.557 2.404-.004 1.528-1.153 2.93-2.567 3.13-1.42.198-2.562-.884-2.56-2.41.004-1.527 1.15-2.925 2.57-3.124"/><path fill="#004586" d="M265.373 300.39c-1.018-.546-2.662-2.738-4.643-5.825-3.894 9.121-11.263 18.496-22.228 17.377-17.645-1.8-19.125-32.18-20.645-42.012-.293-2.793-1.023-1.356-1.035-.71-.519 13.588 4.313 40.78 14.293 48.298 10.334 7.787 38.223-15.004 34.258-17.129"/><path fill="#E85061" d="M22.875 256.887a2.209 2.209 0 1 1-4.418 0 2.209 2.209 0 0 1 4.418 0m11.252-12.582a2.208 2.208 0 1 1-4.416-.002 2.208 2.208 0 0 1 4.416.002"/><path fill="#FFD43B" d="M34.662 241.613c1.066-4.548.285-10.22 6.967-10.574.765-.04 1.387.053 1.892.245-.943-.494-3.195-1.307-5.843.34-3.108 1.928-1.86 4.936-5.256 7.537-2.61 1.998-5.026-.29-6.01-1.461.387 3.803 1.787 7.508 5.143 6.764 2.086-.678 2.841-2.04 3.107-2.851"/><path fill="#F9C930" d="M38.235 220.045c-.18-.112-.238-.15 0 0m-14.065 6.71c1.803-2.042 6.846-5.25 11.693-7.07-4.69.014-11.84 3.825-14.373 6.032-1.925 1.678-4.379 3.225-5.892 5.304-2.05 2.817.697 5.207 3.08 4.22.66-.274 1.29-.74 1.912-1.282.687-2.816 2.117-5.548 3.58-7.205"/><path fill="#F9C930" d="M29.965 224.867l.105-.101c-.035.036-.07.066-.105.1m-1.375 1.881c.076-.133.152-.266.232-.395-.08.129-.154.262-.232.395m6.133-4.967a38.156 38.156 0 0 1 3.438-1.704h-.002a37.87 37.87 0 0 0-3.436 1.704"/><path fill="#004586" d="M223.026 366.857c-.717-.39-1.19-1.19-1.19-2.173.004-1.528 1.153-2.927 2.57-3.125.505-.071.974.022 1.368.236l2.824 1.852c4.129-7.708 7.584-21.246 5.42-44.815a7.932 7.932 0 0 1-2.053-.78c-.814 5.158-.986 19.066-26.515 22.417-1.32.174-2.647.23-3.977.198 12.715 10.832 17.565 31.085 17.565 31.085.14.523.205 1.065.234 1.615.703-.275 3.295-1.474 6.156-4.935l-2.402-1.575z"/><path fill="#E85061" d="M35.125 274.637a2.209 2.209 0 1 1-4.418 0 2.209 2.209 0 0 1 4.418 0"/><path fill="#005DB4" d="M37.875 267.387a2.209 2.209 0 1 1-4.418 0 2.209 2.209 0 0 1 4.418 0"/><path fill="#E85061" d="M22.08 278.17a2.21 2.21 0 1 1-2.464-3.669 2.21 2.21 0 0 1 2.464 3.668m-7.894 20.07a2.209 2.209 0 1 1-2.467-3.665 2.209 2.209 0 0 1 2.467 3.665"/><path fill="#005DB4" d="M21.737 296.476a2.208 2.208 0 1 1-2.466-3.665 2.208 2.208 0 0 1 2.466 3.665"/><path fill="#E85061" d="M37.875 291.887a2.209 2.209 0 1 1-4.418 0 2.209 2.209 0 0 1 4.418 0"/><path fill="#005DB4" d="M50.125 309.637a2.209 2.209 0 1 1-4.418 0 2.209 2.209 0 0 1 4.418 0"/><path fill="#E85061" d="M52.875 302.387a2.209 2.209 0 1 1-4.418 0 2.209 2.209 0 0 1 4.418 0"/><path fill="#005DB4" d="M38.125 309.387a2.209 2.209 0 1 1-4.418 0 2.209 2.209 0 0 1 4.418 0"/><path fill="#E85061" d="M40.875 302.137a2.209 2.209 0 1 1-4.418 0 2.209 2.209 0 0 1 4.418 0M25.08 312.92a2.21 2.21 0 1 1-2.464-3.668 2.21 2.21 0 0 1 2.464 3.668"/><path fill="#005DB4" d="M17.186 332.989a2.209 2.209 0 1 1-2.467-3.665 2.209 2.209 0 0 1 2.467 3.665"/><path fill="#E85061" d="M24.737 331.226a2.208 2.208 0 1 1-2.466-3.665 2.208 2.208 0 0 1 2.466 3.665"/><path fill="#005DB4" d="M40.875 326.637a2.209 2.209 0 1 1-4.418 0 2.209 2.209 0 0 1 4.418 0"/><path fill="#E85061" d="M53.125 344.387a2.209 2.209 0 1 1-4.418 0 2.209 2.209 0 0 1 4.418 0m2.75-7.25a2.209 2.209 0 1 1-4.418 0 2.209 2.209 0 0 1 4.418 0"/><path fill="#005DB4" d="M67.914 294.586a2.206 2.206 0 0 1 2.656 1.643 2.207 2.207 0 0 1-1.642 2.656 2.214 2.214 0 0 1-2.659-1.643 2.21 2.21 0 0 1 1.645-2.656"/><path fill="#E85061" d="M27.477 360.824a2.21 2.21 0 1 1 1.011 4.3 2.21 2.21 0 0 1-1.011-4.3"/><path fill="#005DB4" d="M9.004 342.68a2.209 2.209 0 1 1 4.135 1.555 2.209 2.209 0 0 1-4.135-1.556"/><path fill="#E85061" d="M24.05 338.5a2.21 2.21 0 0 1 2.845-1.288 2.21 2.21 0 0 1-1.559 4.135 2.208 2.208 0 0 1-1.287-2.847"/><path fill="#005DB4" d="M18.918 344.315a2.21 2.21 0 0 1 4.135 1.557 2.211 2.211 0 0 1-2.846 1.289 2.208 2.208 0 0 1-1.289-2.846"/><path fill="#E85061" d="M4.367 319.62a2.21 2.21 0 0 1-1.242 2.868 2.21 2.21 0 0 1-1.623-4.11 2.207 2.207 0 0 1 2.865 1.243"/><path fill="#005DB4" d="M4.262 311.868a2.208 2.208 0 1 1-4.107 1.623 2.208 2.208 0 0 1 4.107-1.623"/><path fill="#E85061" d="M44.418 361.72a2.209 2.209 0 1 1-4.418 0 2.209 2.209 0 0 1 4.418 0"/><path fill="#005DB4" d="M31.666 374.678a2.209 2.209 0 1 1-4.418 0 2.209 2.209 0 0 1 4.418 0"/><path fill="#E85061" d="M10.875 355.137a2.209 2.209 0 1 1-4.418 0 2.209 2.209 0 0 1 4.418 0m21.834-98.209a2.209 2.209 0 1 1-3.28 2.957 2.209 2.209 0 0 1 3.28-2.957"/><path fill="#005DB4" d="M29.897 249.703a2.209 2.209 0 1 1-3.28 2.955 2.209 2.209 0 0 1 3.28-2.955"/><path fill="#E85061" d="M39.598 265.574a2.209 2.209 0 1 1 2.556-3.603 2.209 2.209 0 0 1-2.556 3.603"/><path fill="#005DB4" d="M24.836 265.574a2.21 2.21 0 1 1 2.56-3.604 2.21 2.21 0 0 1-2.56 3.604"/><path fill="#FFE066" d="M286.787 282.065a6.247 6.247 0 0 0-.314-.676l-.038-.065s-.089-.164-.265-.482a31.688 31.688 0 0 0-.738-1.215 55.15 55.15 0 0 0-2.956-4.244c-1.38-1.751-3.113-3.857-5.617-5.994a29.622 29.622 0 0 0-2.03-1.593l-.563-.38c-.225-.154-.44-.29-.64-.408a19.45 19.45 0 0 0-1.278-.72 19.863 19.863 0 0 0-5.967-2.05c-2.199-.366-4.584-.39-6.92.082-2.338.459-4.594 1.374-6.629 2.572a26.553 26.553 0 0 0-2.91 1.993l-.678.555-.574.488-1.084.92c-.158.132-.324.265-.487.397a355.272 355.272 0 0 1 2.084 3.58c7.225-5.498 17.75-9.171 28.305 4.402 2.737 3.518 6.305 4.916 9.301 2.84l-.002-.002z"/><path fill="#FFD43B" d="M238.205 319.032c1.492 3.616 3.641 9.385 5 15.56.23 1.05.44 2.1.633 3.149-.16-6.02-2.768-16.323 2.621-17.188 10.5-1.684 15.014-4.511 18.988-11.8a75.563 75.563 0 0 0-1.732-4.315c-4.699 5.24-16.594 13.623-25.51 14.594"/><path fill="#FFF" d="M265.825 412.959l-.42.216c.139.103.234.178.344.26.026-.154.042-.269.075-.476m-6.23 3.348c.129-.177.254-.32.332-.474.043-.074.055-.219.002-.276-.152-.18-.59-.117-.695.096-.075.15-.122.315-.18.472.204.072.38.13.541.182m-9.851 1.363c.016.103.025.145.025.188.006.36.11.724-.13 1.065-.04.056.008.221.076.286.724.75 1.435 1.51 1.945 2.305.03.043.156.094.189.077.218-.115.492-.195.538-.475.046-.27.095-.556-.105-.808-.466-.61-.936-1.248-1.44-1.844a2.64 2.64 0 0 0-1.099-.794m8.118-2.596c.032.005.068.01.101.017.525-.834 1.353-.808 2.236-.694-.014-.084-.01-.144-.03-.202-.194-.502-.383-1.005-.592-1.502-.102-.238-.62-.563-.856-.522-.45.077-.847.26-1.159.582-.264.27-.22.584-.12.908.144.471.277.943.42 1.413m8.625-3.389c-.02-.132-.009-.257-.048-.367a6.75 6.75 0 0 0-1.726-2.59c-.069-.063-.25-.122-.288-.084-.322.27-.651.555-.584 1.017.067.48.127.96.25 1.421.074.283.264.536.408.808.654-.371 1.3-.243 1.988-.204m-9.143 5.29c.059-.322.12-.65.188-1.03-.613-.658-.934-1.53-1.25-2.405-.353-.974.389-1.955 1.123-2.27 1.501-.649 2.825-.3 4.023.667.315.259.61.55.853.869.233.303.385.66.584 1.006.26-.377.524-.762.793-1.159-.495-.512-.937-1.041-1.192-1.685-.11-.281-.238-.561-.313-.853-.237-.88.087-1.61.68-2.286.623-.707 1.438-.993 2.385-.96.727.026 1.397.284 1.907.769 1.11 1.05 1.875 2.303 1.957 3.796.058 1.024-.272 1.995-1.12 2.724-.633.546-1.553.613-2.446.088-.106-.065-.214-.125-.31-.197-.286-.212-.286-.218-.502.07a9.038 9.038 0 0 0-.375.543c-.312.493-.769.627-1.334.375-.072.327-.149.65-.22.976-.162.748-.627 1.3-1.287 1.714-.346.219-1.118.168-1.416-.147-.252-.266-.57-.375-.882-.514-.12-.052-.255-.077-.39-.12-.1.378-.207.8-.327 1.219-.058.21-.188.37-.423.428-.267.06-.488-.031-.678-.202-.052-.046-.11-.082-.16-.121-.04.075-.092.149-.115.226-.058.214-.064.447-.163.637-.139.263-.44.316-.72.262a.703.703 0 0 1-.571-.516 6.054 6.054 0 0 0-1.242-2.288 4.054 4.054 0 0 0-.633-.587.53.53 0 0 0-.416-.063c-.435.14-.856.317-1.228.457.294.589.604 1.147.86 1.726.417.947.552 1.974.383 2.928-.085.486-.309.894-.865 1.091-.16.056-.394.015-.518.096-.137.085-.151.282-.268.392-.227.22-.733.178-1.006-.043-.988-.786-2.078-1.488-3.184-2.16a5.057 5.057 0 0 0-1.337-.543c-.529-.13-.947-.852-.894-1.38.07-.727.582-1.031 1.218-.942.157.022.323.048.476.106.186.065.233.017.225-.172-.043-.846.16-1.534.976-2.017a2.634 2.634 0 0 1 1.383-.394c.172 0 .292-.04.4-.181.3-.397.79-.53 1.23-.74.674-.325 1.374-.6 2.132-.664.9-.087 1.645.279 2.238.885.401.413.773.86 1.083 1.336.19.294.235.666.361 1 .038.106.125.198.192.298.046-.014.089-.03.135-.046m19.363-10.51c-.068.493-.14.901-.248 1.304-.203.773-.98 1.591-2.092 1.466a3.25 3.25 0 0 1-1.306-.44c-.473-.283-.952-.534-1.405-.83-.22-.146-.388-.36-.597-.53-.514-.418-1.055-.85-1.608-1.316-.318-.267-.639-.55-.96-.827-.075-.068-.159-.125-.237-.182-.027.325-.039.626-.098.905-.119.57-.773.861-1.3.801-.58-.065-1.077-.499-1.143-1.08-.096-.843-.135-1.72.21-2.585.548-1.392 1.46-1.996 2.677-1.224.591.371 1.156.97 1.76 1.511.597.534 1.228 1.088 1.804 1.645.361.342.666.751.998 1.086.481.474.955.9 1.391 1.295l.53.485c.151-.2.294-.378.421-.562.346-.5.308-1.148.236-1.825-.002-.032-.043-.072-.072-.098-.916-.826-1.889-1.748-2.88-2.658a23.804 23.804 0 0 0-1.614-1.374c-.547-.415-1.063-.834-1.637-.927-.443-.074-.699-.615-.627-1.09.065-.425.486-.763.938-.68.478.09.984.222 1.455.508a23.313 23.313 0 0 1 3.05 2.242 103.433 103.433 0 0 1 3.823 3.521c1.13 1.087 1.994 1.996 3.021 3.06.567.586 1.137 1.304 1.774 2.037.213.244.435.506.595.797.336.605.42 1.396-.214 1.75-.293.163-.983.101-1.522-.536-.637-.75-1.25-1.5-1.85-2.176-.533-.607-1.066-1.152-1.548-1.658-.6-.632-1.123-1.167-1.725-1.816m-34.97 12.663c-.166-1.175-.625-1.767-1.15-1.86.056.713.545 1.277 1.15 1.86m1.162 2.122c.19-.185.37-.393.57-.583.43-.4.938-.382 1.454-.174.687.28 1.339.697 1.769 1.337.385.58.787 1.113 1.088 1.673.289.53.088.993-.422 1.327-.484.315-1.08.215-1.461-.123-.21-.187-.242-.418-.308-.65-.065-.212-.22-.412-.342-.607-.166-.274-.326-.55-.52-.817-.11-.158-.265-.287-.41-.423-.035-.036-.125-.054-.176-.042-.25.074-.386.432-.281.656.213.45.416.903.609 1.376.125.3.225.613.33.943.124.374-.048.808-.386.96-.328.147-.758-.019-.998-.486-.184-.36-.342-.713-.541-1.023-.172-.272-.405-.494-.586-.742-.196-.268-.37-.547-.555-.809a5.066 5.066 0 0 0-.254-.333c-.36.534-.687 1.035-1.05 1.58-.133.205-.215.483-.577.551-.228.047-.441.015-.597-.134-.172-.158-.282-.346-.137-.562a38.7 38.7 0 0 1 .875-1.222c.133-.177.265-.358.392-.539.143-.2.297-.399.413-.618a.425.425 0 0 0 .02-.326c-.16-.414-.364-.838-.558-1.329-.154-.384-.302-.779-.527-1.138a4.206 4.206 0 0 1-.553-1.426c-.088-.409-.09-.858.25-1.129.155-.127.42-.193.664-.203.59-.025 1.192.135 1.64.598.396.411.714.875.9 1.378.283.761.248 1.507.048 2.25-.086.31-.078.375.217.81m-4.842-1.068c0-.623-.348-1.129-.773-1.129-.426 0-.772.506-.772 1.13 0 .623.346 1.13.772 1.13.425 0 .773-.507.773-1.13"/><path fill="#FDD23A" d="M131.25 200.87c.865-.465-3.869-2.561-4.223-2.711a13.495 13.495 0 0 0-3.105-.877 52.985 52.985 0 0 0-1.52 4.51c2.764.599 5.553.674 8.848-.922m-2.422 9.026c.812-.386-3.428-1.803-3.764-1.944a15.009 15.009 0 0 0-3.904-1.028 71.175 71.175 0 0 0-.756 4.622c2.795.132 5.588-.292 8.424-1.65m-8.83 12.44c3.807.166 8.635-2.76 9.131-4.193.111-.938-1.668-1.05-2.432-1.305-2.219-.73-4.053-.466-6.242.184-.193.057-.39.105-.584.16a89.564 89.564 0 0 0-.16 5.12c.094.011.195.03.287.034"/><path fill="#6F6F6E" d="M131.104 200.819s-.467.148-1.236.257c-.774.12-1.852.2-3.09.138-1.24-.071-2.658-.227-4.086-.696-1.422-.486-2.826-1.357-4.31-1.975-1.477-.643-2.96-1.263-4.333-1.908-1.38-.621-2.648-1.243-3.744-1.772-2.191-1.038-3.631-1.796-3.631-1.796a.246.246 0 0 1-.103-.33.247.247 0 0 1 .248-.127s1.613.21 4.002.629c1.199.197 2.597.422 4.082.71 1.492.265 3.06.61 4.639.94 1.568.348 3.22.446 4.658.869 1.437.444 2.69 1.13 3.74 1.786a15.694 15.694 0 0 1 2.445 1.894c.565.539.862.925.862.925a.291.291 0 0 1-.051.409.47.47 0 0 1-.092.047m-2.356 9.103s-.449.2-1.203.397c-.762.207-1.826.41-3.076.496-1.244.073-2.684.08-4.168-.22-1.479-.319-2.987-1.023-4.547-1.465-1.553-.468-3.11-.913-4.557-1.394-1.453-.455-2.803-.929-3.957-1.326a106.959 106.959 0 0 1-3.846-1.365.24.24 0 0 1-.142-.31.247.247 0 0 1 .23-.16s1.643.023 4.08.16c1.221.056 2.645.123 4.165.234 1.523.09 3.138.254 4.751.396 1.612.168 3.272.073 4.766.328 1.486.271 2.82.811 3.951 1.341a15.782 15.782 0 0 1 2.672 1.597c.63.47.973.818.973.818a.296.296 0 0 1-.092.473m.276 8.182s-.281.291-.785.647a9.701 9.701 0 0 1-2.098 1.14c-.867.338-1.89.654-2.998.682-1.103.006-2.295-.362-3.478-.459-1.18-.125-2.364-.225-3.477-.387-1.107-.135-2.146-.305-3.033-.445-1.78-.268-2.97-.512-2.97-.512a.248.248 0 0 1-.19-.291.254.254 0 0 1 .177-.188s1.165-.326 2.922-.717c.875-.204 1.899-.448 2.996-.661 1.098-.241 2.27-.422 3.44-.629 1.174-.182 2.34-.631 3.439-.704 1.104-.052 2.143.192 3.039.465a9.822 9.822 0 0 1 2.17.99c.528.321.834.59.834.59a.333.333 0 0 1 .028.467l-.016.012z"/><path fill="#575756" d="M131.104 200.819a.47.47 0 0 0 .092-.047.282.282 0 0 0 .103-.18s-5.783-1.134-7.94-1.818c-4.023-1.27-16.79-5.993-16.79-5.993-.035.11.002.233.105.286 0 0 1.44.758 3.63 1.796 1.097.529 2.366 1.15 3.745 1.772 1.373.645 2.856 1.265 4.334 1.908 1.483.618 2.887 1.489 4.309 1.975 1.428.469 2.846.625 4.086.696a15.594 15.594 0 0 0 3.09-.138 8.582 8.582 0 0 0 1.236-.257m-2.268 9.044c.027-.03.03-.067.043-.104 0 0-6.113-.396-8.15-.797-4.366-.86-17.455-4.253-17.455-4.253l-.016.012c-.053.137.01.28.137.327 0 0 1.53.585 3.845 1.363 1.155.396 2.504.87 3.957 1.326 1.446.48 3.004.926 4.557 1.394 1.561.442 3.068 1.145 4.547 1.463 1.484.3 2.924.294 4.168.22a16.34 16.34 0 0 0 3.076-.494 8.579 8.579 0 0 0 1.203-.397.313.313 0 0 0 .088-.06m.244 7.905s-4.34.941-5.955 1.004c-3.154.126-13.119-.242-13.119-.242.002.113.068.217.18.24 0 0 1.19.244 2.968.512.887.14 1.926.31 3.033.445 1.114.162 2.297.262 3.477.387 1.184.097 2.375.465 3.48.459 1.106-.028 2.13-.344 2.997-.682a9.691 9.691 0 0 0 2.097-1.14c.504-.356.785-.647.785-.647l.016-.012c.084-.094.078-.213.041-.324"/><path fill="#FFD43B" d="M219.037 371.751s-8.428-35.265-32.242-37.619c-4.455-.442-9.43-.725-14.242.066 11.744.16 15.695 5.252 16.773 7.185-9.883 5.066-13.232 35.803-13.232 35.803v.003l.037 2.674c.447 4.104 2.55 9.166 5.957 13.266 10.476 12.598 40.345-8.637 36.95-21.378"/><path fill="#FFD43B" d="M168.43 393.536a6.147 6.147 0 0 1-1.777 7.567c-.297 3.214-1.604 7.477-4.453 10.44 10.203-8.618 13.455-30.75 13.894-34.357 0 0 .158-1.461.51-3.796-2.524 6.629-5.881 14.715-8.174 20.146"/><path fill="#FFF" d="M215.207 26.187a2.206 2.206 0 0 1 2.656 1.643 2.207 2.207 0 0 1-1.642 2.656 2.214 2.214 0 0 1-2.659-1.643 2.21 2.21 0 0 1 1.645-2.656m22.143 0a2.209 2.209 0 1 1 1.016 4.299 2.209 2.209 0 0 1-1.016-4.299m-10.563 5.767c.613-.062.785-.467 1.072-.355.955.37 1.596 1.17 1.135 1.99-1.03 1.834-1.252 2.066-2.195 2.06-.96-.006-1.399-.664-2.223-2.135-.42-.75.018-1.406.881-1.795.363-.164.791.29 1.33.235m26.19 46.939a2.206 2.206 0 0 1 2.656 1.643 2.207 2.207 0 0 1-1.642 2.656 2.214 2.214 0 0 1-2.66-1.643 2.21 2.21 0 0 1 1.646-2.656m22.142 0a2.209 2.209 0 1 1 1.017 4.299 2.209 2.209 0 0 1-1.017-4.299m-10.562 5.767c.613-.062.785-.467 1.072-.355.955.37 1.596 1.17 1.135 1.99-1.031 1.834-1.252 2.066-2.195 2.06-.961-.006-1.4-.664-2.223-2.135-.42-.75.018-1.406.88-1.795.364-.164.792.29 1.33.235m64.575-28.433a2.207 2.207 0 1 1 .248 4.409 2.208 2.208 0 0 1-.248-4.409m-11.406 3.833c.615.046.855-.322 1.117-.162.877.532 1.367 1.433.772 2.158-1.336 1.625-1.596 1.816-2.522 1.645-.945-.173-1.262-.898-1.816-2.491-.283-.81.26-1.38 1.179-1.613.387-.099.729.424 1.27.463"/></g></svg>