<svg xmlns="http://www.w3.org/2000/svg" xmlns:xlink="http://www.w3.org/1999/xlink" width="454" height="493" viewBox="0 0 454 493"><defs><path id="pricing-banner-a" d="M.117.557H71.37v39.381H.117z"/><path id="pricing-banner-c" d="M.249.437h20.365v37.67H.249z"/><path id="pricing-banner-e" d="M.249.437h20.365v37.67H.249z"/></defs><g fill="none" fill-rule="evenodd"><g fill-rule="nonzero"><path fill="#1D1D1B" d="M308.337 399.233l-165.593-57.452a10.9 10.9 0 0 0-2.218-.51L27.143 302.799c-4.15-1.42-6.868.92-6.036 5.21L43.85 426.22a15.225 15.225 0 0 0 9.053 10.377l115.38 39.137 37.233 12.917c.585.2 1.186.348 1.797.443a5.74 5.74 0 0 0 3.106.144 14.95 14.95 0 0 0 8.62-3.182l90.84-78.994c3.295-2.872 2.607-6.386-1.542-7.828z" opacity=".03"/><path fill="#005DB4" d="M289.399 311.58c-8.565-25.922-28.412-13.959-42.092-.178h-1.919v1.985c-5.491 5.832-3.328 3.093-2.219 7.162 3.883 14.69 13.502 24.391 15.166 26.509 3.872 4.834-1.11-6.109 22.422-9.468 10.273-1.464 14.422 6.098 15.254 5.543.832-.554 2.718-3.304-6.612-31.553z"/><path fill="#FFD43B" d="M197.383 71.713c-19.97 5.932-41.226 21.254-48.526 42.696-4.537 13.305-2.352 28.106-6.823 41.31-2.496 7.373-7.555 11.852-13.48 15.589a.366.366 0 0 0 .123-.078c-16.708 9.48-31.297.953-40.816-15.522l.078.122c-.932-1.785-2.862-6.02-2.951-6.253-3.328-9.424-8.376-14.29-15.632-7.694-5.547 5.067-2.796 13.05.522 18.593 8.875 14.29 21.079 27.274 37.065 29.879 16.642 2.716 36.678-8.16 44.61-25.034 8.876-18.848 1.598-43.916 17.285-58.839 10.95-10.422 23.21-16.719 36.544-18.26a83.694 83.694 0 0 0-7.999-16.509z"/><path fill="#313335" d="M210.907 437.494a1.264 1.264 0 0 1-.466-2.35l4.038-3.504a4.573 4.573 0 0 1 4.06-.776l5.07 1.763a1.264 1.264 0 0 1 .467 2.35l-4.028 3.504a4.584 4.584 0 0 1-4.06.776l-5.081-1.763z"/><path fill="#FFF" d="M210.907 437.494a1.264 1.264 0 0 1-.466-2.35l4.039-3.504a4.573 4.573 0 0 1 4.06-.776l5.07 1.762a1.264 1.264 0 0 1 .466 2.35l-4.027 3.504a4.584 4.584 0 0 1-4.06.776l-5.082-1.762z" opacity=".25" style="mix-blend-mode:screen"/><path fill="#313335" d="M184.192 442.05a1.264 1.264 0 0 1-.466-2.339l4.038-3.503a4.573 4.573 0 0 1 4.06-.776l5.07 1.763a1.264 1.264 0 0 1 .467 2.35l-4.027 3.504a4.573 4.573 0 0 1-4.06.776l-5.082-1.774z"/><path fill="#FFF" d="M184.191 442.05a1.264 1.264 0 0 1-.465-2.339l4.038-3.503a4.573 4.573 0 0 1 4.06-.776l5.07 1.762a1.264 1.264 0 0 1 .466 2.35l-4.027 3.504a4.573 4.573 0 0 1-4.06.776l-5.082-1.773z" opacity=".25" style="mix-blend-mode:screen"/><path fill="#313335" d="M195.563 432.172a1.264 1.264 0 0 1-.454-2.35l4.027-3.504a4.584 4.584 0 0 1 4.06-.776l5.07 1.763a1.264 1.264 0 0 1 .466 2.35l-4.027 3.504a4.584 4.584 0 0 1-4.06.776l-5.082-1.763z"/><path fill="#FFF" d="M195.564 432.172a1.264 1.264 0 0 1-.454-2.35l4.027-3.504a4.584 4.584 0 0 1 4.06-.776l5.07 1.763a1.264 1.264 0 0 1 .466 2.35l-4.027 3.504a4.584 4.584 0 0 1-4.06.776l-5.082-1.763z" opacity=".25" style="mix-blend-mode:screen"/><path fill="#313335" d="M168.86 436.674a1.264 1.264 0 0 1-.466-2.35l4.027-3.504a4.584 4.584 0 0 1 4.06-.776l5.026 1.807a1.264 1.264 0 0 1 .466 2.35l-4.027 3.504a4.573 4.573 0 0 1-4.06.776l-5.026-1.807z"/><path fill="#FFF" d="M168.86 436.674a1.264 1.264 0 0 1-.466-2.35l4.027-3.504a4.584 4.584 0 0 1 4.06-.776l5.027 1.807a1.264 1.264 0 0 1 .466 2.35l-4.028 3.504a4.573 4.573 0 0 1-4.06.776l-5.026-1.807z" opacity=".25" style="mix-blend-mode:screen"/><path fill="#313335" d="M209.243 423.103a1.264 1.264 0 0 1-.466-2.35l4.038-3.504a4.562 4.562 0 0 1 4.05-.776l18.06 6.264a1.264 1.264 0 0 1 .467 2.35l-4.027 3.504a4.562 4.562 0 0 1-4.06.776l-18.062-6.264z"/><path fill="#FFF" d="M209.242 423.103a1.264 1.264 0 0 1-.466-2.35l4.039-3.504a4.562 4.562 0 0 1 4.05-.776l18.06 6.264a1.264 1.264 0 0 1 .467 2.35l-4.028 3.504a4.562 4.562 0 0 1-4.06.776l-18.062-6.264z" opacity=".25" style="mix-blend-mode:screen"/><path fill="#313335" d="M180.22 426.85a1.264 1.264 0 0 1-.466-2.35l4.027-3.503a4.573 4.573 0 0 1 4.06-.776l5.071 1.751a1.264 1.264 0 0 1 .466 2.35l-4.027 3.504a4.584 4.584 0 0 1-4.06.776l-5.07-1.751z"/><path fill="#FFF" d="M180.22 426.85a1.264 1.264 0 0 1-.466-2.35l4.027-3.504a4.573 4.573 0 0 1 4.06-.776l5.07 1.752a1.264 1.264 0 0 1 .467 2.35l-4.027 3.504a4.584 4.584 0 0 1-4.06.776l-5.071-1.752z" opacity=".25" style="mix-blend-mode:screen"/><path fill="#313335" d="M153.516 431.407a1.264 1.264 0 0 1-.466-2.35l4.05-3.47a4.584 4.584 0 0 1 4.06-.776l5.07 1.762a1.264 1.264 0 0 1 .455 2.35l-4.027 3.504a4.573 4.573 0 0 1-4.06.776l-5.082-1.796z"/><path fill="#FFF" d="M153.516 431.407a1.264 1.264 0 0 1-.466-2.35l4.05-3.47a4.584 4.584 0 0 1 4.06-.776l5.07 1.762a1.264 1.264 0 0 1 .455 2.35l-4.027 3.504a4.573 4.573 0 0 1-4.06.776l-5.082-1.796z" opacity=".25" style="mix-blend-mode:screen"/><path fill="#313335" d="M227.748 415.686a1.264 1.264 0 0 1-.455-2.35l4.027-3.504a4.573 4.573 0 0 1 4.06-.776l10.962 3.803a1.264 1.264 0 0 1 .466 2.35l-4.039 3.504a4.584 4.584 0 0 1-4.06.776l-10.961-3.803z"/><path fill="#FFF" d="M227.748 415.686a1.264 1.264 0 0 1-.454-2.35l4.027-3.503a4.573 4.573 0 0 1 4.06-.777l10.961 3.803a1.264 1.264 0 0 1 .466 2.35l-4.038 3.504a4.584 4.584 0 0 1-4.06.776l-10.962-3.803z" opacity=".25" style="mix-blend-mode:screen"/><path fill="#313335" d="M193.71 417.693a1.264 1.264 0 0 1-.465-2.34l4.027-3.503a4.573 4.573 0 0 1 4.06-.776l5.07 1.763a1.264 1.264 0 0 1 .467 2.35l-4.039 3.504a4.573 4.573 0 0 1-4.06.776l-5.06-1.774z"/><path fill="#FFF" d="M193.71 417.693a1.264 1.264 0 0 1-.465-2.34l4.027-3.503a4.573 4.573 0 0 1 4.06-.776l5.07 1.763a1.264 1.264 0 0 1 .466 2.35l-4.038 3.504a4.573 4.573 0 0 1-4.06.776l-5.06-1.774z" opacity=".25" style="mix-blend-mode:screen"/><path fill="#313335" d="M245.01 407.848a1.264 1.264 0 0 1-.466-2.35l4.028-3.504a4.573 4.573 0 0 1 4.06-.776l5.07 1.762a1.264 1.264 0 0 1 .466 2.35l-4.038 3.504a4.573 4.573 0 0 1-4.06.776l-5.06-1.762z"/><path fill="#FFF" d="M245.01 407.848a1.264 1.264 0 0 1-.465-2.35l4.027-3.504a4.573 4.573 0 0 1 4.06-.776l5.07 1.763a1.264 1.264 0 0 1 .467 2.35l-4.039 3.504a4.573 4.573 0 0 1-4.06.776l-5.06-1.763z" opacity=".25" style="mix-blend-mode:screen"/><path fill="#313335" d="M164.866 421.529a1.264 1.264 0 0 1-.466-2.35l4.027-3.504a4.573 4.573 0 0 1 4.06-.776l5.07 1.763a1.264 1.264 0 0 1 .467 2.35l-4.039 3.504a4.573 4.573 0 0 1-4.06.787l-5.06-1.774z"/><path fill="#FFF" d="M164.866 421.53a1.264 1.264 0 0 1-.466-2.351l4.027-3.504a4.573 4.573 0 0 1 4.06-.776l5.07 1.763a1.264 1.264 0 0 1 .466 2.35l-4.038 3.504a4.573 4.573 0 0 1-4.06.787l-5.06-1.774z" opacity=".25" style="mix-blend-mode:screen"/><path fill="#313335" d="M213.004 410.575a1.264 1.264 0 0 1-.466-2.35l4.027-3.504a4.584 4.584 0 0 1 4.06-.776l5.07 1.763a1.264 1.264 0 0 1 .466 2.35l-4.038 3.504a4.584 4.584 0 0 1-4.06.776l-5.06-1.763z"/><path fill="#FFF" d="M213.003 410.575a1.264 1.264 0 0 1-.466-2.35l4.027-3.504a4.584 4.584 0 0 1 4.06-.776l5.071 1.763a1.264 1.264 0 0 1 .466 2.35l-4.038 3.504a4.584 4.584 0 0 1-4.06.776l-5.06-1.763z" opacity=".25" style="mix-blend-mode:screen"/><path fill="#313335" d="M178.09 412.282a1.264 1.264 0 0 1-.466-2.35l4.027-3.504a4.573 4.573 0 0 1 4.06-.776l5.07 1.763a1.264 1.264 0 0 1 .467 2.35l-4.027 3.504a4.562 4.562 0 0 1-4.06.776l-5.07-1.763z"/><path fill="#FFF" d="M178.09 412.282a1.264 1.264 0 0 1-.466-2.35l4.027-3.504a4.573 4.573 0 0 1 4.06-.776l5.07 1.763a1.264 1.264 0 0 1 .467 2.35l-4.028 3.504a4.562 4.562 0 0 1-4.06.776l-5.07-1.763z" opacity=".25" style="mix-blend-mode:screen"/><path fill="#313335" d="M198.248 405.453a1.264 1.264 0 0 1-.466-2.35l4.028-3.504a4.584 4.584 0 0 1 4.06-.776l5.07 1.763a1.264 1.264 0 0 1 .466 2.35l-4.038 3.503a4.584 4.584 0 0 1-4.06.788l-5.06-1.774z"/><path fill="#FFF" d="M198.248 405.452a1.264 1.264 0 0 1-.466-2.35l4.028-3.503a4.584 4.584 0 0 1 4.06-.777l5.07 1.763a1.264 1.264 0 0 1 .466 2.35l-4.038 3.504a4.584 4.584 0 0 1-4.06.787l-5.06-1.774z" opacity=".25" style="mix-blend-mode:screen"/><path fill="#313335" d="M162.48 406.86a1.264 1.264 0 0 1-.465-2.35l4.038-3.503a4.562 4.562 0 0 1 4.05-.776l5.07 1.763a1.264 1.264 0 0 1 .465 2.35l-4.038 3.504a4.562 4.562 0 0 1-4.06.776l-5.06-1.763z"/><path fill="#FFF" d="M162.48 406.86a1.264 1.264 0 0 1-.466-2.35l4.038-3.503a4.562 4.562 0 0 1 4.05-.776l5.07 1.763a1.264 1.264 0 0 1 .466 2.35l-4.038 3.504a4.562 4.562 0 0 1-4.06.776l-5.06-1.763z" opacity=".25" style="mix-blend-mode:screen"/><path fill="#313335" d="M107.486 415.431a1.264 1.264 0 0 1-.466-2.34l4.028-3.503a4.573 4.573 0 0 1 4.06-.776l5.07 1.763a1.264 1.264 0 0 1 .455 2.35l-4.027 3.504a4.573 4.573 0 0 1-4.05.776l-5.07-1.774z"/><path fill="#FFF" d="M107.486 415.431a1.264 1.264 0 0 1-.466-2.339l4.027-3.503a4.573 4.573 0 0 1 4.06-.776l5.07 1.762a1.264 1.264 0 0 1 .456 2.35l-4.027 3.504a4.573 4.573 0 0 1-4.05.776l-5.07-1.774z" opacity=".25" style="mix-blend-mode:screen"/><path fill="#313335" d="M146.882 401.45a1.264 1.264 0 0 1-.466-2.35l4.027-3.448a4.573 4.573 0 0 1 4.06-.776l5.07 1.763a1.264 1.264 0 0 1 .467 2.35l-4.04 3.504a4.584 4.584 0 0 1-4.06.776l-5.059-1.819z"/><path fill="#FFF" d="M146.882 401.45a1.264 1.264 0 0 1-.466-2.35l4.027-3.448a4.573 4.573 0 0 1 4.06-.776l5.07 1.762a1.264 1.264 0 0 1 .466 2.35l-4.038 3.504a4.584 4.584 0 0 1-4.06.776l-5.06-1.818z" opacity=".25" style="mix-blend-mode:screen"/><path fill="#313335" d="M118.858 405.553a1.264 1.264 0 0 1-.455-2.35l4.027-3.504a4.573 4.573 0 0 1 4.06-.776l5.093 1.762a1.264 1.264 0 0 1 .466 2.35l-4.027 3.504a4.573 4.573 0 0 1-4.06.787l-5.104-1.773z"/><path fill="#FFF" d="M118.859 405.552a1.264 1.264 0 0 1-.455-2.35l4.027-3.504a4.573 4.573 0 0 1 4.06-.776l5.093 1.763a1.264 1.264 0 0 1 .466 2.35l-4.028 3.504a4.573 4.573 0 0 1-4.06.787l-5.103-1.774z" opacity=".25" style="mix-blend-mode:screen"/><path fill="#313335" d="M92.154 410.065a1.264 1.264 0 0 1-.466-2.35l4.027-3.504a4.584 4.584 0 0 1 4.06-.776l5.071 1.763a1.264 1.264 0 0 1 .466 2.35l-4.038 3.504a4.584 4.584 0 0 1-4.06.776l-5.06-1.763z"/><path fill="#FFF" d="M92.154 410.065a1.264 1.264 0 0 1-.466-2.35l4.027-3.504a4.584 4.584 0 0 1 4.06-.776l5.07 1.763a1.264 1.264 0 0 1 .467 2.35l-4.039 3.504a4.584 4.584 0 0 1-4.06.776l-5.06-1.763z" opacity=".25" style="mix-blend-mode:screen"/><path fill="#313335" d="M168.738 395.22a1.264 1.264 0 0 1-.466-2.351l4.038-3.503a4.584 4.584 0 0 1 4.06-.777l5.07 1.763a1.264 1.264 0 0 1 .466 2.35l-4.027 3.504a4.573 4.573 0 0 1-4.06.787l-5.081-1.774z"/><path fill="#FFF" d="M168.738 395.22a1.264 1.264 0 0 1-.466-2.351l4.038-3.503a4.584 4.584 0 0 1 4.061-.777l5.07 1.763a1.264 1.264 0 0 1 .466 2.35l-4.027 3.504a4.573 4.573 0 0 1-4.06.787l-5.082-1.774z" opacity=".25" style="mix-blend-mode:screen"/><path fill="#313335" d="M131.272 396.04a1.264 1.264 0 0 1-.466-2.34l4.028-3.503a4.562 4.562 0 0 1 4.06-.776l5.081 1.796a1.264 1.264 0 0 1 .466 2.34l-4.038 3.503a4.562 4.562 0 0 1-4.06.776l-5.07-1.796z"/><path fill="#FFF" d="M131.273 396.04a1.264 1.264 0 0 1-.466-2.34l4.027-3.503a4.562 4.562 0 0 1 4.06-.776l5.082 1.796a1.264 1.264 0 0 1 .466 2.34l-4.039 3.503a4.562 4.562 0 0 1-4.06.776l-5.07-1.796z" opacity=".25" style="mix-blend-mode:screen"/><path fill="#313335" d="M76.81 404.788a1.264 1.264 0 0 1-.465-2.35l4.027-3.46a4.584 4.584 0 0 1 4.06-.776l5.07 1.763a1.264 1.264 0 0 1 .467 2.35l-4.039 3.504a4.584 4.584 0 0 1-4.06.776l-5.06-1.807z"/><path fill="#FFF" d="M76.81 404.787a1.264 1.264 0 0 1-.466-2.35l4.027-3.46a4.584 4.584 0 0 1 4.06-.775l5.07 1.762a1.264 1.264 0 0 1 .467 2.35l-4.039 3.504a4.584 4.584 0 0 1-4.06.776l-5.059-1.807z" opacity=".25" style="mix-blend-mode:screen"/><path fill="#313335" d="M153.982 390.108a1.264 1.264 0 0 1-.455-2.35l4.039-3.504a4.562 4.562 0 0 1 4.06-.776l5.07 1.763a1.264 1.264 0 0 1 .466 2.35l-4.038 3.504a4.573 4.573 0 0 1-4.06.776l-5.082-1.763z"/><path fill="#FFF" d="M153.982 390.109a1.264 1.264 0 0 1-.455-2.35l4.039-3.504a4.562 4.562 0 0 1 4.06-.776l5.07 1.763a1.264 1.264 0 0 1 .466 2.35l-4.038 3.504a4.573 4.573 0 0 1-4.06.776l-5.082-1.763z" opacity=".25" style="mix-blend-mode:screen"/><path fill="#313335" d="M115.674 390.618a1.264 1.264 0 0 1-.466-2.35l4.038-3.504a4.562 4.562 0 0 1 4.06-.776l5.07 1.763a1.264 1.264 0 0 1 .467 2.35l-4.038 3.504a4.573 4.573 0 0 1-4.061.776l-5.07-1.763z"/><path fill="#FFF" d="M115.673 390.618a1.264 1.264 0 0 1-.466-2.35l4.039-3.504a4.562 4.562 0 0 1 4.06-.776l5.07 1.763a1.264 1.264 0 0 1 .466 2.35l-4.038 3.504a4.573 4.573 0 0 1-4.06.776l-5.07-1.763z" opacity=".25" style="mix-blend-mode:screen"/><path fill="#313335" d="M61.468 399.466a1.264 1.264 0 0 1-.466-2.35l4.016-3.504a4.573 4.573 0 0 1 4.06-.776l5.092 1.707a1.264 1.264 0 0 1 .466 2.35l-4.038 3.504a4.584 4.584 0 0 1-4.06.776l-5.07-1.707z"/><path fill="#FFF" d="M61.468 399.466a1.264 1.264 0 0 1-.466-2.35l4.016-3.504a4.573 4.573 0 0 1 4.06-.776l5.093 1.707a1.264 1.264 0 0 1 .465 2.35l-4.038 3.504a4.584 4.584 0 0 1-4.06.776l-5.07-1.707z" opacity=".25" style="mix-blend-mode:screen"/><path fill="#313335" d="M124.483 379.853a1.264 1.264 0 0 1-.455-2.35l4.038-3.504a4.573 4.573 0 0 1 4.06-.776l5.004 1.763a1.264 1.264 0 0 1 .466 2.35l-4.027 3.504a4.573 4.573 0 0 1-4.06.776l-5.026-1.763z"/><path fill="#FFF" d="M124.483 379.853a1.264 1.264 0 0 1-.455-2.35l4.039-3.504a4.573 4.573 0 0 1 4.06-.776l5.004 1.763a1.264 1.264 0 0 1 .466 2.35l-4.028 3.503a4.573 4.573 0 0 1-4.06.777l-5.026-1.763z" opacity=".25" style="mix-blend-mode:screen"/><path fill="#313335" d="M72.784 389.587a1.264 1.264 0 0 1-.466-2.35l4.027-3.504a4.584 4.584 0 0 1 4.06-.776l5.07 1.763a1.264 1.264 0 0 1 .466 2.35l-4.038 3.504a4.595 4.595 0 0 1-4.06.776l-5.06-1.763z"/><path fill="#FFF" d="M72.784 389.588a1.264 1.264 0 0 1-.466-2.35l4.027-3.504a4.584 4.584 0 0 1 4.06-.776l5.07 1.763a1.264 1.264 0 0 1 .466 2.35l-4.038 3.504a4.595 4.595 0 0 1-4.06.776l-5.06-1.763z" opacity=".25" style="mix-blend-mode:screen"/><path fill="#313335" d="M46.158 394.144a1.264 1.264 0 0 1-.466-2.35l4.027-3.504a4.584 4.584 0 0 1 4.06-.776l5.07 1.763a1.264 1.264 0 0 1 .455 2.35l-4.038 3.504a4.573 4.573 0 0 1-4.05.776l-5.058-1.763z"/><path fill="#FFF" d="M46.158 394.144a1.264 1.264 0 0 1-.466-2.35l4.027-3.504a4.584 4.584 0 0 1 4.06-.776l5.07 1.763a1.264 1.264 0 0 1 .455 2.35l-4.038 3.503a4.573 4.573 0 0 1-4.05.777l-5.058-1.763z" opacity=".25" style="mix-blend-mode:screen"/><path fill="#313335" d="M84.466 379.798a1.264 1.264 0 0 1-.466-2.34l4.027-3.503a4.573 4.573 0 0 1 4.06-.776l5.104 1.751a1.264 1.264 0 0 1 .466 2.35l-4.038 3.504a4.573 4.573 0 0 1-4.06.776l-5.093-1.762z"/><path fill="#FFF" d="M84.466 379.797a1.264 1.264 0 0 1-.466-2.34l4.027-3.503a4.573 4.573 0 0 1 4.06-.776l5.104 1.752a1.264 1.264 0 0 1 .466 2.35l-4.039 3.504a4.573 4.573 0 0 1-4.06.776l-5.092-1.763z" opacity=".25" style="mix-blend-mode:screen"/><path fill="#313335" d="M57.496 384.266a1.264 1.264 0 0 1-.466-2.35l4.038-3.504a4.584 4.584 0 0 1 4.06-.776l5.07 1.762a1.264 1.264 0 0 1 .467 2.35l-4.039 3.504a4.584 4.584 0 0 1-4.06.787l-5.07-1.773z"/><path fill="#FFF" d="M57.496 384.266a1.264 1.264 0 0 1-.466-2.35l4.038-3.504a4.584 4.584 0 0 1 4.06-.776l5.07 1.762a1.264 1.264 0 0 1 .466 2.35l-4.038 3.504a4.584 4.584 0 0 1-4.06.787l-5.07-1.773z" opacity=".25" style="mix-blend-mode:screen"/><path fill="#313335" d="M94.972 369.62a1.264 1.264 0 0 1-.466-2.35l4.038-3.504a4.573 4.573 0 0 1 4.061-.776l5.07 1.763a1.264 1.264 0 0 1 .466 2.35l-4.038 3.503a4.573 4.573 0 0 1-4.06.777l-5.07-1.763z"/><path fill="#FFF" d="M94.973 369.62a1.264 1.264 0 0 1-.466-2.35l4.038-3.504a4.573 4.573 0 0 1 4.06-.776l5.07 1.763a1.264 1.264 0 0 1 .466 2.35l-4.038 3.503a4.573 4.573 0 0 1-4.06.777l-5.07-1.763z" opacity=".25" style="mix-blend-mode:screen"/><path fill="#313335" d="M68.856 374.376a1.264 1.264 0 0 1-.466-2.35l4.028-3.504a4.573 4.573 0 0 1 4.06-.776l5.07 1.763a1.264 1.264 0 0 1 .466 2.35l-4.038 3.504a4.562 4.562 0 0 1-4.05.776l-5.07-1.763z"/><path fill="#FFF" d="M68.857 374.376a1.264 1.264 0 0 1-.466-2.35l4.027-3.504a4.573 4.573 0 0 1 4.06-.776l5.07 1.763a1.264 1.264 0 0 1 .467 2.35l-4.039 3.504a4.562 4.562 0 0 1-4.05.776l-5.07-1.763z" opacity=".25" style="mix-blend-mode:screen"/><path fill="#313335" d="M80.228 364.509a1.264 1.264 0 0 1-.466-2.35l4.038-3.504a4.584 4.584 0 0 1 4.06-.776l5.07 1.762a1.264 1.264 0 0 1 .467 2.35l-4.027 3.504a4.584 4.584 0 0 1-4.06.776l-5.082-1.762z"/><path fill="#FFF" d="M80.229 364.51a1.264 1.264 0 0 1-.466-2.351l4.038-3.504a4.584 4.584 0 0 1 4.06-.776l5.07 1.763a1.264 1.264 0 0 1 .467 2.35l-4.028 3.504a4.584 4.584 0 0 1-4.06.776l-5.081-1.763z" opacity=".25" style="mix-blend-mode:screen"/><path fill="#313335" d="M105.112 359.309a1.264 1.264 0 0 1-.466-2.35l4.028-3.504a4.573 4.573 0 0 1 4.06-.776l5.07 1.763a1.264 1.264 0 0 1 .466 2.35l-4.038 3.504a4.562 4.562 0 0 1-4.06.776l-5.06-1.763z"/><path fill="#FFF" d="M105.112 359.31a1.264 1.264 0 0 1-.466-2.351l4.027-3.504a4.573 4.573 0 0 1 4.06-.776l5.07 1.763a1.264 1.264 0 0 1 .467 2.35l-4.039 3.504a4.562 4.562 0 0 1-4.06.776l-5.06-1.763z" opacity=".25" style="mix-blend-mode:screen"/><path fill="#313335" d="M91.644 354.63a1.264 1.264 0 0 1-.466-2.35l4.027-3.504a4.573 4.573 0 0 1 4.06-.776l5.07 1.763a1.264 1.264 0 0 1 .467 2.34l-4.039 3.503a4.584 4.584 0 0 1-4.06.776l-5.06-1.752z"/><path fill="#FFF" d="M91.644 354.63a1.264 1.264 0 0 1-.466-2.35l4.027-3.504a4.573 4.573 0 0 1 4.06-.776l5.07 1.763a1.264 1.264 0 0 1 .466 2.339l-4.038 3.504a4.584 4.584 0 0 1-4.06.776l-5.06-1.752z" opacity=".25" style="mix-blend-mode:screen"/><path fill="#ECF0F1" d="M197.882 459.302a15.251 15.251 0 0 0 13.524-2.594l90.884-78.995c3.328-2.86 2.607-6.386-1.542-7.827l-165.593-57.453a15.24 15.24 0 0 0-13.557 2.595l-90.884 78.994c-3.328 2.86-2.607 6.386 1.542 7.816l165.626 57.464zm-15.798-117.3a15.24 15.24 0 0 1 13.524-2.594l34.825 12.085c4.149 1.44 4.837 4.955 1.542 7.827l-16.42 14.28a15.251 15.251 0 0 1-13.524 2.594l-34.824-12.085c-4.15-1.44-4.837-4.955-1.542-7.827l16.43-14.269-.011-.01zm-59.898 16.154a4.573 4.573 0 0 1 4.06-.776l104.409 36.232a1.264 1.264 0 0 1 .465 2.35l-4.027 3.504a4.573 4.573 0 0 1-4.06.776l-104.42-36.232a1.264 1.264 0 0 1-.465-2.35l4.038-3.504zm109.245 70.435a4.562 4.562 0 0 1-4.06.776l-18.128-6.264a1.264 1.264 0 0 1-.466-2.35l4.038-3.504a4.562 4.562 0 0 1 4.05-.776l18.06 6.264a1.264 1.264 0 0 1 .467 2.35l-4.027 3.504h.066zm14.866-15.732a1.264 1.264 0 0 1 .466 2.35l-4.038 3.504a4.584 4.584 0 0 1-4.06.776l-10.962-3.803a1.264 1.264 0 0 1-.454-2.35l4.027-3.504a4.573 4.573 0 0 1 4.06-.776l10.961 3.803zm-48.559-9.757l4.027-3.503a4.584 4.584 0 0 1 4.06-.776l5.07 1.763a1.264 1.264 0 0 1 .467 2.35l-4.039 3.503a4.584 4.584 0 0 1-4.06.788l-5.07-1.763a1.264 1.264 0 0 1-.466-2.35l.011-.012zm-29.522-10.222l4.039-3.503a4.584 4.584 0 0 1 4.06-.776l5.07 1.762a1.264 1.264 0 0 1 .466 2.35l-4.027 3.504a4.573 4.573 0 0 1-4.06.787l-5.07-1.762a1.264 1.264 0 0 1-.467-2.35l-.01-.012zm44.355 15.344l4.027-3.503a4.584 4.584 0 0 1 4.06-.776l5.07 1.763a1.264 1.264 0 0 1 .467 2.35l-4.039 3.504a4.584 4.584 0 0 1-4.06.776l-5.07-1.763a1.264 1.264 0 0 1-.466-2.35h.01zM97.335 395.896a4.584 4.584 0 0 1-4.06.776l-5.07-1.763a1.264 1.264 0 0 1-.466-2.35l4.005-3.56a4.573 4.573 0 0 1 4.06-.775l5.07 1.751a1.264 1.264 0 0 1 .466 2.35l-4.027 3.504.022.067zm15.321 5.3a4.584 4.584 0 0 1-4.06.775l-5.07-1.762a1.264 1.264 0 0 1-.455-2.35l4.038-3.504a4.573 4.573 0 0 1 4.05-.776l5.07 1.762a1.264 1.264 0 0 1 .466 2.35l-4.028 3.504h-.01zm-30.675-10.644a4.595 4.595 0 0 1-4.06.776l-5.07-1.763a1.264 1.264 0 0 1-.467-2.35l4.028-3.504a4.584 4.584 0 0 1 4.06-.776l5.07 1.763a1.264 1.264 0 0 1 .466 2.35l-4.038 3.504h.01zm-11.416 9.9a4.584 4.584 0 0 1-4.06.777l-5.07-1.763a1.264 1.264 0 0 1-.467-2.35l4.05-3.504a4.573 4.573 0 0 1 4.06-.776l5.092 1.707a1.264 1.264 0 0 1 .466 2.35l-4.038 3.504-.033.056zm15.376 5.267a4.584 4.584 0 0 1-4.06.776l-5.07-1.763a1.264 1.264 0 0 1-.466-2.35l4.027-3.404a4.595 4.595 0 0 1 4.06-.776l5.07 1.763a1.264 1.264 0 0 1 .467 2.35l-4.039 3.504.011-.1zm15.333 5.421a4.584 4.584 0 0 1-4.06.776l-5.07-1.762a1.264 1.264 0 0 1-.467-2.35l4.027-3.504a4.584 4.584 0 0 1 4.06-.776l5.07 1.762a1.264 1.264 0 0 1 .467 2.35l-4.038 3.504h.01zm57.379 6.087a4.573 4.573 0 0 1-4.06.787l-5.07-1.763a1.264 1.264 0 0 1-.467-2.35l4.039-3.503a4.573 4.573 0 0 1 4.06-.777l5.07 1.763a1.264 1.264 0 0 1 .466 2.35l-4.027 3.504-.011-.01zm-49.38-44.858l4.027-3.503a4.584 4.584 0 0 1 4.06-.776l5.07 1.763a1.264 1.264 0 0 1 .466 2.35l-4.038 3.503a4.573 4.573 0 0 1-4.06.777l-5.07-1.752a1.264 1.264 0 0 1-.466-2.35l.01-.012zm110.764 66.1a4.584 4.584 0 0 1-4.06.777l-5.07-1.763a1.264 1.264 0 0 1-.455-2.35l4.027-3.504a4.573 4.573 0 0 1 4.06-.776l5.07 1.763a1.264 1.264 0 0 1 .467 2.35l-4.028 3.504h-.01zm-30.675-10.643a4.573 4.573 0 0 1-4.06.776l-5.07-1.763a1.264 1.264 0 0 1-.467-2.35l4.028-3.503a4.573 4.573 0 0 1 4.06-.777l5.07 1.752a1.264 1.264 0 0 1 .466 2.35l-4.027 3.504v.011zm-65.334-50.323l4.038-3.504a4.573 4.573 0 0 1 4.06-.776l5.004 1.763a1.264 1.264 0 0 1 .466 2.35l-4.027 3.504a4.584 4.584 0 0 1-4.06.776l-5.082-1.763a1.264 1.264 0 0 1-.455-2.35h.056zm-15.931-10.411l-4.039 3.503a4.573 4.573 0 0 1-4.06.776l-5.07-1.762a1.264 1.264 0 0 1-.466-2.35l4.038-3.504a4.573 4.573 0 0 1 4.06-.776l5.07 1.762a1.264 1.264 0 0 1 .467 2.35zm96.52 66.056a4.573 4.573 0 0 1-4.061.776l-5.07-1.763a1.264 1.264 0 0 1-.455-2.35l4.027-3.504a4.584 4.584 0 0 1 4.06-.776l5.07 1.763a1.264 1.264 0 0 1 .467 2.35l-4.028 3.504h-.01zM182.96 397.98l4.094-3.503a4.584 4.584 0 0 1 4.06-.776l5.07 1.762a1.264 1.264 0 0 1 .467 2.34l-4.027 3.503a4.573 4.573 0 0 1-4.061.776l-5.07-1.763a1.264 1.264 0 0 1-.466-2.35l-.067.011zm-44.188-15.366l4.027-3.504a4.573 4.573 0 0 1 4.06-.776l5.082 1.796a1.264 1.264 0 0 1 .466 2.35l-4.038 3.504a4.584 4.584 0 0 1-4.06.776l-5.07-1.763a1.264 1.264 0 0 1-.467-2.35v-.033zm54.562 60.435a4.584 4.584 0 0 1-4.06.776l-5.071-1.763a1.264 1.264 0 0 1-.466-2.34l4.038-3.503a4.573 4.573 0 0 1 4.06-.776l5.07 1.763a1.264 1.264 0 0 1 .467 2.35l-4.027 3.504-.011-.011zM178 437.738a4.573 4.573 0 0 1-4.06.776l-5.081-1.84a1.264 1.264 0 0 1-.466-2.35l4.027-3.504a4.584 4.584 0 0 1 4.06-.776l5.026 1.807a1.264 1.264 0 0 1 .466 2.35l-4.027 3.504.055.033zm-30.742-10.677a4.573 4.573 0 0 1-4.06.776l-5.07-1.763a1.264 1.264 0 0 1-.466-2.35l4.038-3.503a4.584 4.584 0 0 1 4.06-.777l5.07 1.763a1.264 1.264 0 0 1 .455 2.35l-4.038 3.504h.011zm61.362 21.298a4.584 4.584 0 0 1-4.06.776l-5.07-1.762a1.264 1.264 0 0 1-.466-2.35l4.038-3.504a4.584 4.584 0 0 1 4.06-.776l5.07 1.762a1.264 1.264 0 0 1 .467 2.35l-4.028 3.504h-.01zm-34.647-25.855a4.573 4.573 0 0 1-4.06.788l-5.07-1.763a1.264 1.264 0 0 1-.466-2.35l4.027-3.504a4.573 4.573 0 0 1 4.06-.776l5.07 1.763a1.264 1.264 0 0 1 .466 2.35l-4.038 3.504.011-.012zm-11.327 9.879a4.573 4.573 0 0 1-4.06.776l-5.07-1.763a1.264 1.264 0 0 1-.467-2.35l4.05-3.46a4.584 4.584 0 0 1 4.06-.775l5.07 1.762a1.264 1.264 0 0 1 .455 2.35l-4.027 3.504-.011-.044zM61.068 378.445a4.584 4.584 0 0 1 4.06-.776l5.07 1.763a1.264 1.264 0 0 1 .467 2.35l-4.039 3.504a4.584 4.584 0 0 1-4.06.787l-5.07-1.763a1.264 1.264 0 0 1-.466-2.35l4.038-3.504v-.011zM83.8 358.699a4.584 4.584 0 0 1 4.06-.776l5.07 1.763a1.264 1.264 0 0 1 .467 2.35l-4.039 3.504a4.573 4.573 0 0 1-4.06.776l-5.07-1.763a1.264 1.264 0 0 1-.466-2.35l4.038-3.504zm-34.103 29.635a4.584 4.584 0 0 1 4.06-.776l5.07 1.763a1.264 1.264 0 0 1 .466 2.35l-4.038 3.504a4.573 4.573 0 0 1-4.05.776l-5.07-1.763a1.264 1.264 0 0 1-.466-2.35l4.028-3.504zm59.509-2.095a4.562 4.562 0 0 1-4.05.776l-5.07-1.763a1.264 1.264 0 0 1-.465-2.35l4.038-3.504a4.573 4.573 0 0 1 4.06-.776l5.004 1.719a1.264 1.264 0 0 1 .466 2.35l-4.027 3.504.044.044zm62.405 21.609a4.562 4.562 0 0 1-4.06.776l-5.07-1.763a1.264 1.264 0 0 1-.466-2.35l4.038-3.504a4.562 4.562 0 0 1 4.05-.776l5.07 1.763a1.264 1.264 0 0 1 .465 2.35l-4.038 3.504h.011zm-62.949-54.393a4.573 4.573 0 0 1 4.06-.776l5.071 1.763a1.264 1.264 0 0 1 .466 2.35l-4.038 3.504a4.562 4.562 0 0 1-4.06.776l-5.07-1.763a1.264 1.264 0 0 1-.467-2.35l4.027-3.504h.011zm34.648 58.395a4.584 4.584 0 0 1-4.06.776l-5.07-1.763a1.264 1.264 0 0 1-.467-2.35l4.038-3.504a4.573 4.573 0 0 1 4.061-.776l5.07 1.763a1.264 1.264 0 0 1 .466 2.35l-4.038 3.504zm-11.372 9.878a4.573 4.573 0 0 1-4.06.776l-5.07-1.762a1.264 1.264 0 0 1-.466-2.35l4.027-3.504a4.573 4.573 0 0 1 4.06-.776l5.07 1.762a1.264 1.264 0 0 1 .455 2.35l-4.027 3.504h.011zm70.848-3.06a4.573 4.573 0 0 1-4.06.776l-5.07-1.762a1.264 1.264 0 0 1-.467-2.34l4.028-3.503a4.584 4.584 0 0 1 4.06-.776l5.07 1.763a1.264 1.264 0 0 1 .466 2.35l-4.038 3.503.01-.01zm32.273-21.353a4.573 4.573 0 0 1 4.05-.776l5.07 1.763a1.264 1.264 0 0 1 .465 2.35l-4.038 3.504a4.573 4.573 0 0 1-4.06.776l-5.07-1.763a1.264 1.264 0 0 1-.466-2.35l4.038-3.504h.01zM97.635 377.27l-4.039 3.503a4.573 4.573 0 0 1-4.06.776l-5.07-1.763a1.264 1.264 0 0 1-.466-2.339l4.027-3.503a4.573 4.573 0 0 1 4.06-.776l5.104 1.762a1.264 1.264 0 0 1 .466 2.35l-.022-.01zm27.192 14.346a4.573 4.573 0 0 1-4.06.776l-5.07-1.763a1.264 1.264 0 0 1-.467-2.35l4.027-3.503a4.573 4.573 0 0 1 4.06-.777l5.071 1.763a1.264 1.264 0 0 1 .466 2.35l-4.038 3.504h.01zm31.163 10.821a4.584 4.584 0 0 1-4.06.776l-5.07-1.763a1.264 1.264 0 0 1-.466-2.35l4.05-3.448a4.573 4.573 0 0 1 4.06-.776l5.07 1.763a1.264 1.264 0 0 1 .466 2.35l-4.04 3.504-.01-.056zm31.22 10.887a4.562 4.562 0 0 1-4.061.777l-5.07-1.763a1.264 1.264 0 0 1-.466-2.35l4.027-3.504a4.562 4.562 0 0 1 4.06-.776l5.07 1.763a1.264 1.264 0 0 1 .467 2.35l-4.027 3.503zm61.362-11.264a4.573 4.573 0 0 1 4.06-.776l5.07 1.763a1.264 1.264 0 0 1 .466 2.35l-4.038 3.504a4.562 4.562 0 0 1-4.06.776l-5.082-1.763a1.264 1.264 0 0 1-.466-2.35l4.028-3.504h.022zM72.395 368.59a4.573 4.573 0 0 1 4.06-.776l5.07 1.762a1.264 1.264 0 0 1 .467 2.35l-4.038 3.504a4.562 4.562 0 0 1-4.05.776l-5.07-1.762a1.264 1.264 0 0 1-.466-2.35l4.038-3.504h-.01zm22.744-19.757a4.573 4.573 0 0 1 4.06-.776l5.07 1.762a1.264 1.264 0 0 1 .466 2.34l-4.038 3.503a4.573 4.573 0 0 1-4.06.776l-4.993-1.807a1.264 1.264 0 0 1-.466-2.35l4.038-3.504-.077.056zm58.444 38.926l4.027-3.504a4.573 4.573 0 0 1 4.06-.776l5.07 1.763a1.264 1.264 0 0 1 .467 2.35l-4.028 3.504a4.573 4.573 0 0 1-4.06.776l-5.07-1.763a1.264 1.264 0 0 1-.455-2.35h-.011zm-25.506 18.781a4.573 4.573 0 0 1-4.06.787l-5.07-1.762a1.264 1.264 0 0 1-.455-2.35l4.027-3.504a4.573 4.573 0 0 1 4.06-.776l5.004 1.751a1.264 1.264 0 0 1 .466 2.35l-4.027 3.504h.055zm-11.427 9.879a4.573 4.573 0 0 1-4.05.776l-5.07-1.763a1.264 1.264 0 0 1-.465-2.34l4.038-3.503a4.573 4.573 0 0 1 4.06-.776l5.07 1.763a1.264 1.264 0 0 1 .456 2.35l-4.028 3.504-.01-.011zm23.797-19.38a4.562 4.562 0 0 1-4.06.776l-5.07-1.763a1.264 1.264 0 0 1-.466-2.35l4.027-3.504a4.573 4.573 0 0 1 4.06-.776l5.037 1.796a1.264 1.264 0 0 1 .466 2.35l-4.038 3.504.044-.033z"/><path fill="#313335" d="M199.535 447.373a1.264 1.264 0 0 1-.466-2.35l4.039-3.504a4.584 4.584 0 0 1 4.06-.776l5.07 1.762a1.264 1.264 0 0 1 .466 2.35l-4.027 3.504a4.584 4.584 0 0 1-4.06.776l-5.082-1.762z"/><path fill="#FFF" d="M199.535 447.373a1.264 1.264 0 0 1-.466-2.35l4.038-3.504a4.584 4.584 0 0 1 4.06-.776l5.07 1.763a1.264 1.264 0 0 1 .467 2.35l-4.027 3.504a4.584 4.584 0 0 1-4.061.776l-5.081-1.763z" opacity=".25" style="mix-blend-mode:screen"/><path fill="#313335" d="M138.173 426.074a1.264 1.264 0 0 1-.466-2.35l4.027-3.503a4.584 4.584 0 0 1 4.06-.777l5.07 1.763a1.264 1.264 0 0 1 .456 2.35l-4.039 3.504a4.562 4.562 0 0 1-4.06.776l-5.048-1.763z"/><path fill="#FFF" d="M138.174 426.074a1.264 1.264 0 0 1-.466-2.35l4.027-3.504a4.584 4.584 0 0 1 4.06-.776l5.07 1.763a1.264 1.264 0 0 1 .456 2.35l-4.039 3.504a4.562 4.562 0 0 1-4.06.776l-5.048-1.763z" opacity=".25" style="mix-blend-mode:screen"/><path fill="#313335" d="M231.487 403.158a1.264 1.264 0 0 1-.466-2.35l4.038-3.504a4.573 4.573 0 0 1 4.05-.776l5.07 1.763a1.264 1.264 0 0 1 .465 2.35l-4.038 3.503a4.584 4.584 0 0 1-4.06.777l-5.06-1.763z"/><path fill="#FFF" d="M231.486 403.157a1.264 1.264 0 0 1-.466-2.35l4.038-3.504a4.573 4.573 0 0 1 4.05-.776l5.07 1.763a1.264 1.264 0 0 1 .466 2.35l-4.039 3.504a4.584 4.584 0 0 1-4.06.776l-5.059-1.763z" opacity=".25" style="mix-blend-mode:screen"/><path fill="#313335" d="M149.545 416.196a1.264 1.264 0 0 1-.466-2.35l4.027-3.504a4.573 4.573 0 0 1 4.06-.776l5.07 1.763a1.264 1.264 0 0 1 .466 2.35l-4.027 3.504a4.573 4.573 0 0 1-4.06.787l-5.07-1.774z"/><path fill="#FFF" d="M149.544 416.196a1.264 1.264 0 0 1-.466-2.35l4.028-3.504a4.573 4.573 0 0 1 4.06-.776l5.07 1.763a1.264 1.264 0 0 1 .466 2.35l-4.027 3.504a4.573 4.573 0 0 1-4.06.787l-5.07-1.774z" opacity=".25" style="mix-blend-mode:screen"/><path fill="#313335" d="M122.83 420.753a1.264 1.264 0 0 1-.466-2.35l4.027-3.504a4.573 4.573 0 0 1 4.06-.776l5.07 1.763a1.264 1.264 0 0 1 .455 2.35l-4.027 3.503a4.573 4.573 0 0 1-4.06.777l-5.06-1.763z"/><path fill="#FFF" d="M122.83 420.753a1.264 1.264 0 0 1-.466-2.35l4.027-3.504a4.573 4.573 0 0 1 4.06-.776l5.07 1.763a1.264 1.264 0 0 1 .455 2.35l-4.027 3.503a4.573 4.573 0 0 1-4.06.777l-5.06-1.763z" opacity=".25" style="mix-blend-mode:screen"/><path fill="#313335" d="M134.201 410.874a1.264 1.264 0 0 1-.466-2.35l4.028-3.504a4.584 4.584 0 0 1 4.06-.776l5.07 1.763a1.264 1.264 0 0 1 .466 2.35l-4.038 3.504a4.584 4.584 0 0 1-4.06.776l-5.06-1.763z"/><path fill="#FFF" d="M134.2 410.875a1.264 1.264 0 0 1-.465-2.35l4.027-3.504a4.584 4.584 0 0 1 4.06-.776l5.07 1.762a1.264 1.264 0 0 1 .467 2.35l-4.039 3.504a4.584 4.584 0 0 1-4.06.776l-5.06-1.762z" opacity=".25" style="mix-blend-mode:screen"/><path fill="#313335" d="M183.493 400.33a1.264 1.264 0 0 1-.466-2.35l4.027-3.503a4.584 4.584 0 0 1 4.06-.776l5.07 1.762a1.264 1.264 0 0 1 .467 2.34l-4.039 3.503a4.562 4.562 0 0 1-4.06.787l-5.059-1.762z"/><path fill="#FFF" d="M183.493 400.33a1.264 1.264 0 0 1-.466-2.35l4.027-3.504a4.584 4.584 0 0 1 4.06-.776l5.07 1.763a1.264 1.264 0 0 1 .466 2.34l-4.038 3.503a4.562 4.562 0 0 1-4.06.787l-5.06-1.763z" opacity=".25" style="mix-blend-mode:screen"/><path fill="#313335" d="M103.515 400.23a1.264 1.264 0 0 1-.455-2.35l4.027-3.503a4.573 4.573 0 0 1 4.05-.776l5.07 1.763a1.264 1.264 0 0 1 .465 2.35l-4.027 3.504a4.584 4.584 0 0 1-4.06.776l-5.07-1.763z"/><path fill="#FFF" d="M103.515 400.231a1.264 1.264 0 0 1-.455-2.35l4.027-3.504a4.573 4.573 0 0 1 4.05-.776l5.07 1.763a1.264 1.264 0 0 1 .465 2.35l-4.027 3.504a4.584 4.584 0 0 1-4.06.776l-5.07-1.763z" opacity=".25" style="mix-blend-mode:screen"/><path fill="#313335" d="M88.171 394.909a1.264 1.264 0 0 1-.466-2.35l4.039-3.56a4.573 4.573 0 0 1 4.06-.775l5.07 1.751a1.264 1.264 0 0 1 .466 2.35l-4.027 3.504a4.584 4.584 0 0 1-4.06.776l-5.082-1.696z"/><path fill="#FFF" d="M88.171 394.909a1.264 1.264 0 0 1-.466-2.35l4.039-3.56a4.573 4.573 0 0 1 4.06-.775l5.07 1.751a1.264 1.264 0 0 1 .466 2.35l-4.027 3.504a4.584 4.584 0 0 1-4.06.776l-5.082-1.696z" opacity=".25" style="mix-blend-mode:screen"/><path fill="#313335" d="M139.238 384.975a1.264 1.264 0 0 1-.466-2.35l4.027-3.504a4.573 4.573 0 0 1 4.06-.776l5.082 1.785a1.264 1.264 0 0 1 .466 2.35l-4.038 3.504a4.584 4.584 0 0 1-4.06.776l-5.07-1.785z"/><path fill="#FFF" d="M139.239 384.975a1.264 1.264 0 0 1-.466-2.35l4.027-3.504a4.573 4.573 0 0 1 4.06-.776l5.081 1.785a1.264 1.264 0 0 1 .466 2.35l-4.038 3.504a4.584 4.584 0 0 1-4.06.776l-5.07-1.785z" opacity=".25" style="mix-blend-mode:screen"/><path fill="#313335" d="M100.064 385.208a1.264 1.264 0 0 1-.466-2.35l4.039-3.504a4.573 4.573 0 0 1 4.06-.776l5.026 1.763a1.264 1.264 0 0 1 .466 2.35l-4.027 3.504a4.562 4.562 0 0 1-4.05.776l-5.048-1.763z"/><path fill="#FFF" d="M100.065 385.208a1.264 1.264 0 0 1-.466-2.35l4.038-3.504a4.573 4.573 0 0 1 4.06-.776l5.027 1.763a1.264 1.264 0 0 1 .466 2.35l-4.028 3.504a4.562 4.562 0 0 1-4.05.776l-5.047-1.763z" opacity=".25" style="mix-blend-mode:screen"/><path fill="#313335" d="M109.727 374.742a1.264 1.264 0 0 1-.465-2.35l4.027-3.504a4.584 4.584 0 0 1 4.06-.776l5.07 1.763a1.264 1.264 0 0 1 .466 2.35l-4.038 3.504a4.573 4.573 0 0 1-4.06.776l-5.06-1.763z"/><path fill="#FFF" d="M109.727 374.741a1.264 1.264 0 0 1-.466-2.35l4.028-3.504a4.584 4.584 0 0 1 4.06-.776l5.07 1.763a1.264 1.264 0 0 1 .466 2.35l-4.038 3.504a4.573 4.573 0 0 1-4.06.776l-5.06-1.763z" opacity=".25" style="mix-blend-mode:screen"/><path fill="#313335" d="M118.636 363.999a1.264 1.264 0 0 1-.466-2.35l4.038-3.504a4.573 4.573 0 0 1 4.061-.776L230.677 393.6a1.264 1.264 0 0 1 .466 2.35l-4.028 3.504a4.573 4.573 0 0 1-4.06.776l-104.419-36.232z"/><path fill="#FFF" d="M118.637 364a1.264 1.264 0 0 1-.466-2.351l4.038-3.504a4.573 4.573 0 0 1 4.06-.776l104.408 36.232a1.264 1.264 0 0 1 .466 2.35l-4.027 3.504a4.573 4.573 0 0 1-4.06.776L118.635 364z" opacity=".25" style="mix-blend-mode:screen"/><path fill="#313335" d="M167.207 364.098c-4.15-1.44-4.837-4.955-1.542-7.827l16.43-14.269a15.24 15.24 0 0 1 13.524-2.594l34.825 12.085c4.149 1.44 4.837 4.955 1.542 7.827l-16.42 14.28a15.251 15.251 0 0 1-13.523 2.594l-34.836-12.096z"/><path fill="#FFF" d="M167.206 364.099c-4.149-1.442-4.837-4.956-1.542-7.828l16.43-14.269a15.24 15.24 0 0 1 13.525-2.594l34.824 12.085c4.15 1.441 4.837 4.956 1.542 7.827l-16.419 14.28a15.251 15.251 0 0 1-13.524 2.595l-34.836-12.096z" opacity=".25" style="mix-blend-mode:screen"/><path fill="#FFE066" d="M297.265 338.931c.054-.156.073-.323.055-.488a5.936 5.936 0 0 1-.055.488z"/><path fill="#D8DFE0" d="M302.29 377.713l-98.283 83.153s4.127 3.326 6.068 2.428a16.93 16.93 0 0 0 5.292-3.526l87.833-77.176c1.642-1.42 2.297-3.005 2.03-4.435l-.91-4.878c.267 1.43-.388 3.015-2.03 4.434z"/><path fill="#FFE066" d="M281.3 334.341c-8.043.577-22.277.743-21.622 8.648.687 8.46 3.05 9.978-14.845 9.413-8.11-.255-19.281-1.985-26.071-7.007-9.985-7.34-19.603 2.406-1.476 11.453-8.054 2.461-16.408 7.76-18.26 15.91-.566 2.472-2.497 7.306 0 9.302 3.627 2.927 6.39-4.369 8.198-6.187 1.63 1.585-7.877 12.883-.067 15.211 5.97 1.785 5.414-11.375 9.453-9.978-1.287 2.805-2.874 14.413 3.75 12.595 5.325-1.497 3.638-11.43 10.084-11.885 9.708-.688 8.876-6.398 16.264-6.065 8.443.377 16.542 1.807 25.018.577 13.967-2.04 18.671-12.573 22.51-24.713 3.839-12.14 2.918-18.36-12.903-17.24l-.033-.034z"/><path fill="#1D1D1B" d="M221.014 394.41c-1.287 2.805-2.873 14.413 3.75 12.595 5.325-1.497 3.639-11.43 10.085-11.885 9.707-.687 8.875-6.397 16.264-6.065 8.442.377 16.541 1.808 25.017.577 12.481-1.818 17.562-10.433 21.235-20.899l-9.12-3.17a22.19 22.19 0 0 1-16.552 10.742c-8.476 1.242-16.575-.2-25.018-.576-7.422-.333-6.557 5.377-16.264 6.064-6.446.466-4.76 10.4-10.085 11.886-6.656 1.862-5.036-9.79-3.75-12.595-4.038-1.386-3.472 11.774-9.452 9.978-4.77-1.43-3.084-6.197-1.42-10.056a15.517 15.517 0 0 0-2.219 5.045c-.566 2.472-2.496 7.306 0 9.302 3.628 2.927 6.39-4.368 8.199-6.187 1.63 1.586-7.877 12.883-.067 15.212 5.925 1.807 5.392-11.353 9.397-9.968z" opacity=".05"/><path fill="#FFE066" d="M197.383 71.713c-19.97 5.932-41.226 21.254-48.526 42.696-4.537 13.305-2.352 28.106-6.823 41.31-2.496 7.373-7.555 11.852-13.48 15.589a.366.366 0 0 0 .123-.078c-16.708 9.48-31.297.953-40.816-15.522l.078.122c-.932-1.785-2.862-6.02-2.951-6.253-3.328-9.39-8.343-14.247-15.532-7.76-2.44 16.519 13.424 33.493 34.98 39.436 16.375 4.523 38.33-4.956 46.252-21.83 8.875-18.848 2.33-48.007 18.017-62.93 9.02-8.581 19.714-15.411 32.561-17.983a65.402 65.402 0 0 0-3.883-6.797z"/><path fill="#FFE066" d="M298.64-19H97.424c19.36 12.65 79.79 54.559 101.335 84.982 14.633 20.655 20.68 61.588 20.68 61.588-2.496 36.587 122.125 94.239 145.978 5.543 4.182-15.522-2.974-51.588-10.984-71.322C343.86 35.736 317.89.07 298.64-19z"/><path fill="#005DB4" d="M367.835 122.392s-123.334-27.34-150.182-3.326c-1.753 1.574 1.109 5.887 1.386 11.176 2.963 47.308-56.824 86.045-56.824 86.045v21.93c29.954-.554 47.705 9.602 47.705 9.602l17.75 18.57-58.799 62.886a42.052 42.052 0 0 0 8.554 5.277l19.615-23.017 32.816-22.318s29.766 19.18 51.5 33.261a237.895 237.895 0 0 0 9.585-5.31l.166-.1c-.543-1.719-1.109-3.526-1.764-5.477-1.752-5.289-3.971-8.992-6.512-11.43-.433-.533-.621-.81-.122-1.298.5-.488 2.008.765 2.43 1.042a25.249 25.249 0 0 1 8.42 10.278 64.66 64.66 0 0 1 1.675 4.313c77.394-50.224 72.601-192.104 72.601-192.104z"/><path fill="#004586" d="M239.797 324.696l3.838-2.606c-.155-.51-.31-1.02-.444-1.552-1.109-4.069-9.208 7.705-9.208 7.705a82.25 82.25 0 0 1 11.427-14.856v-1.996h1.92a77.646 77.646 0 0 1 10.728-9.169l-9.086-14.668a213.536 213.536 0 0 0-39.585-1.596l-37.021 39.57a77.139 77.139 0 0 0 5.015 9.09c11.338 5.544 33.97 12.14 68.03 2.517a62.4 62.4 0 0 1-5.614-12.44z"/><path fill="#004586" d="M296 343.133c.5-.332 1.553-1.73-.655-11.253-3.483-1.109-12.07-3.115-20.835.3-11.371 4.434-14.145 4.988-16.918 2.771-2.774-2.217-9.386-14.868 7.51-32.24 2.22-2.296 3.051-4.103 2.819-5.544-7.068 2.217-14.423 7.993-20.614 14.191h-1.919v1.985c-5.491 5.831-3.328 3.093-2.219 7.162 3.883 14.69 13.502 24.391 15.166 26.509 3.872 4.834-1.11-6.11 22.422-9.469 10.273-1.419 14.41 6.143 15.243 5.588z"/><path fill="#004586" d="M240.118 325.527a69.031 69.031 0 0 0 20.902-19.868c4.76-7.217 3.694-.853 6.268-11.452 4.26-17.584 12.736-50.213-8.11-64.305.988-7.76 1.21-18.959-1.231-27.817-3.328-11.896-8.465-19.114-15.687-12.794-5.148 4.501-16.786 18.094-23.076 25.5-10.085-2.295-17.662-3.326-17.662-3.326a76.11 76.11 0 0 0-10.828-.865 59.122 59.122 0 0 0-4.593-13.925 175.088 175.088 0 0 1-23.897 19.557v21.985c29.954-.554 47.705 9.602 47.705 9.602l17.75 18.57-55.548 59.415c21.323 6.908 40.194 17.019 68.007-.277z" opacity=".5"/><path fill="#FFE066" d="M132.25 238.993s5.813-29.513 8.12-33.881c2.308-4.369 8.032-21.964 21.534-7.406 13.502 14.557 15.366 32.019 14.833 34.669-.532 2.65-44.488 6.618-44.488 6.618zm67.774-11.22s17.75-26.032 24.318-33.005c6.568-6.974 12.437-.266 16.82 11.275 4.381 11.542 4.37 27.828 3.205 34.17-1.164 6.342-42.89 3.127-44.343-12.44z"/><path fill="#FFD43B" d="M176.748 232.375c.3-1.497-.166-7.761-3.073-15.522-10.062-1.42-22.133 5.355-27.159 4.878-9.818-.942-6.334-18.948 5.392-29.646-6.579.332-9.93 9.978-11.527 13.027-2.307 4.368-8.12 33.881-8.12 33.881s43.955-3.969 44.487-6.618zm52.065-40.368c13.058 9.978 13.935 32.075 11.172 33.46-3.05 1.53-4.715-3.182-17.473-5.399a86.9 86.9 0 0 0-16.098-1.519c-3.683 5.255-6.39 9.224-6.39 9.224 1.464 15.522 43.179 18.782 44.377 12.44 1.198-6.342 1.165-22.64-3.206-34.17-3.395-8.847-7.622-14.868-12.382-14.036z"/><path fill="#BABABA" d="M262.629 417.072a.388.388 0 0 0 .11-.332l-.443-2.329c0-.11-.111-.133-.189-.066l-3.328 2.893a.388.388 0 0 0-.111.333l.444 2.328a.11.11 0 0 0 .188.067l3.329-2.894zm15.398-14.003a.375.375 0 0 0 .111-.332l-.443-2.329c0-.11-.111-.133-.19-.066l-13.445 11.94a.388.388 0 0 0-.111.333l.444 2.328a.11.11 0 0 0 .188.067l13.446-11.94zm-19.692 17.74a.388.388 0 0 0 .111-.333l-.444-2.328a.11.11 0 0 0-.188-.067l-3.329 2.894a.388.388 0 0 0-.122.332l.444 2.329c0 .11.111.144.189.066l3.34-2.894z"/><path fill="#FFE066" d="M185.857 220.656s38.153 1.707 58.422 12.561c22.754 12.196 23.597 26.664 25.15 44.725a49.255 49.255 0 0 1-5.824 27.795 69.008 69.008 0 0 1-18.96 21.72c-32.34 24.557-69.894 10.72-91.716 6.651-39.44-7.35-23.098-8.049-28.468-15.155-8.609-11.398-22.188-35.833-15.898-55.07 10.173-31.21 51.156-44.846 77.294-43.227z"/><path fill="#FFD43B" d="M147.77 241.1c5.67-2.85 9.896-2.772 14.7-1.009 5.303 1.94 10.362 6.974 10.118 12.983 0 .366.599 1.308.355 1.463a8.67 8.67 0 0 1-4.25.41 36.154 36.154 0 0 1-8.875-2.017 22.481 22.481 0 0 1-12.048-11.83z"/><path fill="#6F6F6E" d="M147.703 241.111c.118-.117.244-.224.378-.321.35-.278.721-.53 1.11-.754a14.028 14.028 0 0 1 4.093-1.641 16.152 16.152 0 0 1 2.762-.4 17.762 17.762 0 0 1 3.04.067c1.06.133 2.108.36 3.129.676 1.05.315 2.069.73 3.04 1.242.97.493 1.889 1.084 2.74 1.763.82.654 1.564 1.398 2.219 2.217a12.007 12.007 0 0 1 1.653 2.428c.21.422.432.81.599 1.22.166.41.288.832.4 1.242a11.8 11.8 0 0 1 .432 2.217c.046.628.046 1.258 0 1.885a8.964 8.964 0 0 1-.189 1.242 4.433 4.433 0 0 1-.122.454h-.532a8.12 8.12 0 0 1-1.354-.155c-.521-.1-1.198-.155-1.853-.288-.654-.133-1.42-.222-2.152-.366l-2.219-.488c-.754-.166-1.453-.41-2.218-.61-.766-.2-1.41-.51-2.12-.776-.71-.266-1.353-.62-2.03-.953-.676-.333-1.309-.72-1.952-1.109a22.488 22.488 0 0 1-1.853-1.32 31.49 31.49 0 0 1-3.328-3.037c-.51-.554-.988-1.053-1.42-1.563-.433-.51-.81-.998-1.11-1.386-.3-.388-.588-.776-.787-.998l-.356-.488z"/><path fill="#575756" d="M172.632 254.615c-5.647-9.58-19.248-12.273-24.551-12.972.177.233.388.544.676.865.289.322.71.91 1.11 1.386.4.477.91 1.009 1.42 1.563a31.489 31.489 0 0 0 3.328 3.038c.595.47 1.213.911 1.853 1.32.632.42 1.298.775 1.953 1.108a37.84 37.84 0 0 0 2.03.954c.688.299 1.398.554 2.119.776.72.221 1.442.443 2.219.61l2.218.487c.733.144 1.487.255 2.153.366.665.111 1.32.2 1.852.288.533.089 1.043.111 1.354.156l.266.055z"/><path fill="#FFD43B" d="M229.035 248.196c-3.55-4.147-9.874-3.925-14.833-2.65-5.47 1.397-11.016 5.887-11.371 11.896 0 .366-.289.931-.355 1.375-.156 1.009 6.423 1.32 7.621 1.208a23.822 23.822 0 0 0 6.258-1.108c5.502-1.719 10.639-5.278 12.68-10.721z"/><path fill="#6F6F6E" d="M229.035 248.118a3.194 3.194 0 0 0-.344-.366c-.32-.31-.661-.6-1.02-.865a14.104 14.104 0 0 0-3.917-2.04 16.34 16.34 0 0 0-2.707-.676 17.895 17.895 0 0 0-3.028-.233c-1.07.025-2.135.144-3.184.355a17.027 17.027 0 0 0-3.14.92c-1.017.391-1.99.885-2.907 1.475a14.177 14.177 0 0 0-2.474 1.94 11.787 11.787 0 0 0-1.886 2.217c-.255.4-.51.765-.732 1.11-.222.343-.377.797-.521 1.185a12.068 12.068 0 0 0-.655 2.218 12.77 12.77 0 0 0-.144 1.874c-.01.418.008.837.055 1.252.016.157.042.313.078.466h1.886c.521 0 1.21 0 1.875-.089.666-.088 1.442-.077 2.219-.144l2.219-.266c.776-.089 1.486-.266 2.218-.388.733-.122 1.454-.366 2.22-.554.765-.189 1.408-.488 2.118-.743s1.387-.588 2.053-.943a21.372 21.372 0 0 0 1.986-1.108 31.207 31.207 0 0 0 3.66-2.683c.566-.488 1.11-.943 1.576-1.408.466-.466.91-.92 1.276-1.275.366-.355.666-.71.876-.92l.344-.311z"/><path fill="#575756" d="M202.842 259.028c6.59-8.959 20.391-10.267 25.738-10.422-.2.21-.443.51-.765.787s-.799.843-1.276 1.275c-.477.432-1.01.91-1.575 1.408a31.207 31.207 0 0 1-3.661 2.683c-.642.405-1.305.775-1.986 1.109-.677.344-1.376.632-2.053.942-.676.31-1.409.51-2.119.743-.71.233-1.442.41-2.219.554-.776.145-1.486.3-2.218.388l-2.22.267c-.743.077-1.497.1-2.218.144-.721.044-1.331.066-1.875.088-.544.023-1.043 0-1.354 0l-.2.034z"/><path fill="#FFD43B" d="M190.938 291.435c-1.531-1.486.1-.976-1.842-.155-2.918 1.241-2.452.21-5.547-.433-5.88-1.242-6.035 7.384-3.45 10.378 3.328 3.847 6.989 5.598 11.826 2.727 3.173-1.896 5.603-9.102 2.463-12.14-2.13-2.118-1.864 1.153-3.45-.377z"/><path fill="#6F6F6E" d="M194 291.302a5.172 5.172 0 0 0-5.68-.965c-2.918 1.242-2.452.21-5.548-.432-5.88-1.242-6.035 7.395-3.45 10.377 3.328 3.847 6.978 5.6 11.826 2.728 3.173-1.885 5.958-8.67 2.818-11.708H194z"/><path fill="#575756" d="M193.323 290.758c-1.709 9.824-4.438 10.733-13.846 9.657 3.329 3.759 6.923 5.444 11.705 2.595 3.173-1.885 5.957-8.67 2.818-11.708l.177.177-.177-.177-.622-.599.622.599a4.859 4.859 0 0 0-.677-.544z"/><path fill="#FFD43B" d="M208.245 310.837s1.697 7.25 4.892 8.493c1.398.543 7.633-4.956 6.934-11.198-.288-2.705-12.303 1.885-11.826 2.705zm24.928-19.158c-2.13 7.616-.366 10.92.1 13.493.666 3.725 4.904 8.481 4.97 10.21-.72.888-3.472-1.108-4.138-1.651a13.58 13.58 0 0 1-5.358-8.925 16.62 16.62 0 0 1 1.387-9.979 8.04 8.04 0 0 1 3.04-3.148z"/><path fill="#F9DA3E" d="M260.277 297.976a8.24 8.24 0 0 0 4.803 4.745 51.6 51.6 0 0 0 2.12-5.421 16.407 16.407 0 0 0-6.923.676zm6.09-10.743c-.321.089-5.08 1.763-4.249 2.361a11.674 11.674 0 0 0 6.324 3.204 48.18 48.18 0 0 0 .954-6.02 14.431 14.431 0 0 0-3.029.455zm-4.981-7.573a24.197 24.197 0 0 0 8.199 2.64c0-1.42 0-2.872-.178-4.347l-.166-1.93c-1.34.14-2.653.46-3.905.954-.289.122-4.815 2.173-3.95 2.683z"/><path fill="#FFD43B" d="M106.977 275.458c.04 1.692.173 3.38.399 5.056 1.509.26 3.051.26 4.56 0 .943-.177 5.336-2.129 4.57-2.738-2.906-2.329-6.135-2.417-9.53-2.318zm3.184 16.686a8.291 8.291 0 0 0 3.971-1.108c.134-.078 4.505-3.77 3.562-4.269-3.395-1.563-5.925-.443-8.876.732a59.498 59.498 0 0 0 1.343 4.645zm-2.863-22.617c.673.22 1.359.402 2.053.543 1.409.277 7.621-.488 7.067-1.108a16.466 16.466 0 0 0-7.988-4.568 32.134 32.134 0 0 0-1.132 5.133zm32.052 41.177c2.363 1.242 6.345-9.247 6.656-10.522.31-1.275.322-11.64-.455-11.23 1.01-.522 1.764 9.18 2.152 9.911 1.875 3.182 3.03.089 2.153 3.603a14.313 14.313 0 0 1-5.203 7.695 6.738 6.738 0 0 1-5.337 1.175c-1.165-.654-.643-.843.034-.632z"/><path fill="#FFD43B" d="M147.116 299.085c4.825 3.459 11.937 5.366 17.606 6.785 7.333 1.83 14.944 3.404 22.532 3.326 8.377-.122 16.82-.233 25.184-.765 1.476-.089 17.108-4.368 16.642-5.178 2.008 3.88-13.802 9.236-15.388 9.557-8.465 1.641-17.14 1.752-25.739 1.663-8.265-.088-16.42-2.217-24.13-5.122a77.852 77.852 0 0 1-10.95-4.834c-.532-.299-6.945-4.434-6.567-4.745.843-.643.898 1.109.832 1.552-.255-.221-.633-2.439-.022-2.24z"/><path fill="#575756" d="M138.506 310.582c.33-.146.643-.328.932-.543.324-.267.625-.56.899-.876.348-.423.674-.863.976-1.32a25.173 25.173 0 0 0 1.953-3.68 30.41 30.41 0 0 0 1.664-4.435 17.73 17.73 0 0 0 .51-2.35c.121-.767.184-1.542.189-2.318a20.775 20.775 0 0 0-.477-4.113 15.625 15.625 0 0 0-.843-2.805 6.54 6.54 0 0 0-.344-.743l-.133-.255a.177.177 0 0 1 .077-.233.167.167 0 0 1 .156 0h.1c.106.05.21.105.31.167.291.166.566.359.821.576.41.327.782.699 1.11 1.109a9.213 9.213 0 0 1 1.109 1.619c.398.67.725 1.38.976 2.117l.366 1.109c.1.454.2.931.267 1.397.122.952.14 1.915.055 2.871a15.147 15.147 0 0 1-.488 2.85c-.122.454-.322.975-.477 1.452-.155.477-.31.676-.544 1.253a22.425 22.425 0 0 1-1.242 2.217 15.026 15.026 0 0 1-3.118 3.581 8.687 8.687 0 0 1-1.675 1.109c-.482.26-.997.454-1.531.577-.36.109-.738.139-1.11.088h-.343a.2.2 0 1 1-.156-.355l.011-.066z"/><path fill="#FFF" d="M206.17 309.983s4.926 8.526 6.313 9.092c1.386.565 5.336-7.285 5.636-9.979.3-2.694-12.437.078-11.949.887z"/><path fill="#F5F5F5" d="M215.034 307.932c.566 4.79-3.261 8.205-4.437 9.103a7.297 7.297 0 0 0 1.852 2.05c1.387.566 5.337-7.283 5.636-9.978.122-.93-1.231-1.22-3.05-1.175z"/><path fill="#575756" d="M233.162 291.723c-.242.272-.454.57-.632.887a7.414 7.414 0 0 0-.455 1.109 15.9 15.9 0 0 0-.344 1.607 25.063 25.063 0 0 0-.244 4.158c-.011 1.596.104 3.19.344 4.767.117.798.287 1.587.51 2.362.208.757.47 1.499.788 2.217a20.952 20.952 0 0 0 2.141 3.548c.573.798 1.22 1.54 1.93 2.217.197.19.404.368.622.533l.222.177a.177.177 0 0 1 0 .255.166.166 0 0 1-.144.067h-.111a2.853 2.853 0 0 1-.355 0 5.173 5.173 0 0 1-.988-.189 6.87 6.87 0 0 1-1.442-.543 9.088 9.088 0 0 1-1.686-1.01 11.458 11.458 0 0 1-1.775-1.518l-.788-.854c-.277-.366-.566-.765-.821-1.108a13.3 13.3 0 0 1-1.243-2.595 15.126 15.126 0 0 1-.732-2.794c-.078-.454-.11-1.02-.166-1.519-.056-.499 0-.742 0-1.363.026-.835.1-1.668.222-2.495a15.02 15.02 0 0 1 1.353-4.557 8.603 8.603 0 0 1 1.11-1.74 6.343 6.343 0 0 1 1.109-1.164 2.64 2.64 0 0 1 .932-.51l.333-.1a.193.193 0 0 1 .288.255l.022-.1z"/><path fill="#FFD43B" d="M198.404 311.768s.666 13.97-9.874 15.012c-9.452.931-11.172-11.275-9.685-16.076 1.032-3.326 19.56 1.064 19.56 1.064z"/><path fill="#FF7474" d="M196.385 311.491s.666 13.903-8.753 15.012c-9.42 1.109-12.282-11.265-10.795-16.065 1.032-3.337 19.548 1.053 19.548 1.053z"/><path fill="#1D1D1B" d="M185.757 323.532a.222.222 0 0 1-.267-.178s-.355-1.774-.81-4.435c-.232-1.33-.51-2.882-.754-4.545a142.6 142.6 0 0 1-.555-3.737c1.11.111 2.22.255 3.329.433 0 1.108-.067 2.15-.133 3.17-.067 1.675-.178 3.25-.267 4.59-.166 2.695-.333 4.435-.333 4.435a.222.222 0 0 1-.21.267z" opacity=".05"/><path fill="#575756" d="M146.272 298.564l3.484 1.108c2.219.71 5.403 1.697 9.253 2.728 1.93.52 4.016 1.108 6.234 1.607 2.22.5 4.582 1.031 7.023 1.508a81.09 81.09 0 0 0 7.589 1.109c2.616.27 5.249.348 7.876.233 5.337-.233 10.673-.255 15.666-.377 4.992-.122 9.64-.366 13.59-.832a47.3 47.3 0 0 0 9.375-1.885 17.89 17.89 0 0 0 2.451-1.03l.81-.466a.267.267 0 0 1 .355.399v.066a8.871 8.871 0 0 1-.688.776 13.655 13.655 0 0 1-2.296 1.863 24.146 24.146 0 0 1-4.016 2.14 42.61 42.61 0 0 1-5.48 1.907c-2.031.576-4.239.987-6.569 1.43-2.33.444-4.792.676-7.322.898-2.53.222-5.125.333-7.766.4-2.64.066-5.258.066-7.888 0h-2.119c-.754 0-1.475-.067-2.218-.123a43.257 43.257 0 0 1-4.25-.488 68.013 68.013 0 0 1-7.888-1.718c-1.242-.355-2.474-.687-3.65-1.109l-1.752-.532-1.687-.599a145.902 145.902 0 0 1-6.157-2.383c-1.886-.787-3.572-1.608-5.07-2.317-1.498-.71-2.763-1.43-3.805-1.996-2.086-1.164-3.229-1.907-3.229-1.907a.277.277 0 0 1 .233-.488l-.089.078z"/><path fill="#FFD43B" d="M167.54 330.24c-43.268-7.762-57.856-51.056-60.408-59.194-1.62 17.739 9.763 37.895 17.34 47.918 5.37 7.118-10.972 7.76 28.468 15.156 21.822 4.068 59.376 17.905 91.716-6.653a69.008 69.008 0 0 0 18.949-21.73 49.489 49.489 0 0 0 5.99-23.283C249.183 326.403 215.9 338.92 167.54 330.24z"/><path fill="#D8DFE0" d="M201.133 460.932c4.15 1.43 6.868-.92 6.047-5.211l-22.788-118.198a15.225 15.225 0 0 0-9.053-10.378L9.547 270.303c-4.15-1.42-6.867.92-6.035 5.21l22.765 118.198a15.225 15.225 0 0 0 9.053 10.378l165.803 56.843z"/><path fill="#ECF0F1" d="M187.443 335.472a15.214 15.214 0 0 0-9.053-10.378L12.587 268.251c-2.086-.71-3.328-.93-4.438 0l-3.572 2.495c1.11-.953 2.818-1.197 4.904-.477l165.858 56.865a15.225 15.225 0 0 1 9.042 10.378l22.788 118.209c.41 2.129 0 3.78-1.11 4.723l3.062-2.04c1.11-.954 1.542-2.594 1.11-4.723l-22.788-118.21z"/><path fill="#D8DFE0" d="M118.337 376.56a8.176 8.176 0 0 1 4.715 3.703c1.187 2.473-.555 4.568-3.927 4.69a9.913 9.913 0 0 1-3.54-.565 8.198 8.198 0 0 1-4.725-3.714c-1.188-2.473.565-4.568 3.927-4.679a9.902 9.902 0 0 1 3.55.565z"/><path fill="#FFF" d="M124.583 390.563l.144.056 2.674 1.275 5.292 2.516c.54.262.917.772 1.01 1.364 0 .466-.311.676-.766.521h-.133l-6.335-3.015-1.63-.777a1.84 1.84 0 0 1-1.01-1.363c-.011-.5.288-.732.754-.577zm-.843 2.051c.183.069.352.17.5.3l1.364 1.164 5.935 5.1c.5.432.755 1.109.577 1.441-.177.333-.388.31-.71.2a1.62 1.62 0 0 1-.5-.3l-6.5-5.543-.81-.699a1.419 1.419 0 0 1-.577-1.44c.122-.267.4-.334.721-.223zm7.977-4.723c.51.196.913.6 1.11 1.109.199.554 0 .953-.511.887l-3.894-.521-3.706-.499h-.2a1.93 1.93 0 0 1-1.109-1.109c-.21-.554 0-.964.5-.898l4.737.632 2.94.4h.133zm-22.688-5.543a2.218 2.218 0 0 1 1.431 1.907 1.474 1.474 0 0 1-2.163 1.33 5.146 5.146 0 0 1-2.84-2.938c-.311-.81.144-1.419.843-1.175.234.09.446.23.621.41.133.122.244.266.377.4.12.097.228.209.322.332v.066a3.33 3.33 0 0 1 .877-.365 1.11 1.11 0 0 1 .532.033z"/><path fill="#ECF0F1" d="M126.99 371.383l-.343-1.83-2.341.289.499-1.552-1.83-.632.21-1.62a36.878 36.878 0 0 0-5.547-.709 40.773 40.773 0 0 0-12.536-8.381 22.426 22.426 0 0 0-1.565-.588c-5.347-1.863-9.896-1.652-12.98.2-1.53-1.11-3.539-2.462-5.358-3.515a16.368 16.368 0 0 0-2.441-1.308c-.943-.322-1.698-.178-1.653 1.352 0 2.395 4.071 8.216 5.358 9.979a14.791 14.791 0 0 0 0 4.024c.189 1.411.516 2.8.977 4.147l6.013 4.002c.505.305.812.852.81 1.441-.067.344-.366.488-.766.344a1.41 1.41 0 0 1-.322-.166l-4.803-3.193a34.162 34.162 0 0 0 2.152 4.058l3.073 1.108a1.93 1.93 0 0 1 1.11 1.297c.1.522-.245.82-.755.643l-1.864-.631c.437.606.891 1.2 1.365 1.785l1.298-.134a.933.933 0 0 1 .355 0c.417.171.76.486.965.887.3.566.177 1.11-.255 1.11l-.677.066a42.157 42.157 0 0 0 14.778 10.687c.521.211 1.042.41 1.553.588 5.325 1.852 9.874 1.663 12.947-.177l-.81-.699a1.419 1.419 0 0 1-.577-1.441c.122-.244.4-.31.721-.2.183.07.352.17.5.3l1.364 1.164c.306-.263.591-.548.854-.854l-1.63-.776a1.84 1.84 0 0 1-1.01-1.364c0-.454.288-.687.754-.52l.144.055 2.674 1.275c.448-.796.78-1.65.987-2.54l-3.705-.498h-.2a1.93 1.93 0 0 1-1.11-1.109c-.21-.554 0-.964.5-.898l4.737.632a15.622 15.622 0 0 0-.11-3.093 25.921 25.921 0 0 0-3.063-8.87 10.177 10.177 0 0 0 2.53-4.213l-.976.078zm-25.36 7.317a17.165 17.165 0 0 1-4.838-2.871c-3.772-3.038-6.29-6.885-5.636-8.604.355-.92 1.553-1.042 3.184-.477a17.198 17.198 0 0 1 4.837 2.872c3.772 3.038 6.29 6.885 5.636 8.603-.355.92-1.553 1.043-3.184.477zm17.45 6.253a9.99 9.99 0 0 1-3.539-.565 8.209 8.209 0 0 1-4.726-3.714c-1.187-2.473.566-4.568 3.928-4.679a9.902 9.902 0 0 1 3.55.565 8.176 8.176 0 0 1 4.715 3.703c1.187 2.473-.555 4.568-3.928 4.69zm-8.664-.743a1.474 1.474 0 0 1-2.164 1.33 5.146 5.146 0 0 1-2.84-2.937c-.31-.81.145-1.42.843-1.175.235.09.446.23.622.41.133.122.244.266.377.399.127.106.242.225.344.355a3.33 3.33 0 0 1 .876-.366c.178-.048.366-.048.544 0a2.218 2.218 0 0 1 1.431 1.907l-.033.077z"/><path fill="#FFF" d="M95.106 381.816c.417.17.76.485.965.887.3.565.177 1.108-.255 1.108l-.677.067-5.736.599a1.021 1.021 0 0 1-.366 0 1.908 1.908 0 0 1-.965-.887c-.3-.566-.189-1.11.255-1.11l5.126-.52 1.298-.133a.933.933 0 0 1 .355-.011zm-1.509-3.016a1.93 1.93 0 0 1 1.11 1.297c.1.521-.245.82-.755.643l-1.864-.643-5.946-2.04a1.896 1.896 0 0 1-1.11-1.297c-.1-.521.233-.82.744-.643l4.759 1.63 3.062 1.053z"/><path fill="#D8DFE0" d="M94.385 366.748a17.243 17.243 0 0 1 4.837 2.872c3.772 3.038 6.29 6.885 5.636 8.603-.355.92-1.554 1.043-3.184.477a17.143 17.143 0 0 1-4.838-2.871c-3.772-3.038-6.29-6.885-5.635-8.604.355-.92 1.553-1.03 3.184-.477z"/><path fill="#FFF" d="M84.988 369.675c.114.042.222.098.322.167l2.107 1.419 6.014 4.002c.505.305.812.852.81 1.442-.067.343-.367.487-.766.343a1.41 1.41 0 0 1-.322-.166l-4.804-3.193-3.328-2.217a1.667 1.667 0 0 1-.81-1.43c.045-.378.344-.5.777-.367z"/><path fill="#6F6F6E" d="M116.462 268.773a11.8 11.8 0 0 0-1.11-1.109 23.153 23.153 0 0 0-3.106-2.217 23.97 23.97 0 0 0-4.715-2.217c-1.808-.577-3.86-.81-5.824-1.32s-3.939-.987-5.802-1.397c-1.864-.41-3.595-.787-5.093-1.108-2.984-.643-4.992-.998-4.992-.998a.255.255 0 0 0-.3.21.255.255 0 0 0 .133.278s1.82.93 4.582 2.217c1.376.665 2.985 1.43 4.715 2.217 1.731.788 3.595 1.597 5.448 2.417 1.852.82 3.639 1.84 5.425 2.484 1.656.55 3.367.922 5.103 1.108 1.275.139 2.559.172 3.839.1a11.423 11.423 0 0 0 1.53-.177.288.288 0 0 0 .234-.344.277.277 0 0 0-.067-.144zm-.022 8.78a8.876 8.876 0 0 0-1.11-.764 16.335 16.335 0 0 0-2.928-1.42 16.717 16.717 0 0 0-4.238-1.02c-1.576-.121-3.329.156-4.982.134a93.45 93.45 0 0 0-4.97.066c-1.642.067-3.073.111-4.349.167-2.54.1-4.249.244-4.249.244a.255.255 0 1 0 0 .51s1.642.465 4.127 1.108c1.243.3 2.685.665 4.238.998 1.553.333 3.206.676 4.87 1.009 1.665.333 3.329.898 4.86 1.109a17.762 17.762 0 0 0 7.5-1.02 9.237 9.237 0 0 0 1.22-.544.31.31 0 0 0 .11-.42l-.099-.156zm1.198 9.081a7.77 7.77 0 0 0-1.11-.432 12.843 12.843 0 0 0-2.806-.566 12.422 12.422 0 0 0-3.761.178c-1.32.321-2.652 1.042-4.05 1.485-1.397.444-2.773.92-4.06 1.408-1.287.488-2.485.943-3.517 1.342-2.063.787-3.417 1.386-3.417 1.386a.255.255 0 0 0 .1.499s1.487 0 3.683-.111c1.11 0 2.397-.1 3.761-.2 1.365-.1 2.83-.233 4.283-.355 1.453-.121 2.962 0 4.293-.277a12.541 12.541 0 0 0 3.506-1.363 12.847 12.847 0 0 0 2.34-1.652c.303-.263.585-.548.844-.854a.332.332 0 0 0 0-.466l-.089-.022z"/><path fill="#575756" d="M100.409 265.757c-1.853-.82-3.728-1.607-5.447-2.417-1.72-.809-3.329-1.552-4.715-2.217-2.763-1.308-4.582-2.217-4.582-2.217a.255.255 0 0 1-.134-.278.255.255 0 0 1 .111-.166s16.331 6.397 21.856 8.293c2.219.754 9.02 2.284 9.02 2.284a.277.277 0 0 1-.211.233c-.506.093-1.017.153-1.531.177-1.28.072-2.564.04-3.839-.1a24.421 24.421 0 0 1-5.103-1.108c-1.775-.632-3.561-1.696-5.425-2.484zm14.766 12.85a17.762 17.762 0 0 1-7.5 1.02c-1.564-.188-3.195-.787-4.859-1.109a143.817 143.817 0 0 1-4.87-1.008 428.918 428.918 0 0 1-4.238-.998c-2.485-.588-4.127-1.109-4.127-1.109a.255.255 0 0 1-.189-.233s14.256 2.295 19.093 2.76c1.942.19 8.022-.154 8.022-.154a.3.3 0 0 1-.145.255 9.28 9.28 0 0 1-1.187.576zm-20.38 13.171s12.204-2.006 16.053-2.849c1.842-.399 6.923-2.084 6.923-2.084a.31.31 0 0 1 0 .321c-.258.306-.54.592-.843.854a12.847 12.847 0 0 1-2.34 1.652 12.541 12.541 0 0 1-3.507 1.364c-1.342.244-2.85.133-4.293.277-1.442.144-2.907.288-4.282.355-1.376.066-2.663.144-3.761.2-2.22.11-3.684.11-3.684.11a.255.255 0 0 1-.266-.2z"/><path fill="#6F6F6E" d="M261.386 279.638c.401.197.817.363 1.243.5a16.54 16.54 0 0 0 3.206.72 16.9 16.9 0 0 0 4.437 0c1.576-.244 3.207-.887 4.882-1.264 1.675-.377 3.328-.765 4.893-1.186 1.564-.422 3.006-.81 4.249-1.11a113.264 113.264 0 0 0 4.127-1.196.255.255 0 0 0 .166-.322.266.266 0 0 0-.233-.177s-1.73-.078-4.304-.09h-4.438c-1.642 0-3.328.067-5.026.123-1.697.055-3.45-.133-5.037 0-1.46.202-2.889.593-4.249 1.164-1.017.413-1.99.925-2.906 1.53-.39.242-.76.513-1.11.81a.31.31 0 0 0 0 .432l.1.066zm.754 9.956c.38.243.777.458 1.188.643a18.327 18.327 0 0 0 7.521 1.641c1.61-.055 3.329-.51 5.026-.687 1.697-.178 3.417-.377 5.026-.61 1.608-.233 3.106-.443 4.437-.643 2.563-.377 4.283-.71 4.283-.71a.255.255 0 1 0 0-.51s-1.72-.277-4.294-.598c-1.287-.167-2.795-.366-4.437-.532a467.176 467.176 0 0 0-5.048-.477c-1.72-.155-3.44-.532-5.048-.543a17.362 17.362 0 0 0-4.438.665 16.867 16.867 0 0 0-3.095 1.175c-.407.198-.8.424-1.176.676a.31.31 0 0 0-.067.433l.122.077zm-1.863 8.493c.21.292.443.567.699.82a10.33 10.33 0 0 0 1.985 1.586 9.478 9.478 0 0 0 3.007 1.264c1.11.21 2.474 0 3.728.166 1.253.166 2.518.21 3.705.244 1.187.033 2.308.078 3.262.1h3.195a.266.266 0 0 0 .255-.266.266.266 0 0 0-.144-.233s-1.11-.555-2.918-1.297a74.291 74.291 0 0 0-3.018-1.242 272.213 272.213 0 0 0-3.483-1.297c-1.187-.433-2.33-1.109-3.462-1.375a9.492 9.492 0 0 0-3.261-.078 10.4 10.4 0 0 0-2.452.632c-.337.13-.664.285-.976.466a.355.355 0 0 0-.111.488l-.011.022z"/><path fill="#575756" d="M261.386 279.638l-.089-.066a.31.31 0 0 1-.077-.21s6.257-.112 8.642-.422c4.438-.577 18.683-3.138 18.683-3.138a.244.244 0 0 1-.167.277s-1.642.521-4.127 1.198c-1.242.343-2.685.765-4.249 1.108-1.564.344-3.217.788-4.892 1.187-1.676.399-3.329 1.02-4.882 1.264a16.907 16.907 0 0 1-4.438 0 16.54 16.54 0 0 1-3.206-.721c-.41-.13-.81-.29-1.198-.477zm.677 9.879a.3.3 0 0 1 0-.122s6.468.732 8.675.687c4.727-.089 19.05-1.186 19.05-1.186a.266.266 0 0 1-.2.321s-1.709.322-4.283.71c-1.287.2-2.784.443-4.438.643-1.653.2-3.328.41-5.025.61-1.698.2-3.428.62-5.026.687a18.327 18.327 0 0 1-7.522-1.64c-.41-.186-.807-.4-1.187-.644l-.044-.066zm-1.786 8.215a60.49 60.49 0 0 0 6.035 2.162c3.328.72 13.768 2.218 13.768 2.218a.255.255 0 0 1-.233.221h-3.195c-.954 0-2.075 0-3.262-.1-1.187-.1-2.452-.155-3.706-.243-1.253-.09-2.573 0-3.727-.167a9.478 9.478 0 0 1-3.007-1.264 10.339 10.339 0 0 1-1.986-1.585 6.442 6.442 0 0 1-.687-.887.321.321 0 0 1 0-.355z"/><path fill="#FFD43B" d="M172.954 277.1c-2.219 3.924-4.183 4.434-15.976 4.157-12.459-.288-28.845-15.744-24.407-25.988 3.106-7.173 7.622-6.22 19.47-.987 6.058 2.672 15.787 9.979 18.616 14.136 2.497 3.648 4.105 5.488 2.297 8.681z"/><path fill="#FFF" d="M172.632 278.053c-2.219 3.925-3.805 5.266-15.598 4.978-12.46-.288-28.845-15.744-24.408-25.988 3.107-7.173 7.611-5.854 19.46-.632 6.057 2.672 15.798 9.635 18.627 13.77 2.44 3.659 3.672 4.623 1.92 7.872z"/><path fill="#575756" d="M162.87 275.824c-.555-9.978-5.548-17.55-12.57-12.75-5.06 3.46-5.326 11.708-5.082 16.054a24.651 24.651 0 0 0 11.76 3.903h4.238c1.165-1.308 1.864-3.526 1.653-7.207z"/><path fill="#000" d="M152.02 256.422c-11.85-5.222-16.354-6.552-19.46.632a9.618 9.618 0 0 0-.632 5.211c1.641-.62 4.626-.998 9.74.466 8.332 2.383 26.471 8.126 31.175 14.834 1.398-2.816.166-3.903-2.219-7.362-2.807-4.146-12.547-11.12-18.605-13.78z" opacity=".05"/><path fill="#FFD43B" d="M204.706 283.408c1.697 4.18 7.322 1.585 18.216.2 7.145-.91 15.954-3.87 20.27-9.558 3.15-4.157 3.716-8.403 1.852-12.727-3.106-7.174-8.598-6.73-19.592-1.608-5.991 2.794-15.466 9.978-18.295 14.08-2.507 3.637-3.461 7.14-2.451 9.613z"/><path fill="#FFF" d="M204.883 283.441c1.698 4.18 7.156 3.659 18.05 2.273 7.145-.91 15.033-4.28 19.338-9.978 3.15-4.158 4.515-8.992 2.64-13.305-3.106-7.184-8.465-5.754-19.46-.632-5.99 2.794-15.797 9.635-18.626 13.77-2.508 3.67-2.951 5.4-1.942 7.872z"/><path fill="#575756" d="M229.612 284.184c.08-.982.08-1.968 0-2.95-.555-9.977-5.547-17.55-12.57-12.75-6.146 4.203-5.214 15.523-4.892 18.239a97.525 97.525 0 0 0 10.728-.998 35.188 35.188 0 0 0 6.734-1.541z"/><path fill="#000" d="M225.452 261.81c-5.991 2.794-15.798 9.635-18.627 13.77-2.497 3.637-2.94 5.367-1.942 7.828 3.384-5.92 10.595-10.222 17.03-11.985 7.144-1.951 9.108-4.934 23.054-.377a11.845 11.845 0 0 0 0-8.615c-3.162-7.173-8.532-5.743-19.515-.62z" opacity=".05"/><path fill="#004586" d="M363.231 184.745c-6.113 27.717-21.778 59.703-32.173 77.032-15.954 26.742-45.265 36.166-48.06 37.008.804.223 1.557.6 2.218 1.11a25.248 25.248 0 0 1 8.343 10.288 64.66 64.66 0 0 1 1.675 4.313c43.423-28.161 60.963-85.148 67.997-129.751zm2.851-22.351a21.01 21.01 0 0 0-.244 2.361l.244-2.361z"/></g><g transform="translate(330.136 441.062)"><mask id="pricing-banner-b" fill="#fff"><use xlink:href="#pricing-banner-a"/></mask><path fill="#1D1D1B" d="M3.063 27.935S12.294 42.01 42.18 39.738C64.39 38.05 73.303 26.59 71.024 19.101c-2.28-7.49-5.969-13.047-15.49-16.033C49.256 1.1 24.886 19.883 24.886 19.883L3.063 27.935z" mask="url(#pricing-banner-b)" opacity=".03"/></g><path fill="#1D1D1B" d="M351.339 455.927s6.454-8.681 23.199-9.202c16.745-.521-37.502-27.781-37.851-14.933-.349 12.85-2.442 30.907 14.652 24.135" opacity=".03"/><path fill="#FFE066" d="M333.044 427.952c12.948-7.59 34.029-7.592 47.064 0 13.036 7.59 13.105 19.909.152 27.494-12.948 7.594-34.029 7.594-47.064.001-13.034-7.588-13.102-19.905-.152-27.495m59.155 13.799a20.687 20.687 0 0 0-2.45-5.645c-1.479-2.37-3.144-3.912-3.945-4.652-.866-.804-2.152-1.725-3.107-2.416-.51-.367-1.243-.776-1.773-1.11-.297-.18-1.9-1.125-4.355-2.158a44.277 44.277 0 0 0-4.7-1.658 50.018 50.018 0 0 0-4.96-1.177 56.387 56.387 0 0 0-5.142-.702c-.782-.064-1.824-.156-2.609-.174-.786-.019-1.833-.059-2.62-.059-.785 0-1.834.04-2.62.059-1.43.032-2.455.15-5.197.467-.02.004-2.347.293-5.064.944-1.884.448-1.995.487-4.853 1.425-.082.028-2.033.673-4.571 1.938-1.57.786-2.016 1.073-3.885 2.278-.982.632-2.183 1.639-3.06 2.415-.651.58-1.47 1.418-2.017 2.098-.277.344-.653.797-.91 1.155a23.7 23.7 0 0 0-1.035 1.551c-.365.62-.8 1.481-1.115 2.13-.166.342-.361.814-.488 1.174-.459 1.307-.459 1.307-.67 2.09a21.764 21.764 0 0 0-.443 2.02c-.028.158-.172 1-.259 2.005-.066.771-.066.771-.097 2.134v1.573c0 .744.024 1.399.083 2.125a22.17 22.17 0 0 0 .254 2.024 21.561 21.561 0 0 0 1.146 4.266c.246.618.603 1.43.899 2.028.256.505.628 1.163.938 1.637.454.7 1.305 2.007 2.9 3.621.676.683 1.652 1.513 2.392 2.125.478.388 1.154.851 1.66 1.204 1.07.747 2.982 1.826 4.025 2.32 2.317 1.102 3.72 1.63 4.492 1.88.716.231 1.657.573 2.382.766 1.471.386 3.44.87 4.932 1.165 1.51.299 4.19.638 5.142.704.78.051 1.822.156 2.608.174.786.016 1.832.059 2.62.059.787 0 1.834-.024 2.621-.06 5.204-.232 9.01-1.118 10.26-1.409.74-.173 2.699-.66 4.852-1.426 2.28-.815 3.842-1.565 4.57-1.94.614-.317 1.436-.738 2.026-1.1a57.909 57.909 0 0 0 2.874-1.899c.015-.013 1.708-1.276 2.855-2.47.667-.7 1.505-1.69 2.102-2.453.35-.446.742-1.097 1.05-1.575.257-.394.552-.95.756-1.37.29-.6.641-1.42.887-2.039.005-.01.316-.8.662-2.096a23.761 23.761 0 0 0 .684-4.025c.058-.682.06-.734.085-2.022l.006-1.572c-.008-.84-.014-3.39-.818-6.347"/><path fill="#FFD43B" d="M343.618 435.26c-.061.04-.121.083-.183.122-.125.08-.25.16-.368.246a8.61 8.61 0 0 0-.204.145l-.312.23a8.364 8.364 0 0 0-.202.16c-.096.078-.19.152-.28.228-.066.055-.128.112-.193.167-.087.077-.17.155-.253.232-.06.057-.12.113-.178.17-.081.082-.158.162-.234.242-.053.057-.109.113-.16.17a7.642 7.642 0 0 0-.224.26c-.044.052-.09.104-.133.157-.105.13-.205.259-.297.39-.042.06-.081.12-.119.18a6.29 6.29 0 0 0-.178.266c-.04.07-.08.143-.121.212-.042.073-.084.144-.122.22-.04.076-.078.151-.115.229-.032.068-.066.136-.095.203-.035.083-.068.161-.1.243a3.59 3.59 0 0 0-.073.197c-.031.082-.06.168-.087.252-.018.059-.034.12-.05.18a7.77 7.77 0 0 0-.072.27l-.03.154c-.02.1-.04.198-.055.299l-.01.084a5.796 5.796 0 0 0 .082 2l.017.074c.028.12.062.242.094.362l.021.065c.038.123.08.247.126.37l.015.041c.424 1.103 1.177 2.172 2.259 3.158a14.46 14.46 0 0 0 2.505 1.793c6.324 3.592 16.233 3.873 23.088.844-6.763 2.986-16.495 2.754-22.831-.704a14.6 14.6 0 0 1 1.441-.8c.757-.36.904-.416 2.05-.837.9-.33 2.625-.762 3.476-.894.742-.116 1.734-.266 2.482-.332a28.97 28.97 0 0 1 5.098.002c.75.064 1.744.214 2.488.331.873.137 2.63.579 3.52.908 1.247.461 1.247.461 2.107.865.46.215 1.053.538 1.481.819.125-.066.252-.132.374-.202.716-.41 1.35-.844 1.914-1.3 1.05-.851 1.837-1.771 2.366-2.73a7.66 7.66 0 0 0 .208-.406 6.618 6.618 0 0 0 .182-.419c.006-.019.013-.034.019-.05a7.35 7.35 0 0 0 .144-.413 5.859 5.859 0 0 0 .246-2.055l-.002-.074c-.009-.108-.023-.214-.035-.322l-.019-.133a5.251 5.251 0 0 0-.054-.296c-.01-.052-.023-.103-.032-.157a5.154 5.154 0 0 0-.126-.451 7.42 7.42 0 0 0-.088-.268l-.072-.183a7.716 7.716 0 0 0-.108-.256l-.09-.191c-.04-.081-.077-.163-.122-.247-.037-.067-.08-.136-.118-.205a5.304 5.304 0 0 0-.133-.226 9.223 9.223 0 0 0-.274-.414 7.682 7.682 0 0 0-.137-.18c-.063-.082-.123-.164-.189-.244a7.037 7.037 0 0 0-.158-.188 6.67 6.67 0 0 0-.378-.42c-.073-.077-.148-.151-.225-.228-.06-.062-.125-.12-.19-.18-.08-.075-.163-.15-.248-.226-.066-.057-.133-.116-.202-.172-.088-.075-.182-.15-.275-.224a5.66 5.66 0 0 0-.207-.163c-.103-.079-.206-.152-.31-.229-.074-.05-.141-.1-.212-.149a7.793 7.793 0 0 0-.371-.245c-.063-.041-.122-.082-.188-.121a12.894 12.894 0 0 0-.593-.357c-6.866-3.9-17.956-3.9-24.779 0-.205.115-.398.233-.589.352"/><path fill="#FFF" d="M369.72 450.428c-6.426 3.722-15.321 3.896-22.151 1.231-7.607-2.968-10.778-10.814-2.664-15.518 6.429-3.722 15.323-3.897 22.158-1.229 7.604 2.969 10.774 10.812 2.658 15.516-6.81 3.945 6.808-3.947 0 0m-15.855-28.14c-16.228 1.68-19.555 4.1-25.813 9.276-4.566 3.773-5.818 9.284-4.742 15.217.558 3.072 4.474 5.599 5.938 8.442 1.892 3.668 6.584 2.275 8.924 5.415 2.242 3.007 5.725 5.52 8.55 2.972 4.414-2.61 9.553.506 14.185-.643 3.832-.952 8.374 1.734 11.646-1.156 1.3-1.147.97-1.83 2.9-1.973 4.022-.3 3.396-1.465 5.804-2.854 3.107-1.802 6.032-1.106 7.013-5.48 3.019-4.917 1.858-3.256 2.911-7.777.21-.893-.486-3.624-1.009-5.207-4.343-13.115-21.238-17.79-36.307-16.232z"/><path fill="#005DB4" fill-rule="nonzero" d="M364.242 457.396a.71.71 0 0 1-.51.884c-.396.109-.809-.11-.922-.49l-1.205-4.017a.71.71 0 0 1 .51-.883c.396-.11.81.11.923.489l1.204 4.017z"/><path fill="#FF7474" fill-rule="nonzero" d="M357.8 459.045a.636.636 0 0 1 0 .893.62.62 0 0 1-.884 0l-2.343-2.368a.636.636 0 0 1 0-.893.62.62 0 0 1 .884 0l2.343 2.368z"/><path fill="#005DB4" fill-rule="nonzero" d="M367.15 450.309a.636.636 0 0 1 0-.893.62.62 0 0 1 .883 0l2.343 2.367a.636.636 0 0 1 0 .894.62.62 0 0 1-.884 0l-2.343-2.368z"/><path fill="#FF7474" fill-rule="nonzero" d="M362.48 464.587c-.308.174-.683.033-.838-.314-.154-.347-.029-.77.28-.943l2.343-1.317c.309-.174.684-.033.838.314.155.347.03.77-.28.943l-2.342 1.317z"/><path fill="#005DB4" fill-rule="nonzero" d="M375.126 460.132c.385-.056.75.171.813.508.065.337-.196.656-.581.712l-3.976.578c-.385.056-.749-.172-.813-.509-.064-.336.196-.655.581-.711l3.976-.578zm11.948-12.293c-.308-.173-.433-.596-.28-.943.155-.347.53-.488.84-.314l2.342 1.317c.31.174.434.596.28.943-.154.347-.53.488-.839.314l-2.343-1.317z"/><path fill="#FF7474" fill-rule="nonzero" d="M385.824 452.936c.309-.174.684-.033.839.314.154.347.029.77-.28.943l-2.343 1.317c-.309.174-.684.033-.838-.314-.155-.347-.03-.77.28-.943l2.342-1.317zm-8.793-2.627a.636.636 0 0 1 0-.893.62.62 0 0 1 .883 0l2.344 2.367a.636.636 0 0 1 0 .894.62.62 0 0 1-.884 0l-2.343-2.368z"/><path fill="#005DB4" fill-rule="nonzero" d="M374.985 457.39c-.384.06-.752-.158-.821-.485-.07-.327.186-.64.57-.7l3.976-.61c.384-.06.752.157.821.485.07.327-.186.64-.57.699l-3.976.611zm-10.743-26.317a.71.71 0 0 1-.51.884c-.396.109-.809-.11-.922-.49l-1.205-4.017a.71.71 0 0 1 .51-.884c.396-.109.81.11.923.49l1.204 4.017z"/><path fill="#FF7474" fill-rule="nonzero" d="M357.8 425.46a.636.636 0 0 1 0 .893.62.62 0 0 1-.884 0l-2.343-2.367a.636.636 0 0 1 0-.893.62.62 0 0 1 .884 0l2.343 2.367z"/><path fill="#005DB4" fill-rule="nonzero" d="M367.15 423.986a.636.636 0 0 1 0-.893.62.62 0 0 1 .883 0l2.343 2.367a.636.636 0 0 1 0 .893.62.62 0 0 1-.884 0l-2.343-2.367zm7.976 9.822c.385-.056.75.172.813.509.065.337-.196.655-.581.712l-3.976.578c-.385.056-.749-.172-.813-.509-.064-.337.196-.655.581-.711l3.976-.579zm9.837.912a.712.712 0 0 1 .49-.89.734.734 0 0 1 .909.479l1.234 4.017a.712.712 0 0 1-.489.89.733.733 0 0 1-.91-.479l-1.234-4.017zm-2.909 7.079a.636.636 0 0 1 0 .893.62.62 0 0 1-.884 0l-2.343-2.368a.636.636 0 0 1 0-.893.62.62 0 0 1 .884 0l2.343 2.368zm-7.069-10.732c-.384.06-.752-.158-.821-.485-.07-.327.186-.64.57-.7l3.976-.61c.384-.06.752.157.821.485.07.327-.186.64-.57.699l-3.976.611zm-36.734 29.976a.712.712 0 0 1 .49-.89.733.733 0 0 1 .909.479l1.234 4.017a.712.712 0 0 1-.489.89.733.733 0 0 1-.91-.479l-1.234-4.017z"/><path fill="#FF7474" fill-rule="nonzero" d="M344.692 457.57a.636.636 0 0 1 0-.893.62.62 0 0 1 .883 0l2.344 2.368a.636.636 0 0 1 0 .893.62.62 0 0 1-.884 0l-2.343-2.368z"/><path fill="#005DB4" fill-rule="nonzero" d="M341.26 447.84c-.308-.174-.433-.597-.279-.944.155-.347.53-.488.839-.314l2.343 1.317c.309.174.434.596.28.943-.155.347-.53.488-.84.314l-2.342-1.317z"/><path fill="#FF7474" fill-rule="nonzero" d="M340.01 452.936c.31-.174.685-.033.84.314.154.347.028.77-.28.943l-2.343 1.317c-.31.174-.684.033-.839-.314-.154-.347-.03-.77.28-.943l2.343-1.317zm-8.793-2.627a.636.636 0 0 1 0-.893.62.62 0 0 1 .884 0l2.343 2.367a.636.636 0 0 1 0 .894.62.62 0 0 1-.884 0l-2.343-2.368z"/><path fill="#005DB4" fill-rule="nonzero" d="M329.172 457.39c-.384.06-.752-.158-.822-.485-.07-.327.186-.64.57-.7l3.976-.61c.384-.06.752.157.821.485.07.327-.185.64-.57.699l-3.975.611z"/><path fill="#FF7474" fill-rule="nonzero" d="M325.461 441.799a.636.636 0 0 1 0 .893.62.62 0 0 1-.884 0l-2.343-2.368a.636.636 0 0 1 0-.893.62.62 0 0 1 .884 0l2.343 2.368z"/><path fill="#005DB4" fill-rule="nonzero" d="M327.516 433.808c.385-.056.75.172.813.509.064.337-.196.655-.581.712l-3.976.578c-.385.056-.75-.172-.813-.509-.064-.337.196-.655.581-.711l3.976-.579zm10.735.912a.712.712 0 0 1 .49-.89.733.733 0 0 1 .909.479l1.234 4.017a.712.712 0 0 1-.489.89.733.733 0 0 1-.91-.479l-1.234-4.017z"/><path fill="#FF7474" fill-rule="nonzero" d="M344.692 431.247a.636.636 0 0 1 0-.893.62.62 0 0 1 .883 0l2.344 2.368a.636.636 0 0 1 0 .893.62.62 0 0 1-.884 0l-2.343-2.368z"/><path fill="#005DB4" fill-rule="nonzero" d="M335.342 441.799a.636.636 0 0 1 0 .893.62.62 0 0 1-.884 0l-2.343-2.368a.636.636 0 0 1 0-.893.62.62 0 0 1 .884 0l2.343 2.368z"/><path fill="#FF7474" fill-rule="nonzero" d="M340.01 426.613c.31-.174.685-.033.84.314.154.347.028.77-.28.943l-2.343 1.317c-.31.174-.684.033-.839-.314-.154-.347-.03-.77.28-.943l2.343-1.317z"/><path fill="#005DB4" fill-rule="nonzero" d="M330.07 431.067c-.384.06-.752-.158-.821-.485-.07-.327.185-.64.57-.7l3.975-.61c.385-.06.752.157.822.485.07.327-.186.64-.57.699l-3.976.611zm34.172 26.329a.71.71 0 0 1-.51.884c-.396.109-.809-.11-.922-.49l-1.205-4.017a.71.71 0 0 1 .51-.883c.396-.11.81.11.923.489l1.204 4.017z"/><path fill="#FF7474" fill-rule="nonzero" d="M357.8 459.045a.636.636 0 0 1 0 .893.62.62 0 0 1-.884 0l-2.343-2.368a.636.636 0 0 1 0-.893.62.62 0 0 1 .884 0l2.343 2.368z"/><path fill="#005DB4" fill-rule="nonzero" d="M367.15 450.309a.636.636 0 0 1 0-.893.62.62 0 0 1 .883 0l2.343 2.367a.636.636 0 0 1 0 .894.62.62 0 0 1-.884 0l-2.343-2.368z"/><path fill="#FF7474" fill-rule="nonzero" d="M362.48 464.587c-.308.174-.683.033-.838-.314-.154-.347-.029-.77.28-.943l2.343-1.317c.309-.174.684-.033.838.314.155.347.03.77-.28.943l-2.342 1.317z"/><path fill="#005DB4" fill-rule="nonzero" d="M375.126 460.132c.385-.056.75.171.813.508.065.337-.196.656-.581.712l-3.976.578c-.385.056-.749-.172-.813-.509-.064-.336.196-.655.581-.711l3.976-.578zm11.948-12.293c-.308-.173-.433-.596-.28-.943.155-.347.53-.488.84-.314l2.342 1.317c.31.174.434.596.28.943-.154.347-.53.488-.839.314l-2.343-1.317z"/><path fill="#FF7474" fill-rule="nonzero" d="M385.824 452.936c.309-.174.684-.033.839.314.154.347.029.77-.28.943l-2.343 1.317c-.309.174-.684.033-.838-.314-.155-.347-.03-.77.28-.943l2.342-1.317zm-8.793-2.627a.636.636 0 0 1 0-.893.62.62 0 0 1 .883 0l2.344 2.367a.636.636 0 0 1 0 .894.62.62 0 0 1-.884 0l-2.343-2.368z"/><path fill="#005DB4" fill-rule="nonzero" d="M374.985 457.39c-.384.06-.752-.158-.821-.485-.07-.327.186-.64.57-.7l3.976-.61c.384-.06.752.157.821.485.07.327-.186.64-.57.699l-3.976.611z"/><path fill="#FF7474" fill-rule="nonzero" d="M349.169 427.261a.62.62 0 0 1-.884 0 .636.636 0 0 1 0-.893l2.343-2.368a.62.62 0 0 1 .884 0 .636.636 0 0 1 0 .894l-2.343 2.367z"/><path fill="#005DB4" fill-rule="nonzero" d="M364.242 431.073a.71.71 0 0 1-.51.884c-.396.109-.809-.11-.922-.49l-1.205-4.017a.71.71 0 0 1 .51-.884c.396-.109.81.11.923.49l1.204 4.017z"/><path fill="#FF7474" fill-rule="nonzero" d="M356.003 431.814a.636.636 0 0 1 0 .893.62.62 0 0 1-.884 0l-2.343-2.367a.636.636 0 0 1 0-.893.62.62 0 0 1 .884 0l2.343 2.367z"/><path fill="#005DB4" fill-rule="nonzero" d="M367.15 423.986a.636.636 0 0 1 0-.893.62.62 0 0 1 .883 0l2.343 2.367a.636.636 0 0 1 0 .893.62.62 0 0 1-.884 0l-2.343-2.367zm7.976 9.822c.385-.056.75.172.813.509.065.337-.196.655-.581.712l-3.976.578c-.385.056-.749-.172-.813-.509-.064-.337.196-.655.581-.711l3.976-.579zm9.837.912a.712.712 0 0 1 .49-.89.734.734 0 0 1 .909.479l1.234 4.017a.712.712 0 0 1-.489.89.733.733 0 0 1-.91-.479l-1.234-4.017zm-2.909 7.079a.636.636 0 0 1 0 .893.62.62 0 0 1-.884 0l-2.343-2.368a.636.636 0 0 1 0-.893.62.62 0 0 1 .884 0l2.343 2.368zm-7.069-10.732c-.384.06-.752-.158-.821-.485-.07-.327.186-.64.57-.7l3.976-.61c.384-.06.752.157.821.485.07.327-.186.64-.57.699l-3.976.611zm-36.734 29.976a.712.712 0 0 1 .49-.89.733.733 0 0 1 .909.479l1.234 4.017a.712.712 0 0 1-.489.89.733.733 0 0 1-.91-.479l-1.234-4.017z"/><path fill="#FF7474" fill-rule="nonzero" d="M344.692 457.57a.636.636 0 0 1 0-.893.62.62 0 0 1 .883 0l2.344 2.368a.636.636 0 0 1 0 .893.62.62 0 0 1-.884 0l-2.343-2.368z"/><path fill="#005DB4" fill-rule="nonzero" d="M341.26 447.84c-.308-.174-.433-.597-.279-.944.155-.347.53-.488.839-.314l2.343 1.317c.309.174.434.596.28.943-.155.347-.53.488-.84.314l-2.342-1.317z"/><path fill="#FF7474" fill-rule="nonzero" d="M340.01 452.936c.31-.174.685-.033.84.314.154.347.028.77-.28.943l-2.343 1.317c-.31.174-.684.033-.839-.314-.154-.347-.03-.77.28-.943l2.343-1.317zm-8.793-2.627a.636.636 0 0 1 0-.893.62.62 0 0 1 .884 0l2.343 2.367a.636.636 0 0 1 0 .894.62.62 0 0 1-.884 0l-2.343-2.368z"/><path fill="#005DB4" fill-rule="nonzero" d="M329.172 457.39c-.384.06-.752-.158-.822-.485-.07-.327.186-.64.57-.7l3.976-.61c.384-.06.752.157.821.485.07.327-.185.64-.57.699l-3.975.611z"/><path fill="#FF7474" fill-rule="nonzero" d="M325.461 441.799a.636.636 0 0 1 0 .893.62.62 0 0 1-.884 0l-2.343-2.368a.636.636 0 0 1 0-.893.62.62 0 0 1 .884 0l2.343 2.368z"/><path fill="#005DB4" fill-rule="nonzero" d="M327.516 433.808c.385-.056.75.172.813.509.064.337-.196.655-.581.712l-3.976.578c-.385.056-.75-.172-.813-.509-.064-.337.196-.655.581-.711l3.976-.579zm10.735.912a.712.712 0 0 1 .49-.89.733.733 0 0 1 .909.479l1.234 4.017a.712.712 0 0 1-.489.89.733.733 0 0 1-.91-.479l-1.234-4.017z"/><path fill="#FF7474" fill-rule="nonzero" d="M344.692 431.247a.636.636 0 0 1 0-.893.62.62 0 0 1 .883 0l2.344 2.368a.636.636 0 0 1 0 .893.62.62 0 0 1-.884 0l-2.343-2.368z"/><path fill="#005DB4" fill-rule="nonzero" d="M335.342 441.799a.636.636 0 0 1 0 .893.62.62 0 0 1-.884 0l-2.343-2.368a.636.636 0 0 1 0-.893.62.62 0 0 1 .884 0l2.343 2.368z"/><path fill="#FF7474" fill-rule="nonzero" d="M340.01 426.613c.31-.174.685-.033.84.314.154.347.028.77-.28.943l-2.343 1.317c-.31.174-.684.033-.839-.314-.154-.347-.03-.77.28-.943l2.343-1.317z"/><path fill="#FFE066" d="M307.24 463.181c-1.349 1.332-1.81 3.452 0 3.866 1.809.413 3.36-1.085 3.131-1.996-.228-.911-1.783-3.201-3.131-1.87zm-6.172-8.157c2.65.03 1.942 3.866 1.273 5-.669 1.135-3.683 1.067-5.074-1.16-1.39-2.227 1.151-3.871 3.8-3.84zm-2.414 8.741c-.74.772-.486 2.755.838 2.386 1.323-.37-.099-3.158-.838-2.386z"/><path fill="#000" d="M379.15 387.535c11.04 11.48 23.372 17.22 36.997 17.22 20.437 0 24.728-5.588 24.24-13.903-.489-8.314-18.197-17.536-27.656-17.206-6.306.22-17.5 4.85-33.582 13.889z" opacity=".03"/><path fill="#004586" d="M374 379.547l.27-45.158 54.13.302-.047 45.956-.014.405c-.1 4.64-3.9 9.17-10.996 12.059-12.026 4.895-29.134 3.293-38.022-3.561-3.9-3.013-5.197-6.503-5.321-10.003"/><path fill="#005DB4" d="M379.3 343.344c-8.899-6.896-6.324-16.566 5.717-21.491 12.045-4.925 29.181-3.31 38.082 3.582 8.9 6.898 6.326 16.567-5.718 21.49-12.044 4.924-29.18 3.314-38.08-3.581"/><path fill="#004586" d="M382.862 341.764c-7.266-5.68-5.167-13.643 4.669-17.698 9.836-4.056 23.832-2.728 31.1 2.949 7.268 5.68 5.167 13.642-4.672 17.699-9.833 4.055-23.83 2.726-31.097-2.95"/><path fill="#1D1D1B" d="M419.293 333.354c-7.353-5.68-21.513-7.007-31.462-2.952-4.313 1.759-7.153 4.252-8.391 6.972.696 1.538 1.906 3.028 3.667 4.389 7.352 5.677 21.512 7.007 31.46 2.95 4.315-1.758 7.154-4.25 8.393-6.972-.697-1.538-1.907-3.028-3.667-4.387"/><g transform="translate(421.147 345.253)"><mask id="pricing-banner-d" fill="#fff"><use xlink:href="#pricing-banner-c"/></mask><path fill="#005DB4" d="M3.817 38.107c-1.868 0-3.437-1.482-3.56-3.415-.129-2.011 1.365-3.748 3.333-3.878.991-.081 9.883-1.085 9.883-11.28 0-10.57-8.86-11.715-9.87-11.81C1.637 7.569.18 5.813.333 3.802.486 1.793 2.215.294 4.184.448c.425.034 4.253.402 8.16 2.856 3.772 2.367 8.27 7.108 8.27 16.232 0 8.988-4.558 13.595-8.383 15.88-3.92 2.342-7.756 2.657-8.18 2.685-.08.003-.158.006-.235.006" mask="url(#pricing-banner-d)"/></g><g transform="translate(421.147 345.253)"><mask id="pricing-banner-f" fill="#fff"><use xlink:href="#pricing-banner-e"/></mask><path fill="#004586" d="M3.817 38.107c-1.868 0-3.437-1.482-3.56-3.415-.129-2.011 1.365-3.748 3.333-3.878.991-.081 9.883-1.085 9.883-11.28 0-10.57-8.86-11.715-9.87-11.81C1.637 7.569.18 5.813.333 3.802.486 1.793 2.215.294 4.184.448c.425.034 4.253.402 8.16 2.856 3.772 2.367 8.27 7.108 8.27 16.232 0 8.988-4.558 13.595-8.383 15.88-3.92 2.342-7.756 2.657-8.18 2.685-.08.003-.158.006-.235.006" mask="url(#pricing-banner-f)"/></g></g></svg>